%TF.GenerationSoftware,KiCad,Pcbnew,8.0.8*%
%TF.CreationDate,2025-07-24T20:26:14+03:00*%
%TF.ProjectId,memristor_shield,6d656d72-6973-4746-9f72-5f736869656c,rev?*%
%TF.SameCoordinates,Original*%
%TF.FileFunction,Legend,Top*%
%TF.FilePolarity,Positive*%
%FSLAX46Y46*%
G04 Gerber Fmt 4.6, Leading zero omitted, Abs format (unit mm)*
G04 Created by KiCad (PCBNEW 8.0.8) date 2025-07-24 20:26:14*
%MOMM*%
%LPD*%
G01*
G04 APERTURE LIST*
%ADD10C,0.150000*%
%ADD11C,0.120000*%
G04 APERTURE END LIST*
D10*
X163379580Y-93672857D02*
X163427200Y-93720476D01*
X163427200Y-93720476D02*
X163474819Y-93863333D01*
X163474819Y-93863333D02*
X163474819Y-93958571D01*
X163474819Y-93958571D02*
X163427200Y-94101428D01*
X163427200Y-94101428D02*
X163331961Y-94196666D01*
X163331961Y-94196666D02*
X163236723Y-94244285D01*
X163236723Y-94244285D02*
X163046247Y-94291904D01*
X163046247Y-94291904D02*
X162903390Y-94291904D01*
X162903390Y-94291904D02*
X162712914Y-94244285D01*
X162712914Y-94244285D02*
X162617676Y-94196666D01*
X162617676Y-94196666D02*
X162522438Y-94101428D01*
X162522438Y-94101428D02*
X162474819Y-93958571D01*
X162474819Y-93958571D02*
X162474819Y-93863333D01*
X162474819Y-93863333D02*
X162522438Y-93720476D01*
X162522438Y-93720476D02*
X162570057Y-93672857D01*
X163474819Y-92720476D02*
X163474819Y-93291904D01*
X163474819Y-93006190D02*
X162474819Y-93006190D01*
X162474819Y-93006190D02*
X162617676Y-93101428D01*
X162617676Y-93101428D02*
X162712914Y-93196666D01*
X162712914Y-93196666D02*
X162760533Y-93291904D01*
X162474819Y-92387142D02*
X162474819Y-91768095D01*
X162474819Y-91768095D02*
X162855771Y-92101428D01*
X162855771Y-92101428D02*
X162855771Y-91958571D01*
X162855771Y-91958571D02*
X162903390Y-91863333D01*
X162903390Y-91863333D02*
X162951009Y-91815714D01*
X162951009Y-91815714D02*
X163046247Y-91768095D01*
X163046247Y-91768095D02*
X163284342Y-91768095D01*
X163284342Y-91768095D02*
X163379580Y-91815714D01*
X163379580Y-91815714D02*
X163427200Y-91863333D01*
X163427200Y-91863333D02*
X163474819Y-91958571D01*
X163474819Y-91958571D02*
X163474819Y-92244285D01*
X163474819Y-92244285D02*
X163427200Y-92339523D01*
X163427200Y-92339523D02*
X163379580Y-92387142D01*
X148726666Y-61424819D02*
X148726666Y-62139104D01*
X148726666Y-62139104D02*
X148679047Y-62281961D01*
X148679047Y-62281961D02*
X148583809Y-62377200D01*
X148583809Y-62377200D02*
X148440952Y-62424819D01*
X148440952Y-62424819D02*
X148345714Y-62424819D01*
X149345714Y-61853390D02*
X149250476Y-61805771D01*
X149250476Y-61805771D02*
X149202857Y-61758152D01*
X149202857Y-61758152D02*
X149155238Y-61662914D01*
X149155238Y-61662914D02*
X149155238Y-61615295D01*
X149155238Y-61615295D02*
X149202857Y-61520057D01*
X149202857Y-61520057D02*
X149250476Y-61472438D01*
X149250476Y-61472438D02*
X149345714Y-61424819D01*
X149345714Y-61424819D02*
X149536190Y-61424819D01*
X149536190Y-61424819D02*
X149631428Y-61472438D01*
X149631428Y-61472438D02*
X149679047Y-61520057D01*
X149679047Y-61520057D02*
X149726666Y-61615295D01*
X149726666Y-61615295D02*
X149726666Y-61662914D01*
X149726666Y-61662914D02*
X149679047Y-61758152D01*
X149679047Y-61758152D02*
X149631428Y-61805771D01*
X149631428Y-61805771D02*
X149536190Y-61853390D01*
X149536190Y-61853390D02*
X149345714Y-61853390D01*
X149345714Y-61853390D02*
X149250476Y-61901009D01*
X149250476Y-61901009D02*
X149202857Y-61948628D01*
X149202857Y-61948628D02*
X149155238Y-62043866D01*
X149155238Y-62043866D02*
X149155238Y-62234342D01*
X149155238Y-62234342D02*
X149202857Y-62329580D01*
X149202857Y-62329580D02*
X149250476Y-62377200D01*
X149250476Y-62377200D02*
X149345714Y-62424819D01*
X149345714Y-62424819D02*
X149536190Y-62424819D01*
X149536190Y-62424819D02*
X149631428Y-62377200D01*
X149631428Y-62377200D02*
X149679047Y-62329580D01*
X149679047Y-62329580D02*
X149726666Y-62234342D01*
X149726666Y-62234342D02*
X149726666Y-62043866D01*
X149726666Y-62043866D02*
X149679047Y-61948628D01*
X149679047Y-61948628D02*
X149631428Y-61901009D01*
X149631428Y-61901009D02*
X149536190Y-61853390D01*
X140153333Y-89084819D02*
X139820000Y-88608628D01*
X139581905Y-89084819D02*
X139581905Y-88084819D01*
X139581905Y-88084819D02*
X139962857Y-88084819D01*
X139962857Y-88084819D02*
X140058095Y-88132438D01*
X140058095Y-88132438D02*
X140105714Y-88180057D01*
X140105714Y-88180057D02*
X140153333Y-88275295D01*
X140153333Y-88275295D02*
X140153333Y-88418152D01*
X140153333Y-88418152D02*
X140105714Y-88513390D01*
X140105714Y-88513390D02*
X140058095Y-88561009D01*
X140058095Y-88561009D02*
X139962857Y-88608628D01*
X139962857Y-88608628D02*
X139581905Y-88608628D01*
X141058095Y-88084819D02*
X140581905Y-88084819D01*
X140581905Y-88084819D02*
X140534286Y-88561009D01*
X140534286Y-88561009D02*
X140581905Y-88513390D01*
X140581905Y-88513390D02*
X140677143Y-88465771D01*
X140677143Y-88465771D02*
X140915238Y-88465771D01*
X140915238Y-88465771D02*
X141010476Y-88513390D01*
X141010476Y-88513390D02*
X141058095Y-88561009D01*
X141058095Y-88561009D02*
X141105714Y-88656247D01*
X141105714Y-88656247D02*
X141105714Y-88894342D01*
X141105714Y-88894342D02*
X141058095Y-88989580D01*
X141058095Y-88989580D02*
X141010476Y-89037200D01*
X141010476Y-89037200D02*
X140915238Y-89084819D01*
X140915238Y-89084819D02*
X140677143Y-89084819D01*
X140677143Y-89084819D02*
X140581905Y-89037200D01*
X140581905Y-89037200D02*
X140534286Y-88989580D01*
X117194819Y-62742857D02*
X116718628Y-63076190D01*
X117194819Y-63314285D02*
X116194819Y-63314285D01*
X116194819Y-63314285D02*
X116194819Y-62933333D01*
X116194819Y-62933333D02*
X116242438Y-62838095D01*
X116242438Y-62838095D02*
X116290057Y-62790476D01*
X116290057Y-62790476D02*
X116385295Y-62742857D01*
X116385295Y-62742857D02*
X116528152Y-62742857D01*
X116528152Y-62742857D02*
X116623390Y-62790476D01*
X116623390Y-62790476D02*
X116671009Y-62838095D01*
X116671009Y-62838095D02*
X116718628Y-62933333D01*
X116718628Y-62933333D02*
X116718628Y-63314285D01*
X117194819Y-61790476D02*
X117194819Y-62361904D01*
X117194819Y-62076190D02*
X116194819Y-62076190D01*
X116194819Y-62076190D02*
X116337676Y-62171428D01*
X116337676Y-62171428D02*
X116432914Y-62266666D01*
X116432914Y-62266666D02*
X116480533Y-62361904D01*
X117194819Y-61314285D02*
X117194819Y-61123809D01*
X117194819Y-61123809D02*
X117147200Y-61028571D01*
X117147200Y-61028571D02*
X117099580Y-60980952D01*
X117099580Y-60980952D02*
X116956723Y-60885714D01*
X116956723Y-60885714D02*
X116766247Y-60838095D01*
X116766247Y-60838095D02*
X116385295Y-60838095D01*
X116385295Y-60838095D02*
X116290057Y-60885714D01*
X116290057Y-60885714D02*
X116242438Y-60933333D01*
X116242438Y-60933333D02*
X116194819Y-61028571D01*
X116194819Y-61028571D02*
X116194819Y-61219047D01*
X116194819Y-61219047D02*
X116242438Y-61314285D01*
X116242438Y-61314285D02*
X116290057Y-61361904D01*
X116290057Y-61361904D02*
X116385295Y-61409523D01*
X116385295Y-61409523D02*
X116623390Y-61409523D01*
X116623390Y-61409523D02*
X116718628Y-61361904D01*
X116718628Y-61361904D02*
X116766247Y-61314285D01*
X116766247Y-61314285D02*
X116813866Y-61219047D01*
X116813866Y-61219047D02*
X116813866Y-61028571D01*
X116813866Y-61028571D02*
X116766247Y-60933333D01*
X116766247Y-60933333D02*
X116718628Y-60885714D01*
X116718628Y-60885714D02*
X116623390Y-60838095D01*
X112397142Y-60544819D02*
X112063809Y-60068628D01*
X111825714Y-60544819D02*
X111825714Y-59544819D01*
X111825714Y-59544819D02*
X112206666Y-59544819D01*
X112206666Y-59544819D02*
X112301904Y-59592438D01*
X112301904Y-59592438D02*
X112349523Y-59640057D01*
X112349523Y-59640057D02*
X112397142Y-59735295D01*
X112397142Y-59735295D02*
X112397142Y-59878152D01*
X112397142Y-59878152D02*
X112349523Y-59973390D01*
X112349523Y-59973390D02*
X112301904Y-60021009D01*
X112301904Y-60021009D02*
X112206666Y-60068628D01*
X112206666Y-60068628D02*
X111825714Y-60068628D01*
X113349523Y-60544819D02*
X112778095Y-60544819D01*
X113063809Y-60544819D02*
X113063809Y-59544819D01*
X113063809Y-59544819D02*
X112968571Y-59687676D01*
X112968571Y-59687676D02*
X112873333Y-59782914D01*
X112873333Y-59782914D02*
X112778095Y-59830533D01*
X113682857Y-59544819D02*
X114349523Y-59544819D01*
X114349523Y-59544819D02*
X113920952Y-60544819D01*
X139823333Y-78454819D02*
X139490000Y-77978628D01*
X139251905Y-78454819D02*
X139251905Y-77454819D01*
X139251905Y-77454819D02*
X139632857Y-77454819D01*
X139632857Y-77454819D02*
X139728095Y-77502438D01*
X139728095Y-77502438D02*
X139775714Y-77550057D01*
X139775714Y-77550057D02*
X139823333Y-77645295D01*
X139823333Y-77645295D02*
X139823333Y-77788152D01*
X139823333Y-77788152D02*
X139775714Y-77883390D01*
X139775714Y-77883390D02*
X139728095Y-77931009D01*
X139728095Y-77931009D02*
X139632857Y-77978628D01*
X139632857Y-77978628D02*
X139251905Y-77978628D01*
X140680476Y-77454819D02*
X140490000Y-77454819D01*
X140490000Y-77454819D02*
X140394762Y-77502438D01*
X140394762Y-77502438D02*
X140347143Y-77550057D01*
X140347143Y-77550057D02*
X140251905Y-77692914D01*
X140251905Y-77692914D02*
X140204286Y-77883390D01*
X140204286Y-77883390D02*
X140204286Y-78264342D01*
X140204286Y-78264342D02*
X140251905Y-78359580D01*
X140251905Y-78359580D02*
X140299524Y-78407200D01*
X140299524Y-78407200D02*
X140394762Y-78454819D01*
X140394762Y-78454819D02*
X140585238Y-78454819D01*
X140585238Y-78454819D02*
X140680476Y-78407200D01*
X140680476Y-78407200D02*
X140728095Y-78359580D01*
X140728095Y-78359580D02*
X140775714Y-78264342D01*
X140775714Y-78264342D02*
X140775714Y-78026247D01*
X140775714Y-78026247D02*
X140728095Y-77931009D01*
X140728095Y-77931009D02*
X140680476Y-77883390D01*
X140680476Y-77883390D02*
X140585238Y-77835771D01*
X140585238Y-77835771D02*
X140394762Y-77835771D01*
X140394762Y-77835771D02*
X140299524Y-77883390D01*
X140299524Y-77883390D02*
X140251905Y-77931009D01*
X140251905Y-77931009D02*
X140204286Y-78026247D01*
X161927142Y-82884819D02*
X161593809Y-82408628D01*
X161355714Y-82884819D02*
X161355714Y-81884819D01*
X161355714Y-81884819D02*
X161736666Y-81884819D01*
X161736666Y-81884819D02*
X161831904Y-81932438D01*
X161831904Y-81932438D02*
X161879523Y-81980057D01*
X161879523Y-81980057D02*
X161927142Y-82075295D01*
X161927142Y-82075295D02*
X161927142Y-82218152D01*
X161927142Y-82218152D02*
X161879523Y-82313390D01*
X161879523Y-82313390D02*
X161831904Y-82361009D01*
X161831904Y-82361009D02*
X161736666Y-82408628D01*
X161736666Y-82408628D02*
X161355714Y-82408628D01*
X162879523Y-82884819D02*
X162308095Y-82884819D01*
X162593809Y-82884819D02*
X162593809Y-81884819D01*
X162593809Y-81884819D02*
X162498571Y-82027676D01*
X162498571Y-82027676D02*
X162403333Y-82122914D01*
X162403333Y-82122914D02*
X162308095Y-82170533D01*
X163784285Y-81884819D02*
X163308095Y-81884819D01*
X163308095Y-81884819D02*
X163260476Y-82361009D01*
X163260476Y-82361009D02*
X163308095Y-82313390D01*
X163308095Y-82313390D02*
X163403333Y-82265771D01*
X163403333Y-82265771D02*
X163641428Y-82265771D01*
X163641428Y-82265771D02*
X163736666Y-82313390D01*
X163736666Y-82313390D02*
X163784285Y-82361009D01*
X163784285Y-82361009D02*
X163831904Y-82456247D01*
X163831904Y-82456247D02*
X163831904Y-82694342D01*
X163831904Y-82694342D02*
X163784285Y-82789580D01*
X163784285Y-82789580D02*
X163736666Y-82837200D01*
X163736666Y-82837200D02*
X163641428Y-82884819D01*
X163641428Y-82884819D02*
X163403333Y-82884819D01*
X163403333Y-82884819D02*
X163308095Y-82837200D01*
X163308095Y-82837200D02*
X163260476Y-82789580D01*
X183598095Y-69004819D02*
X183598095Y-69814342D01*
X183598095Y-69814342D02*
X183645714Y-69909580D01*
X183645714Y-69909580D02*
X183693333Y-69957200D01*
X183693333Y-69957200D02*
X183788571Y-70004819D01*
X183788571Y-70004819D02*
X183979047Y-70004819D01*
X183979047Y-70004819D02*
X184074285Y-69957200D01*
X184074285Y-69957200D02*
X184121904Y-69909580D01*
X184121904Y-69909580D02*
X184169523Y-69814342D01*
X184169523Y-69814342D02*
X184169523Y-69004819D01*
X185121904Y-69004819D02*
X184645714Y-69004819D01*
X184645714Y-69004819D02*
X184598095Y-69481009D01*
X184598095Y-69481009D02*
X184645714Y-69433390D01*
X184645714Y-69433390D02*
X184740952Y-69385771D01*
X184740952Y-69385771D02*
X184979047Y-69385771D01*
X184979047Y-69385771D02*
X185074285Y-69433390D01*
X185074285Y-69433390D02*
X185121904Y-69481009D01*
X185121904Y-69481009D02*
X185169523Y-69576247D01*
X185169523Y-69576247D02*
X185169523Y-69814342D01*
X185169523Y-69814342D02*
X185121904Y-69909580D01*
X185121904Y-69909580D02*
X185074285Y-69957200D01*
X185074285Y-69957200D02*
X184979047Y-70004819D01*
X184979047Y-70004819D02*
X184740952Y-70004819D01*
X184740952Y-70004819D02*
X184645714Y-69957200D01*
X184645714Y-69957200D02*
X184598095Y-69909580D01*
X136279580Y-86306666D02*
X136327200Y-86354285D01*
X136327200Y-86354285D02*
X136374819Y-86497142D01*
X136374819Y-86497142D02*
X136374819Y-86592380D01*
X136374819Y-86592380D02*
X136327200Y-86735237D01*
X136327200Y-86735237D02*
X136231961Y-86830475D01*
X136231961Y-86830475D02*
X136136723Y-86878094D01*
X136136723Y-86878094D02*
X135946247Y-86925713D01*
X135946247Y-86925713D02*
X135803390Y-86925713D01*
X135803390Y-86925713D02*
X135612914Y-86878094D01*
X135612914Y-86878094D02*
X135517676Y-86830475D01*
X135517676Y-86830475D02*
X135422438Y-86735237D01*
X135422438Y-86735237D02*
X135374819Y-86592380D01*
X135374819Y-86592380D02*
X135374819Y-86497142D01*
X135374819Y-86497142D02*
X135422438Y-86354285D01*
X135422438Y-86354285D02*
X135470057Y-86306666D01*
X135470057Y-85925713D02*
X135422438Y-85878094D01*
X135422438Y-85878094D02*
X135374819Y-85782856D01*
X135374819Y-85782856D02*
X135374819Y-85544761D01*
X135374819Y-85544761D02*
X135422438Y-85449523D01*
X135422438Y-85449523D02*
X135470057Y-85401904D01*
X135470057Y-85401904D02*
X135565295Y-85354285D01*
X135565295Y-85354285D02*
X135660533Y-85354285D01*
X135660533Y-85354285D02*
X135803390Y-85401904D01*
X135803390Y-85401904D02*
X136374819Y-85973332D01*
X136374819Y-85973332D02*
X136374819Y-85354285D01*
X143084819Y-58226666D02*
X142608628Y-58559999D01*
X143084819Y-58798094D02*
X142084819Y-58798094D01*
X142084819Y-58798094D02*
X142084819Y-58417142D01*
X142084819Y-58417142D02*
X142132438Y-58321904D01*
X142132438Y-58321904D02*
X142180057Y-58274285D01*
X142180057Y-58274285D02*
X142275295Y-58226666D01*
X142275295Y-58226666D02*
X142418152Y-58226666D01*
X142418152Y-58226666D02*
X142513390Y-58274285D01*
X142513390Y-58274285D02*
X142561009Y-58321904D01*
X142561009Y-58321904D02*
X142608628Y-58417142D01*
X142608628Y-58417142D02*
X142608628Y-58798094D01*
X142180057Y-57845713D02*
X142132438Y-57798094D01*
X142132438Y-57798094D02*
X142084819Y-57702856D01*
X142084819Y-57702856D02*
X142084819Y-57464761D01*
X142084819Y-57464761D02*
X142132438Y-57369523D01*
X142132438Y-57369523D02*
X142180057Y-57321904D01*
X142180057Y-57321904D02*
X142275295Y-57274285D01*
X142275295Y-57274285D02*
X142370533Y-57274285D01*
X142370533Y-57274285D02*
X142513390Y-57321904D01*
X142513390Y-57321904D02*
X143084819Y-57893332D01*
X143084819Y-57893332D02*
X143084819Y-57274285D01*
X103034819Y-79805238D02*
X102558628Y-80138571D01*
X103034819Y-80376666D02*
X102034819Y-80376666D01*
X102034819Y-80376666D02*
X102034819Y-79995714D01*
X102034819Y-79995714D02*
X102082438Y-79900476D01*
X102082438Y-79900476D02*
X102130057Y-79852857D01*
X102130057Y-79852857D02*
X102225295Y-79805238D01*
X102225295Y-79805238D02*
X102368152Y-79805238D01*
X102368152Y-79805238D02*
X102463390Y-79852857D01*
X102463390Y-79852857D02*
X102511009Y-79900476D01*
X102511009Y-79900476D02*
X102558628Y-79995714D01*
X102558628Y-79995714D02*
X102558628Y-80376666D01*
X102034819Y-79519523D02*
X103034819Y-79186190D01*
X103034819Y-79186190D02*
X102034819Y-78852857D01*
X102130057Y-78567142D02*
X102082438Y-78519523D01*
X102082438Y-78519523D02*
X102034819Y-78424285D01*
X102034819Y-78424285D02*
X102034819Y-78186190D01*
X102034819Y-78186190D02*
X102082438Y-78090952D01*
X102082438Y-78090952D02*
X102130057Y-78043333D01*
X102130057Y-78043333D02*
X102225295Y-77995714D01*
X102225295Y-77995714D02*
X102320533Y-77995714D01*
X102320533Y-77995714D02*
X102463390Y-78043333D01*
X102463390Y-78043333D02*
X103034819Y-78614761D01*
X103034819Y-78614761D02*
X103034819Y-77995714D01*
X165587142Y-58904819D02*
X165253809Y-58428628D01*
X165015714Y-58904819D02*
X165015714Y-57904819D01*
X165015714Y-57904819D02*
X165396666Y-57904819D01*
X165396666Y-57904819D02*
X165491904Y-57952438D01*
X165491904Y-57952438D02*
X165539523Y-58000057D01*
X165539523Y-58000057D02*
X165587142Y-58095295D01*
X165587142Y-58095295D02*
X165587142Y-58238152D01*
X165587142Y-58238152D02*
X165539523Y-58333390D01*
X165539523Y-58333390D02*
X165491904Y-58381009D01*
X165491904Y-58381009D02*
X165396666Y-58428628D01*
X165396666Y-58428628D02*
X165015714Y-58428628D01*
X166539523Y-58904819D02*
X165968095Y-58904819D01*
X166253809Y-58904819D02*
X166253809Y-57904819D01*
X166253809Y-57904819D02*
X166158571Y-58047676D01*
X166158571Y-58047676D02*
X166063333Y-58142914D01*
X166063333Y-58142914D02*
X165968095Y-58190533D01*
X167491904Y-58904819D02*
X166920476Y-58904819D01*
X167206190Y-58904819D02*
X167206190Y-57904819D01*
X167206190Y-57904819D02*
X167110952Y-58047676D01*
X167110952Y-58047676D02*
X167015714Y-58142914D01*
X167015714Y-58142914D02*
X166920476Y-58190533D01*
X139497142Y-59049580D02*
X139449523Y-59097200D01*
X139449523Y-59097200D02*
X139306666Y-59144819D01*
X139306666Y-59144819D02*
X139211428Y-59144819D01*
X139211428Y-59144819D02*
X139068571Y-59097200D01*
X139068571Y-59097200D02*
X138973333Y-59001961D01*
X138973333Y-59001961D02*
X138925714Y-58906723D01*
X138925714Y-58906723D02*
X138878095Y-58716247D01*
X138878095Y-58716247D02*
X138878095Y-58573390D01*
X138878095Y-58573390D02*
X138925714Y-58382914D01*
X138925714Y-58382914D02*
X138973333Y-58287676D01*
X138973333Y-58287676D02*
X139068571Y-58192438D01*
X139068571Y-58192438D02*
X139211428Y-58144819D01*
X139211428Y-58144819D02*
X139306666Y-58144819D01*
X139306666Y-58144819D02*
X139449523Y-58192438D01*
X139449523Y-58192438D02*
X139497142Y-58240057D01*
X140449523Y-59144819D02*
X139878095Y-59144819D01*
X140163809Y-59144819D02*
X140163809Y-58144819D01*
X140163809Y-58144819D02*
X140068571Y-58287676D01*
X140068571Y-58287676D02*
X139973333Y-58382914D01*
X139973333Y-58382914D02*
X139878095Y-58430533D01*
X141068571Y-58144819D02*
X141163809Y-58144819D01*
X141163809Y-58144819D02*
X141259047Y-58192438D01*
X141259047Y-58192438D02*
X141306666Y-58240057D01*
X141306666Y-58240057D02*
X141354285Y-58335295D01*
X141354285Y-58335295D02*
X141401904Y-58525771D01*
X141401904Y-58525771D02*
X141401904Y-58763866D01*
X141401904Y-58763866D02*
X141354285Y-58954342D01*
X141354285Y-58954342D02*
X141306666Y-59049580D01*
X141306666Y-59049580D02*
X141259047Y-59097200D01*
X141259047Y-59097200D02*
X141163809Y-59144819D01*
X141163809Y-59144819D02*
X141068571Y-59144819D01*
X141068571Y-59144819D02*
X140973333Y-59097200D01*
X140973333Y-59097200D02*
X140925714Y-59049580D01*
X140925714Y-59049580D02*
X140878095Y-58954342D01*
X140878095Y-58954342D02*
X140830476Y-58763866D01*
X140830476Y-58763866D02*
X140830476Y-58525771D01*
X140830476Y-58525771D02*
X140878095Y-58335295D01*
X140878095Y-58335295D02*
X140925714Y-58240057D01*
X140925714Y-58240057D02*
X140973333Y-58192438D01*
X140973333Y-58192438D02*
X141068571Y-58144819D01*
X111144819Y-77518094D02*
X111954342Y-77518094D01*
X111954342Y-77518094D02*
X112049580Y-77470475D01*
X112049580Y-77470475D02*
X112097200Y-77422856D01*
X112097200Y-77422856D02*
X112144819Y-77327618D01*
X112144819Y-77327618D02*
X112144819Y-77137142D01*
X112144819Y-77137142D02*
X112097200Y-77041904D01*
X112097200Y-77041904D02*
X112049580Y-76994285D01*
X112049580Y-76994285D02*
X111954342Y-76946666D01*
X111954342Y-76946666D02*
X111144819Y-76946666D01*
X112144819Y-75946666D02*
X112144819Y-76518094D01*
X112144819Y-76232380D02*
X111144819Y-76232380D01*
X111144819Y-76232380D02*
X111287676Y-76327618D01*
X111287676Y-76327618D02*
X111382914Y-76422856D01*
X111382914Y-76422856D02*
X111430533Y-76518094D01*
X111144819Y-75041904D02*
X111144819Y-75518094D01*
X111144819Y-75518094D02*
X111621009Y-75565713D01*
X111621009Y-75565713D02*
X111573390Y-75518094D01*
X111573390Y-75518094D02*
X111525771Y-75422856D01*
X111525771Y-75422856D02*
X111525771Y-75184761D01*
X111525771Y-75184761D02*
X111573390Y-75089523D01*
X111573390Y-75089523D02*
X111621009Y-75041904D01*
X111621009Y-75041904D02*
X111716247Y-74994285D01*
X111716247Y-74994285D02*
X111954342Y-74994285D01*
X111954342Y-74994285D02*
X112049580Y-75041904D01*
X112049580Y-75041904D02*
X112097200Y-75089523D01*
X112097200Y-75089523D02*
X112144819Y-75184761D01*
X112144819Y-75184761D02*
X112144819Y-75422856D01*
X112144819Y-75422856D02*
X112097200Y-75518094D01*
X112097200Y-75518094D02*
X112049580Y-75565713D01*
X155604819Y-57976666D02*
X155128628Y-58309999D01*
X155604819Y-58548094D02*
X154604819Y-58548094D01*
X154604819Y-58548094D02*
X154604819Y-58167142D01*
X154604819Y-58167142D02*
X154652438Y-58071904D01*
X154652438Y-58071904D02*
X154700057Y-58024285D01*
X154700057Y-58024285D02*
X154795295Y-57976666D01*
X154795295Y-57976666D02*
X154938152Y-57976666D01*
X154938152Y-57976666D02*
X155033390Y-58024285D01*
X155033390Y-58024285D02*
X155081009Y-58071904D01*
X155081009Y-58071904D02*
X155128628Y-58167142D01*
X155128628Y-58167142D02*
X155128628Y-58548094D01*
X155604819Y-57500475D02*
X155604819Y-57309999D01*
X155604819Y-57309999D02*
X155557200Y-57214761D01*
X155557200Y-57214761D02*
X155509580Y-57167142D01*
X155509580Y-57167142D02*
X155366723Y-57071904D01*
X155366723Y-57071904D02*
X155176247Y-57024285D01*
X155176247Y-57024285D02*
X154795295Y-57024285D01*
X154795295Y-57024285D02*
X154700057Y-57071904D01*
X154700057Y-57071904D02*
X154652438Y-57119523D01*
X154652438Y-57119523D02*
X154604819Y-57214761D01*
X154604819Y-57214761D02*
X154604819Y-57405237D01*
X154604819Y-57405237D02*
X154652438Y-57500475D01*
X154652438Y-57500475D02*
X154700057Y-57548094D01*
X154700057Y-57548094D02*
X154795295Y-57595713D01*
X154795295Y-57595713D02*
X155033390Y-57595713D01*
X155033390Y-57595713D02*
X155128628Y-57548094D01*
X155128628Y-57548094D02*
X155176247Y-57500475D01*
X155176247Y-57500475D02*
X155223866Y-57405237D01*
X155223866Y-57405237D02*
X155223866Y-57214761D01*
X155223866Y-57214761D02*
X155176247Y-57119523D01*
X155176247Y-57119523D02*
X155128628Y-57071904D01*
X155128628Y-57071904D02*
X155033390Y-57024285D01*
X121389580Y-79046666D02*
X121437200Y-79094285D01*
X121437200Y-79094285D02*
X121484819Y-79237142D01*
X121484819Y-79237142D02*
X121484819Y-79332380D01*
X121484819Y-79332380D02*
X121437200Y-79475237D01*
X121437200Y-79475237D02*
X121341961Y-79570475D01*
X121341961Y-79570475D02*
X121246723Y-79618094D01*
X121246723Y-79618094D02*
X121056247Y-79665713D01*
X121056247Y-79665713D02*
X120913390Y-79665713D01*
X120913390Y-79665713D02*
X120722914Y-79618094D01*
X120722914Y-79618094D02*
X120627676Y-79570475D01*
X120627676Y-79570475D02*
X120532438Y-79475237D01*
X120532438Y-79475237D02*
X120484819Y-79332380D01*
X120484819Y-79332380D02*
X120484819Y-79237142D01*
X120484819Y-79237142D02*
X120532438Y-79094285D01*
X120532438Y-79094285D02*
X120580057Y-79046666D01*
X120484819Y-78713332D02*
X120484819Y-78094285D01*
X120484819Y-78094285D02*
X120865771Y-78427618D01*
X120865771Y-78427618D02*
X120865771Y-78284761D01*
X120865771Y-78284761D02*
X120913390Y-78189523D01*
X120913390Y-78189523D02*
X120961009Y-78141904D01*
X120961009Y-78141904D02*
X121056247Y-78094285D01*
X121056247Y-78094285D02*
X121294342Y-78094285D01*
X121294342Y-78094285D02*
X121389580Y-78141904D01*
X121389580Y-78141904D02*
X121437200Y-78189523D01*
X121437200Y-78189523D02*
X121484819Y-78284761D01*
X121484819Y-78284761D02*
X121484819Y-78570475D01*
X121484819Y-78570475D02*
X121437200Y-78665713D01*
X121437200Y-78665713D02*
X121389580Y-78713332D01*
X160534819Y-58522857D02*
X160058628Y-58856190D01*
X160534819Y-59094285D02*
X159534819Y-59094285D01*
X159534819Y-59094285D02*
X159534819Y-58713333D01*
X159534819Y-58713333D02*
X159582438Y-58618095D01*
X159582438Y-58618095D02*
X159630057Y-58570476D01*
X159630057Y-58570476D02*
X159725295Y-58522857D01*
X159725295Y-58522857D02*
X159868152Y-58522857D01*
X159868152Y-58522857D02*
X159963390Y-58570476D01*
X159963390Y-58570476D02*
X160011009Y-58618095D01*
X160011009Y-58618095D02*
X160058628Y-58713333D01*
X160058628Y-58713333D02*
X160058628Y-59094285D01*
X160534819Y-57570476D02*
X160534819Y-58141904D01*
X160534819Y-57856190D02*
X159534819Y-57856190D01*
X159534819Y-57856190D02*
X159677676Y-57951428D01*
X159677676Y-57951428D02*
X159772914Y-58046666D01*
X159772914Y-58046666D02*
X159820533Y-58141904D01*
X159534819Y-56951428D02*
X159534819Y-56856190D01*
X159534819Y-56856190D02*
X159582438Y-56760952D01*
X159582438Y-56760952D02*
X159630057Y-56713333D01*
X159630057Y-56713333D02*
X159725295Y-56665714D01*
X159725295Y-56665714D02*
X159915771Y-56618095D01*
X159915771Y-56618095D02*
X160153866Y-56618095D01*
X160153866Y-56618095D02*
X160344342Y-56665714D01*
X160344342Y-56665714D02*
X160439580Y-56713333D01*
X160439580Y-56713333D02*
X160487200Y-56760952D01*
X160487200Y-56760952D02*
X160534819Y-56856190D01*
X160534819Y-56856190D02*
X160534819Y-56951428D01*
X160534819Y-56951428D02*
X160487200Y-57046666D01*
X160487200Y-57046666D02*
X160439580Y-57094285D01*
X160439580Y-57094285D02*
X160344342Y-57141904D01*
X160344342Y-57141904D02*
X160153866Y-57189523D01*
X160153866Y-57189523D02*
X159915771Y-57189523D01*
X159915771Y-57189523D02*
X159725295Y-57141904D01*
X159725295Y-57141904D02*
X159630057Y-57094285D01*
X159630057Y-57094285D02*
X159582438Y-57046666D01*
X159582438Y-57046666D02*
X159534819Y-56951428D01*
X139763333Y-66054819D02*
X139430000Y-65578628D01*
X139191905Y-66054819D02*
X139191905Y-65054819D01*
X139191905Y-65054819D02*
X139572857Y-65054819D01*
X139572857Y-65054819D02*
X139668095Y-65102438D01*
X139668095Y-65102438D02*
X139715714Y-65150057D01*
X139715714Y-65150057D02*
X139763333Y-65245295D01*
X139763333Y-65245295D02*
X139763333Y-65388152D01*
X139763333Y-65388152D02*
X139715714Y-65483390D01*
X139715714Y-65483390D02*
X139668095Y-65531009D01*
X139668095Y-65531009D02*
X139572857Y-65578628D01*
X139572857Y-65578628D02*
X139191905Y-65578628D01*
X140096667Y-65054819D02*
X140715714Y-65054819D01*
X140715714Y-65054819D02*
X140382381Y-65435771D01*
X140382381Y-65435771D02*
X140525238Y-65435771D01*
X140525238Y-65435771D02*
X140620476Y-65483390D01*
X140620476Y-65483390D02*
X140668095Y-65531009D01*
X140668095Y-65531009D02*
X140715714Y-65626247D01*
X140715714Y-65626247D02*
X140715714Y-65864342D01*
X140715714Y-65864342D02*
X140668095Y-65959580D01*
X140668095Y-65959580D02*
X140620476Y-66007200D01*
X140620476Y-66007200D02*
X140525238Y-66054819D01*
X140525238Y-66054819D02*
X140239524Y-66054819D01*
X140239524Y-66054819D02*
X140144286Y-66007200D01*
X140144286Y-66007200D02*
X140096667Y-65959580D01*
X169437142Y-76424819D02*
X169103809Y-75948628D01*
X168865714Y-76424819D02*
X168865714Y-75424819D01*
X168865714Y-75424819D02*
X169246666Y-75424819D01*
X169246666Y-75424819D02*
X169341904Y-75472438D01*
X169341904Y-75472438D02*
X169389523Y-75520057D01*
X169389523Y-75520057D02*
X169437142Y-75615295D01*
X169437142Y-75615295D02*
X169437142Y-75758152D01*
X169437142Y-75758152D02*
X169389523Y-75853390D01*
X169389523Y-75853390D02*
X169341904Y-75901009D01*
X169341904Y-75901009D02*
X169246666Y-75948628D01*
X169246666Y-75948628D02*
X168865714Y-75948628D01*
X170389523Y-76424819D02*
X169818095Y-76424819D01*
X170103809Y-76424819D02*
X170103809Y-75424819D01*
X170103809Y-75424819D02*
X170008571Y-75567676D01*
X170008571Y-75567676D02*
X169913333Y-75662914D01*
X169913333Y-75662914D02*
X169818095Y-75710533D01*
X170722857Y-75424819D02*
X171341904Y-75424819D01*
X171341904Y-75424819D02*
X171008571Y-75805771D01*
X171008571Y-75805771D02*
X171151428Y-75805771D01*
X171151428Y-75805771D02*
X171246666Y-75853390D01*
X171246666Y-75853390D02*
X171294285Y-75901009D01*
X171294285Y-75901009D02*
X171341904Y-75996247D01*
X171341904Y-75996247D02*
X171341904Y-76234342D01*
X171341904Y-76234342D02*
X171294285Y-76329580D01*
X171294285Y-76329580D02*
X171246666Y-76377200D01*
X171246666Y-76377200D02*
X171151428Y-76424819D01*
X171151428Y-76424819D02*
X170865714Y-76424819D01*
X170865714Y-76424819D02*
X170770476Y-76377200D01*
X170770476Y-76377200D02*
X170722857Y-76329580D01*
X139753333Y-70144819D02*
X139420000Y-69668628D01*
X139181905Y-70144819D02*
X139181905Y-69144819D01*
X139181905Y-69144819D02*
X139562857Y-69144819D01*
X139562857Y-69144819D02*
X139658095Y-69192438D01*
X139658095Y-69192438D02*
X139705714Y-69240057D01*
X139705714Y-69240057D02*
X139753333Y-69335295D01*
X139753333Y-69335295D02*
X139753333Y-69478152D01*
X139753333Y-69478152D02*
X139705714Y-69573390D01*
X139705714Y-69573390D02*
X139658095Y-69621009D01*
X139658095Y-69621009D02*
X139562857Y-69668628D01*
X139562857Y-69668628D02*
X139181905Y-69668628D01*
X140610476Y-69478152D02*
X140610476Y-70144819D01*
X140372381Y-69097200D02*
X140134286Y-69811485D01*
X140134286Y-69811485D02*
X140753333Y-69811485D01*
X124719580Y-74279166D02*
X124767200Y-74326785D01*
X124767200Y-74326785D02*
X124814819Y-74469642D01*
X124814819Y-74469642D02*
X124814819Y-74564880D01*
X124814819Y-74564880D02*
X124767200Y-74707737D01*
X124767200Y-74707737D02*
X124671961Y-74802975D01*
X124671961Y-74802975D02*
X124576723Y-74850594D01*
X124576723Y-74850594D02*
X124386247Y-74898213D01*
X124386247Y-74898213D02*
X124243390Y-74898213D01*
X124243390Y-74898213D02*
X124052914Y-74850594D01*
X124052914Y-74850594D02*
X123957676Y-74802975D01*
X123957676Y-74802975D02*
X123862438Y-74707737D01*
X123862438Y-74707737D02*
X123814819Y-74564880D01*
X123814819Y-74564880D02*
X123814819Y-74469642D01*
X123814819Y-74469642D02*
X123862438Y-74326785D01*
X123862438Y-74326785D02*
X123910057Y-74279166D01*
X124148152Y-73422023D02*
X124814819Y-73422023D01*
X123767200Y-73660118D02*
X124481485Y-73898213D01*
X124481485Y-73898213D02*
X124481485Y-73279166D01*
X112387142Y-56944819D02*
X112053809Y-56468628D01*
X111815714Y-56944819D02*
X111815714Y-55944819D01*
X111815714Y-55944819D02*
X112196666Y-55944819D01*
X112196666Y-55944819D02*
X112291904Y-55992438D01*
X112291904Y-55992438D02*
X112339523Y-56040057D01*
X112339523Y-56040057D02*
X112387142Y-56135295D01*
X112387142Y-56135295D02*
X112387142Y-56278152D01*
X112387142Y-56278152D02*
X112339523Y-56373390D01*
X112339523Y-56373390D02*
X112291904Y-56421009D01*
X112291904Y-56421009D02*
X112196666Y-56468628D01*
X112196666Y-56468628D02*
X111815714Y-56468628D01*
X113339523Y-56944819D02*
X112768095Y-56944819D01*
X113053809Y-56944819D02*
X113053809Y-55944819D01*
X113053809Y-55944819D02*
X112958571Y-56087676D01*
X112958571Y-56087676D02*
X112863333Y-56182914D01*
X112863333Y-56182914D02*
X112768095Y-56230533D01*
X113910952Y-56373390D02*
X113815714Y-56325771D01*
X113815714Y-56325771D02*
X113768095Y-56278152D01*
X113768095Y-56278152D02*
X113720476Y-56182914D01*
X113720476Y-56182914D02*
X113720476Y-56135295D01*
X113720476Y-56135295D02*
X113768095Y-56040057D01*
X113768095Y-56040057D02*
X113815714Y-55992438D01*
X113815714Y-55992438D02*
X113910952Y-55944819D01*
X113910952Y-55944819D02*
X114101428Y-55944819D01*
X114101428Y-55944819D02*
X114196666Y-55992438D01*
X114196666Y-55992438D02*
X114244285Y-56040057D01*
X114244285Y-56040057D02*
X114291904Y-56135295D01*
X114291904Y-56135295D02*
X114291904Y-56182914D01*
X114291904Y-56182914D02*
X114244285Y-56278152D01*
X114244285Y-56278152D02*
X114196666Y-56325771D01*
X114196666Y-56325771D02*
X114101428Y-56373390D01*
X114101428Y-56373390D02*
X113910952Y-56373390D01*
X113910952Y-56373390D02*
X113815714Y-56421009D01*
X113815714Y-56421009D02*
X113768095Y-56468628D01*
X113768095Y-56468628D02*
X113720476Y-56563866D01*
X113720476Y-56563866D02*
X113720476Y-56754342D01*
X113720476Y-56754342D02*
X113768095Y-56849580D01*
X113768095Y-56849580D02*
X113815714Y-56897200D01*
X113815714Y-56897200D02*
X113910952Y-56944819D01*
X113910952Y-56944819D02*
X114101428Y-56944819D01*
X114101428Y-56944819D02*
X114196666Y-56897200D01*
X114196666Y-56897200D02*
X114244285Y-56849580D01*
X114244285Y-56849580D02*
X114291904Y-56754342D01*
X114291904Y-56754342D02*
X114291904Y-56563866D01*
X114291904Y-56563866D02*
X114244285Y-56468628D01*
X114244285Y-56468628D02*
X114196666Y-56421009D01*
X114196666Y-56421009D02*
X114101428Y-56373390D01*
X161907142Y-78334819D02*
X161573809Y-77858628D01*
X161335714Y-78334819D02*
X161335714Y-77334819D01*
X161335714Y-77334819D02*
X161716666Y-77334819D01*
X161716666Y-77334819D02*
X161811904Y-77382438D01*
X161811904Y-77382438D02*
X161859523Y-77430057D01*
X161859523Y-77430057D02*
X161907142Y-77525295D01*
X161907142Y-77525295D02*
X161907142Y-77668152D01*
X161907142Y-77668152D02*
X161859523Y-77763390D01*
X161859523Y-77763390D02*
X161811904Y-77811009D01*
X161811904Y-77811009D02*
X161716666Y-77858628D01*
X161716666Y-77858628D02*
X161335714Y-77858628D01*
X162859523Y-78334819D02*
X162288095Y-78334819D01*
X162573809Y-78334819D02*
X162573809Y-77334819D01*
X162573809Y-77334819D02*
X162478571Y-77477676D01*
X162478571Y-77477676D02*
X162383333Y-77572914D01*
X162383333Y-77572914D02*
X162288095Y-77620533D01*
X163716666Y-77668152D02*
X163716666Y-78334819D01*
X163478571Y-77287200D02*
X163240476Y-78001485D01*
X163240476Y-78001485D02*
X163859523Y-78001485D01*
X139833333Y-87304819D02*
X139500000Y-86828628D01*
X139261905Y-87304819D02*
X139261905Y-86304819D01*
X139261905Y-86304819D02*
X139642857Y-86304819D01*
X139642857Y-86304819D02*
X139738095Y-86352438D01*
X139738095Y-86352438D02*
X139785714Y-86400057D01*
X139785714Y-86400057D02*
X139833333Y-86495295D01*
X139833333Y-86495295D02*
X139833333Y-86638152D01*
X139833333Y-86638152D02*
X139785714Y-86733390D01*
X139785714Y-86733390D02*
X139738095Y-86781009D01*
X139738095Y-86781009D02*
X139642857Y-86828628D01*
X139642857Y-86828628D02*
X139261905Y-86828628D01*
X140404762Y-86733390D02*
X140309524Y-86685771D01*
X140309524Y-86685771D02*
X140261905Y-86638152D01*
X140261905Y-86638152D02*
X140214286Y-86542914D01*
X140214286Y-86542914D02*
X140214286Y-86495295D01*
X140214286Y-86495295D02*
X140261905Y-86400057D01*
X140261905Y-86400057D02*
X140309524Y-86352438D01*
X140309524Y-86352438D02*
X140404762Y-86304819D01*
X140404762Y-86304819D02*
X140595238Y-86304819D01*
X140595238Y-86304819D02*
X140690476Y-86352438D01*
X140690476Y-86352438D02*
X140738095Y-86400057D01*
X140738095Y-86400057D02*
X140785714Y-86495295D01*
X140785714Y-86495295D02*
X140785714Y-86542914D01*
X140785714Y-86542914D02*
X140738095Y-86638152D01*
X140738095Y-86638152D02*
X140690476Y-86685771D01*
X140690476Y-86685771D02*
X140595238Y-86733390D01*
X140595238Y-86733390D02*
X140404762Y-86733390D01*
X140404762Y-86733390D02*
X140309524Y-86781009D01*
X140309524Y-86781009D02*
X140261905Y-86828628D01*
X140261905Y-86828628D02*
X140214286Y-86923866D01*
X140214286Y-86923866D02*
X140214286Y-87114342D01*
X140214286Y-87114342D02*
X140261905Y-87209580D01*
X140261905Y-87209580D02*
X140309524Y-87257200D01*
X140309524Y-87257200D02*
X140404762Y-87304819D01*
X140404762Y-87304819D02*
X140595238Y-87304819D01*
X140595238Y-87304819D02*
X140690476Y-87257200D01*
X140690476Y-87257200D02*
X140738095Y-87209580D01*
X140738095Y-87209580D02*
X140785714Y-87114342D01*
X140785714Y-87114342D02*
X140785714Y-86923866D01*
X140785714Y-86923866D02*
X140738095Y-86828628D01*
X140738095Y-86828628D02*
X140690476Y-86781009D01*
X140690476Y-86781009D02*
X140595238Y-86733390D01*
X139853333Y-82874819D02*
X139520000Y-82398628D01*
X139281905Y-82874819D02*
X139281905Y-81874819D01*
X139281905Y-81874819D02*
X139662857Y-81874819D01*
X139662857Y-81874819D02*
X139758095Y-81922438D01*
X139758095Y-81922438D02*
X139805714Y-81970057D01*
X139805714Y-81970057D02*
X139853333Y-82065295D01*
X139853333Y-82065295D02*
X139853333Y-82208152D01*
X139853333Y-82208152D02*
X139805714Y-82303390D01*
X139805714Y-82303390D02*
X139758095Y-82351009D01*
X139758095Y-82351009D02*
X139662857Y-82398628D01*
X139662857Y-82398628D02*
X139281905Y-82398628D01*
X140186667Y-81874819D02*
X140853333Y-81874819D01*
X140853333Y-81874819D02*
X140424762Y-82874819D01*
X104270476Y-70804819D02*
X104270476Y-71519104D01*
X104270476Y-71519104D02*
X104222857Y-71661961D01*
X104222857Y-71661961D02*
X104127619Y-71757200D01*
X104127619Y-71757200D02*
X103984762Y-71804819D01*
X103984762Y-71804819D02*
X103889524Y-71804819D01*
X105270476Y-71804819D02*
X104699048Y-71804819D01*
X104984762Y-71804819D02*
X104984762Y-70804819D01*
X104984762Y-70804819D02*
X104889524Y-70947676D01*
X104889524Y-70947676D02*
X104794286Y-71042914D01*
X104794286Y-71042914D02*
X104699048Y-71090533D01*
X105889524Y-70804819D02*
X105984762Y-70804819D01*
X105984762Y-70804819D02*
X106080000Y-70852438D01*
X106080000Y-70852438D02*
X106127619Y-70900057D01*
X106127619Y-70900057D02*
X106175238Y-70995295D01*
X106175238Y-70995295D02*
X106222857Y-71185771D01*
X106222857Y-71185771D02*
X106222857Y-71423866D01*
X106222857Y-71423866D02*
X106175238Y-71614342D01*
X106175238Y-71614342D02*
X106127619Y-71709580D01*
X106127619Y-71709580D02*
X106080000Y-71757200D01*
X106080000Y-71757200D02*
X105984762Y-71804819D01*
X105984762Y-71804819D02*
X105889524Y-71804819D01*
X105889524Y-71804819D02*
X105794286Y-71757200D01*
X105794286Y-71757200D02*
X105746667Y-71709580D01*
X105746667Y-71709580D02*
X105699048Y-71614342D01*
X105699048Y-71614342D02*
X105651429Y-71423866D01*
X105651429Y-71423866D02*
X105651429Y-71185771D01*
X105651429Y-71185771D02*
X105699048Y-70995295D01*
X105699048Y-70995295D02*
X105746667Y-70900057D01*
X105746667Y-70900057D02*
X105794286Y-70852438D01*
X105794286Y-70852438D02*
X105889524Y-70804819D01*
X147874819Y-58186666D02*
X147398628Y-58519999D01*
X147874819Y-58758094D02*
X146874819Y-58758094D01*
X146874819Y-58758094D02*
X146874819Y-58377142D01*
X146874819Y-58377142D02*
X146922438Y-58281904D01*
X146922438Y-58281904D02*
X146970057Y-58234285D01*
X146970057Y-58234285D02*
X147065295Y-58186666D01*
X147065295Y-58186666D02*
X147208152Y-58186666D01*
X147208152Y-58186666D02*
X147303390Y-58234285D01*
X147303390Y-58234285D02*
X147351009Y-58281904D01*
X147351009Y-58281904D02*
X147398628Y-58377142D01*
X147398628Y-58377142D02*
X147398628Y-58758094D01*
X147874819Y-57234285D02*
X147874819Y-57805713D01*
X147874819Y-57519999D02*
X146874819Y-57519999D01*
X146874819Y-57519999D02*
X147017676Y-57615237D01*
X147017676Y-57615237D02*
X147112914Y-57710475D01*
X147112914Y-57710475D02*
X147160533Y-57805713D01*
X156346666Y-61424819D02*
X156346666Y-62139104D01*
X156346666Y-62139104D02*
X156299047Y-62281961D01*
X156299047Y-62281961D02*
X156203809Y-62377200D01*
X156203809Y-62377200D02*
X156060952Y-62424819D01*
X156060952Y-62424819D02*
X155965714Y-62424819D01*
X156870476Y-62424819D02*
X157060952Y-62424819D01*
X157060952Y-62424819D02*
X157156190Y-62377200D01*
X157156190Y-62377200D02*
X157203809Y-62329580D01*
X157203809Y-62329580D02*
X157299047Y-62186723D01*
X157299047Y-62186723D02*
X157346666Y-61996247D01*
X157346666Y-61996247D02*
X157346666Y-61615295D01*
X157346666Y-61615295D02*
X157299047Y-61520057D01*
X157299047Y-61520057D02*
X157251428Y-61472438D01*
X157251428Y-61472438D02*
X157156190Y-61424819D01*
X157156190Y-61424819D02*
X156965714Y-61424819D01*
X156965714Y-61424819D02*
X156870476Y-61472438D01*
X156870476Y-61472438D02*
X156822857Y-61520057D01*
X156822857Y-61520057D02*
X156775238Y-61615295D01*
X156775238Y-61615295D02*
X156775238Y-61853390D01*
X156775238Y-61853390D02*
X156822857Y-61948628D01*
X156822857Y-61948628D02*
X156870476Y-61996247D01*
X156870476Y-61996247D02*
X156965714Y-62043866D01*
X156965714Y-62043866D02*
X157156190Y-62043866D01*
X157156190Y-62043866D02*
X157251428Y-61996247D01*
X157251428Y-61996247D02*
X157299047Y-61948628D01*
X157299047Y-61948628D02*
X157346666Y-61853390D01*
X159857142Y-87384819D02*
X159523809Y-86908628D01*
X159285714Y-87384819D02*
X159285714Y-86384819D01*
X159285714Y-86384819D02*
X159666666Y-86384819D01*
X159666666Y-86384819D02*
X159761904Y-86432438D01*
X159761904Y-86432438D02*
X159809523Y-86480057D01*
X159809523Y-86480057D02*
X159857142Y-86575295D01*
X159857142Y-86575295D02*
X159857142Y-86718152D01*
X159857142Y-86718152D02*
X159809523Y-86813390D01*
X159809523Y-86813390D02*
X159761904Y-86861009D01*
X159761904Y-86861009D02*
X159666666Y-86908628D01*
X159666666Y-86908628D02*
X159285714Y-86908628D01*
X160809523Y-87384819D02*
X160238095Y-87384819D01*
X160523809Y-87384819D02*
X160523809Y-86384819D01*
X160523809Y-86384819D02*
X160428571Y-86527676D01*
X160428571Y-86527676D02*
X160333333Y-86622914D01*
X160333333Y-86622914D02*
X160238095Y-86670533D01*
X161666666Y-86384819D02*
X161476190Y-86384819D01*
X161476190Y-86384819D02*
X161380952Y-86432438D01*
X161380952Y-86432438D02*
X161333333Y-86480057D01*
X161333333Y-86480057D02*
X161238095Y-86622914D01*
X161238095Y-86622914D02*
X161190476Y-86813390D01*
X161190476Y-86813390D02*
X161190476Y-87194342D01*
X161190476Y-87194342D02*
X161238095Y-87289580D01*
X161238095Y-87289580D02*
X161285714Y-87337200D01*
X161285714Y-87337200D02*
X161380952Y-87384819D01*
X161380952Y-87384819D02*
X161571428Y-87384819D01*
X161571428Y-87384819D02*
X161666666Y-87337200D01*
X161666666Y-87337200D02*
X161714285Y-87289580D01*
X161714285Y-87289580D02*
X161761904Y-87194342D01*
X161761904Y-87194342D02*
X161761904Y-86956247D01*
X161761904Y-86956247D02*
X161714285Y-86861009D01*
X161714285Y-86861009D02*
X161666666Y-86813390D01*
X161666666Y-86813390D02*
X161571428Y-86765771D01*
X161571428Y-86765771D02*
X161380952Y-86765771D01*
X161380952Y-86765771D02*
X161285714Y-86813390D01*
X161285714Y-86813390D02*
X161238095Y-86861009D01*
X161238095Y-86861009D02*
X161190476Y-86956247D01*
X182688095Y-77304819D02*
X182688095Y-78114342D01*
X182688095Y-78114342D02*
X182735714Y-78209580D01*
X182735714Y-78209580D02*
X182783333Y-78257200D01*
X182783333Y-78257200D02*
X182878571Y-78304819D01*
X182878571Y-78304819D02*
X183069047Y-78304819D01*
X183069047Y-78304819D02*
X183164285Y-78257200D01*
X183164285Y-78257200D02*
X183211904Y-78209580D01*
X183211904Y-78209580D02*
X183259523Y-78114342D01*
X183259523Y-78114342D02*
X183259523Y-77304819D01*
X184164285Y-77304819D02*
X183973809Y-77304819D01*
X183973809Y-77304819D02*
X183878571Y-77352438D01*
X183878571Y-77352438D02*
X183830952Y-77400057D01*
X183830952Y-77400057D02*
X183735714Y-77542914D01*
X183735714Y-77542914D02*
X183688095Y-77733390D01*
X183688095Y-77733390D02*
X183688095Y-78114342D01*
X183688095Y-78114342D02*
X183735714Y-78209580D01*
X183735714Y-78209580D02*
X183783333Y-78257200D01*
X183783333Y-78257200D02*
X183878571Y-78304819D01*
X183878571Y-78304819D02*
X184069047Y-78304819D01*
X184069047Y-78304819D02*
X184164285Y-78257200D01*
X184164285Y-78257200D02*
X184211904Y-78209580D01*
X184211904Y-78209580D02*
X184259523Y-78114342D01*
X184259523Y-78114342D02*
X184259523Y-77876247D01*
X184259523Y-77876247D02*
X184211904Y-77781009D01*
X184211904Y-77781009D02*
X184164285Y-77733390D01*
X184164285Y-77733390D02*
X184069047Y-77685771D01*
X184069047Y-77685771D02*
X183878571Y-77685771D01*
X183878571Y-77685771D02*
X183783333Y-77733390D01*
X183783333Y-77733390D02*
X183735714Y-77781009D01*
X183735714Y-77781009D02*
X183688095Y-77876247D01*
X181038095Y-85464819D02*
X181038095Y-86274342D01*
X181038095Y-86274342D02*
X181085714Y-86369580D01*
X181085714Y-86369580D02*
X181133333Y-86417200D01*
X181133333Y-86417200D02*
X181228571Y-86464819D01*
X181228571Y-86464819D02*
X181419047Y-86464819D01*
X181419047Y-86464819D02*
X181514285Y-86417200D01*
X181514285Y-86417200D02*
X181561904Y-86369580D01*
X181561904Y-86369580D02*
X181609523Y-86274342D01*
X181609523Y-86274342D02*
X181609523Y-85464819D01*
X181990476Y-85464819D02*
X182657142Y-85464819D01*
X182657142Y-85464819D02*
X182228571Y-86464819D01*
X176407142Y-69159580D02*
X176359523Y-69207200D01*
X176359523Y-69207200D02*
X176216666Y-69254819D01*
X176216666Y-69254819D02*
X176121428Y-69254819D01*
X176121428Y-69254819D02*
X175978571Y-69207200D01*
X175978571Y-69207200D02*
X175883333Y-69111961D01*
X175883333Y-69111961D02*
X175835714Y-69016723D01*
X175835714Y-69016723D02*
X175788095Y-68826247D01*
X175788095Y-68826247D02*
X175788095Y-68683390D01*
X175788095Y-68683390D02*
X175835714Y-68492914D01*
X175835714Y-68492914D02*
X175883333Y-68397676D01*
X175883333Y-68397676D02*
X175978571Y-68302438D01*
X175978571Y-68302438D02*
X176121428Y-68254819D01*
X176121428Y-68254819D02*
X176216666Y-68254819D01*
X176216666Y-68254819D02*
X176359523Y-68302438D01*
X176359523Y-68302438D02*
X176407142Y-68350057D01*
X177359523Y-69254819D02*
X176788095Y-69254819D01*
X177073809Y-69254819D02*
X177073809Y-68254819D01*
X177073809Y-68254819D02*
X176978571Y-68397676D01*
X176978571Y-68397676D02*
X176883333Y-68492914D01*
X176883333Y-68492914D02*
X176788095Y-68540533D01*
X177740476Y-68350057D02*
X177788095Y-68302438D01*
X177788095Y-68302438D02*
X177883333Y-68254819D01*
X177883333Y-68254819D02*
X178121428Y-68254819D01*
X178121428Y-68254819D02*
X178216666Y-68302438D01*
X178216666Y-68302438D02*
X178264285Y-68350057D01*
X178264285Y-68350057D02*
X178311904Y-68445295D01*
X178311904Y-68445295D02*
X178311904Y-68540533D01*
X178311904Y-68540533D02*
X178264285Y-68683390D01*
X178264285Y-68683390D02*
X177692857Y-69254819D01*
X177692857Y-69254819D02*
X178311904Y-69254819D01*
X171387142Y-66024819D02*
X171053809Y-65548628D01*
X170815714Y-66024819D02*
X170815714Y-65024819D01*
X170815714Y-65024819D02*
X171196666Y-65024819D01*
X171196666Y-65024819D02*
X171291904Y-65072438D01*
X171291904Y-65072438D02*
X171339523Y-65120057D01*
X171339523Y-65120057D02*
X171387142Y-65215295D01*
X171387142Y-65215295D02*
X171387142Y-65358152D01*
X171387142Y-65358152D02*
X171339523Y-65453390D01*
X171339523Y-65453390D02*
X171291904Y-65501009D01*
X171291904Y-65501009D02*
X171196666Y-65548628D01*
X171196666Y-65548628D02*
X170815714Y-65548628D01*
X172339523Y-66024819D02*
X171768095Y-66024819D01*
X172053809Y-66024819D02*
X172053809Y-65024819D01*
X172053809Y-65024819D02*
X171958571Y-65167676D01*
X171958571Y-65167676D02*
X171863333Y-65262914D01*
X171863333Y-65262914D02*
X171768095Y-65310533D01*
X172720476Y-65120057D02*
X172768095Y-65072438D01*
X172768095Y-65072438D02*
X172863333Y-65024819D01*
X172863333Y-65024819D02*
X173101428Y-65024819D01*
X173101428Y-65024819D02*
X173196666Y-65072438D01*
X173196666Y-65072438D02*
X173244285Y-65120057D01*
X173244285Y-65120057D02*
X173291904Y-65215295D01*
X173291904Y-65215295D02*
X173291904Y-65310533D01*
X173291904Y-65310533D02*
X173244285Y-65453390D01*
X173244285Y-65453390D02*
X172672857Y-66024819D01*
X172672857Y-66024819D02*
X173291904Y-66024819D01*
X128364819Y-72732857D02*
X127888628Y-73066190D01*
X128364819Y-73304285D02*
X127364819Y-73304285D01*
X127364819Y-73304285D02*
X127364819Y-72923333D01*
X127364819Y-72923333D02*
X127412438Y-72828095D01*
X127412438Y-72828095D02*
X127460057Y-72780476D01*
X127460057Y-72780476D02*
X127555295Y-72732857D01*
X127555295Y-72732857D02*
X127698152Y-72732857D01*
X127698152Y-72732857D02*
X127793390Y-72780476D01*
X127793390Y-72780476D02*
X127841009Y-72828095D01*
X127841009Y-72828095D02*
X127888628Y-72923333D01*
X127888628Y-72923333D02*
X127888628Y-73304285D01*
X127460057Y-72351904D02*
X127412438Y-72304285D01*
X127412438Y-72304285D02*
X127364819Y-72209047D01*
X127364819Y-72209047D02*
X127364819Y-71970952D01*
X127364819Y-71970952D02*
X127412438Y-71875714D01*
X127412438Y-71875714D02*
X127460057Y-71828095D01*
X127460057Y-71828095D02*
X127555295Y-71780476D01*
X127555295Y-71780476D02*
X127650533Y-71780476D01*
X127650533Y-71780476D02*
X127793390Y-71828095D01*
X127793390Y-71828095D02*
X128364819Y-72399523D01*
X128364819Y-72399523D02*
X128364819Y-71780476D01*
X127364819Y-71161428D02*
X127364819Y-71066190D01*
X127364819Y-71066190D02*
X127412438Y-70970952D01*
X127412438Y-70970952D02*
X127460057Y-70923333D01*
X127460057Y-70923333D02*
X127555295Y-70875714D01*
X127555295Y-70875714D02*
X127745771Y-70828095D01*
X127745771Y-70828095D02*
X127983866Y-70828095D01*
X127983866Y-70828095D02*
X128174342Y-70875714D01*
X128174342Y-70875714D02*
X128269580Y-70923333D01*
X128269580Y-70923333D02*
X128317200Y-70970952D01*
X128317200Y-70970952D02*
X128364819Y-71066190D01*
X128364819Y-71066190D02*
X128364819Y-71161428D01*
X128364819Y-71161428D02*
X128317200Y-71256666D01*
X128317200Y-71256666D02*
X128269580Y-71304285D01*
X128269580Y-71304285D02*
X128174342Y-71351904D01*
X128174342Y-71351904D02*
X127983866Y-71399523D01*
X127983866Y-71399523D02*
X127745771Y-71399523D01*
X127745771Y-71399523D02*
X127555295Y-71351904D01*
X127555295Y-71351904D02*
X127460057Y-71304285D01*
X127460057Y-71304285D02*
X127412438Y-71256666D01*
X127412438Y-71256666D02*
X127364819Y-71161428D01*
X124524819Y-96905238D02*
X124048628Y-97238571D01*
X124524819Y-97476666D02*
X123524819Y-97476666D01*
X123524819Y-97476666D02*
X123524819Y-97095714D01*
X123524819Y-97095714D02*
X123572438Y-97000476D01*
X123572438Y-97000476D02*
X123620057Y-96952857D01*
X123620057Y-96952857D02*
X123715295Y-96905238D01*
X123715295Y-96905238D02*
X123858152Y-96905238D01*
X123858152Y-96905238D02*
X123953390Y-96952857D01*
X123953390Y-96952857D02*
X124001009Y-97000476D01*
X124001009Y-97000476D02*
X124048628Y-97095714D01*
X124048628Y-97095714D02*
X124048628Y-97476666D01*
X123524819Y-96619523D02*
X124524819Y-96286190D01*
X124524819Y-96286190D02*
X123524819Y-95952857D01*
X124524819Y-95095714D02*
X124524819Y-95667142D01*
X124524819Y-95381428D02*
X123524819Y-95381428D01*
X123524819Y-95381428D02*
X123667676Y-95476666D01*
X123667676Y-95476666D02*
X123762914Y-95571904D01*
X123762914Y-95571904D02*
X123810533Y-95667142D01*
X132919580Y-90656666D02*
X132967200Y-90704285D01*
X132967200Y-90704285D02*
X133014819Y-90847142D01*
X133014819Y-90847142D02*
X133014819Y-90942380D01*
X133014819Y-90942380D02*
X132967200Y-91085237D01*
X132967200Y-91085237D02*
X132871961Y-91180475D01*
X132871961Y-91180475D02*
X132776723Y-91228094D01*
X132776723Y-91228094D02*
X132586247Y-91275713D01*
X132586247Y-91275713D02*
X132443390Y-91275713D01*
X132443390Y-91275713D02*
X132252914Y-91228094D01*
X132252914Y-91228094D02*
X132157676Y-91180475D01*
X132157676Y-91180475D02*
X132062438Y-91085237D01*
X132062438Y-91085237D02*
X132014819Y-90942380D01*
X132014819Y-90942380D02*
X132014819Y-90847142D01*
X132014819Y-90847142D02*
X132062438Y-90704285D01*
X132062438Y-90704285D02*
X132110057Y-90656666D01*
X133014819Y-89704285D02*
X133014819Y-90275713D01*
X133014819Y-89989999D02*
X132014819Y-89989999D01*
X132014819Y-89989999D02*
X132157676Y-90085237D01*
X132157676Y-90085237D02*
X132252914Y-90180475D01*
X132252914Y-90180475D02*
X132300533Y-90275713D01*
X122864819Y-85778094D02*
X123674342Y-85778094D01*
X123674342Y-85778094D02*
X123769580Y-85730475D01*
X123769580Y-85730475D02*
X123817200Y-85682856D01*
X123817200Y-85682856D02*
X123864819Y-85587618D01*
X123864819Y-85587618D02*
X123864819Y-85397142D01*
X123864819Y-85397142D02*
X123817200Y-85301904D01*
X123817200Y-85301904D02*
X123769580Y-85254285D01*
X123769580Y-85254285D02*
X123674342Y-85206666D01*
X123674342Y-85206666D02*
X122864819Y-85206666D01*
X123864819Y-84206666D02*
X123864819Y-84778094D01*
X123864819Y-84492380D02*
X122864819Y-84492380D01*
X122864819Y-84492380D02*
X123007676Y-84587618D01*
X123007676Y-84587618D02*
X123102914Y-84682856D01*
X123102914Y-84682856D02*
X123150533Y-84778094D01*
X123198152Y-83349523D02*
X123864819Y-83349523D01*
X122817200Y-83587618D02*
X123531485Y-83825713D01*
X123531485Y-83825713D02*
X123531485Y-83206666D01*
X183528095Y-60794819D02*
X183528095Y-61604342D01*
X183528095Y-61604342D02*
X183575714Y-61699580D01*
X183575714Y-61699580D02*
X183623333Y-61747200D01*
X183623333Y-61747200D02*
X183718571Y-61794819D01*
X183718571Y-61794819D02*
X183909047Y-61794819D01*
X183909047Y-61794819D02*
X184004285Y-61747200D01*
X184004285Y-61747200D02*
X184051904Y-61699580D01*
X184051904Y-61699580D02*
X184099523Y-61604342D01*
X184099523Y-61604342D02*
X184099523Y-60794819D01*
X185004285Y-61128152D02*
X185004285Y-61794819D01*
X184766190Y-60747200D02*
X184528095Y-61461485D01*
X184528095Y-61461485D02*
X185147142Y-61461485D01*
X119764819Y-62064404D02*
X120574342Y-62064404D01*
X120574342Y-62064404D02*
X120669580Y-62016785D01*
X120669580Y-62016785D02*
X120717200Y-61969166D01*
X120717200Y-61969166D02*
X120764819Y-61873928D01*
X120764819Y-61873928D02*
X120764819Y-61683452D01*
X120764819Y-61683452D02*
X120717200Y-61588214D01*
X120717200Y-61588214D02*
X120669580Y-61540595D01*
X120669580Y-61540595D02*
X120574342Y-61492976D01*
X120574342Y-61492976D02*
X119764819Y-61492976D01*
X120764819Y-60969166D02*
X120764819Y-60778690D01*
X120764819Y-60778690D02*
X120717200Y-60683452D01*
X120717200Y-60683452D02*
X120669580Y-60635833D01*
X120669580Y-60635833D02*
X120526723Y-60540595D01*
X120526723Y-60540595D02*
X120336247Y-60492976D01*
X120336247Y-60492976D02*
X119955295Y-60492976D01*
X119955295Y-60492976D02*
X119860057Y-60540595D01*
X119860057Y-60540595D02*
X119812438Y-60588214D01*
X119812438Y-60588214D02*
X119764819Y-60683452D01*
X119764819Y-60683452D02*
X119764819Y-60873928D01*
X119764819Y-60873928D02*
X119812438Y-60969166D01*
X119812438Y-60969166D02*
X119860057Y-61016785D01*
X119860057Y-61016785D02*
X119955295Y-61064404D01*
X119955295Y-61064404D02*
X120193390Y-61064404D01*
X120193390Y-61064404D02*
X120288628Y-61016785D01*
X120288628Y-61016785D02*
X120336247Y-60969166D01*
X120336247Y-60969166D02*
X120383866Y-60873928D01*
X120383866Y-60873928D02*
X120383866Y-60683452D01*
X120383866Y-60683452D02*
X120336247Y-60588214D01*
X120336247Y-60588214D02*
X120288628Y-60540595D01*
X120288628Y-60540595D02*
X120193390Y-60492976D01*
D11*
%TO.C,J7*%
X192650000Y-91110000D02*
X192650000Y-47870000D01*
X192650000Y-93710000D02*
X192650000Y-92380000D01*
X193980000Y-93710000D02*
X192650000Y-93710000D01*
X195250000Y-91110000D02*
X192650000Y-91110000D01*
X195250000Y-93710000D02*
X195250000Y-91110000D01*
X197850000Y-47870000D02*
X192650000Y-47870000D01*
X197850000Y-93710000D02*
X195250000Y-93710000D01*
X197850000Y-93710000D02*
X197850000Y-47870000D01*
%TO.C,J1*%
X126610000Y-96130000D02*
X127940000Y-96130000D01*
X126610000Y-97460000D02*
X126610000Y-96130000D01*
X129210000Y-96130000D02*
X147050000Y-96130000D01*
X129210000Y-98790000D02*
X129210000Y-96130000D01*
X129210000Y-98790000D02*
X147050000Y-98790000D01*
X147050000Y-98790000D02*
X147050000Y-96130000D01*
%TO.C,J3*%
X149470000Y-96130000D02*
X150800000Y-96130000D01*
X149470000Y-97460000D02*
X149470000Y-96130000D01*
X152070000Y-96130000D02*
X169910000Y-96130000D01*
X152070000Y-98790000D02*
X152070000Y-96130000D01*
X152070000Y-98790000D02*
X169910000Y-98790000D01*
X169910000Y-98790000D02*
X169910000Y-96130000D01*
%TO.C,J5*%
X172330000Y-96130000D02*
X173660000Y-96130000D01*
X172330000Y-97460000D02*
X172330000Y-96130000D01*
X174930000Y-96130000D02*
X192770000Y-96130000D01*
X174930000Y-98790000D02*
X174930000Y-96130000D01*
X174930000Y-98790000D02*
X192770000Y-98790000D01*
X192770000Y-98790000D02*
X192770000Y-96130000D01*
%TO.C,J2*%
X117466000Y-47870000D02*
X118796000Y-47870000D01*
X117466000Y-49200000D02*
X117466000Y-47870000D01*
X120066000Y-47870000D02*
X142986000Y-47870000D01*
X120066000Y-50530000D02*
X120066000Y-47870000D01*
X120066000Y-50530000D02*
X142986000Y-50530000D01*
X142986000Y-50530000D02*
X142986000Y-47870000D01*
%TO.C,J4*%
X144390000Y-47870000D02*
X145720000Y-47870000D01*
X144390000Y-49200000D02*
X144390000Y-47870000D01*
X146990000Y-47870000D02*
X164830000Y-47870000D01*
X146990000Y-50530000D02*
X146990000Y-47870000D01*
X146990000Y-50530000D02*
X164830000Y-50530000D01*
X164830000Y-50530000D02*
X164830000Y-47870000D01*
%TO.C,J6*%
X167250000Y-47870000D02*
X168580000Y-47870000D01*
X167250000Y-49200000D02*
X167250000Y-47870000D01*
X169850000Y-47870000D02*
X187690000Y-47870000D01*
X169850000Y-50530000D02*
X169850000Y-47870000D01*
X169850000Y-50530000D02*
X187690000Y-50530000D01*
X187690000Y-50530000D02*
X187690000Y-47870000D01*
%TO.C,C13*%
X160605000Y-92768748D02*
X160605000Y-93291252D01*
X162075000Y-92768748D02*
X162075000Y-93291252D01*
%TO.C,J8*%
X147730000Y-66010000D02*
X147730000Y-83850000D01*
X147730000Y-66010000D02*
X150390000Y-66010000D01*
X147730000Y-83850000D02*
X150390000Y-83850000D01*
X149060000Y-63410000D02*
X150390000Y-63410000D01*
X150390000Y-63410000D02*
X150390000Y-64740000D01*
X150390000Y-66010000D02*
X150390000Y-83850000D01*
%TO.C,R5*%
X140227064Y-72175000D02*
X139772936Y-72175000D01*
X140227064Y-73645000D02*
X139772936Y-73645000D01*
%TO.C,R19*%
X117655000Y-62327064D02*
X117655000Y-61872936D01*
X119125000Y-62327064D02*
X119125000Y-61872936D01*
%TO.C,R17*%
X113267064Y-57705000D02*
X112812936Y-57705000D01*
X113267064Y-59175000D02*
X112812936Y-59175000D01*
%TO.C,R6*%
X140217064Y-75615000D02*
X139762936Y-75615000D01*
X140217064Y-77085000D02*
X139762936Y-77085000D01*
%TO.C,R15*%
X162342936Y-83345000D02*
X162797064Y-83345000D01*
X162342936Y-84815000D02*
X162797064Y-84815000D01*
%TO.C,U5*%
X184360000Y-70390000D02*
X182860000Y-70390000D01*
X184360000Y-70390000D02*
X185860000Y-70390000D01*
X184360000Y-73610000D02*
X182860000Y-73610000D01*
X184360000Y-73610000D02*
X185860000Y-73610000D01*
X182147500Y-70515000D02*
X181907500Y-70185000D01*
X182387500Y-70185000D01*
X182147500Y-70515000D01*
G36*
X182147500Y-70515000D02*
G01*
X181907500Y-70185000D01*
X182387500Y-70185000D01*
X182147500Y-70515000D01*
G37*
%TO.C,C2*%
X133505000Y-85878748D02*
X133505000Y-86401252D01*
X134975000Y-85878748D02*
X134975000Y-86401252D01*
%TO.C,R2*%
X143545000Y-58287064D02*
X143545000Y-57832936D01*
X145015000Y-58287064D02*
X145015000Y-57832936D01*
%TO.C,RV2*%
X103710000Y-74325000D02*
X108780000Y-74325000D01*
X103710000Y-84095000D02*
X103710000Y-74325000D01*
X103710000Y-84095000D02*
X108780000Y-84095000D01*
X108780000Y-84095000D02*
X108780000Y-74325000D01*
%TO.C,R11*%
X166002936Y-59365000D02*
X166457064Y-59365000D01*
X166002936Y-60835000D02*
X166457064Y-60835000D01*
%TO.C,C10*%
X140738748Y-59725000D02*
X141261252Y-59725000D01*
X140738748Y-61195000D02*
X141261252Y-61195000D01*
%TO.C,U15*%
X112780000Y-74370000D02*
X114040000Y-74370000D01*
X112780000Y-78130000D02*
X112780000Y-74370000D01*
X119600000Y-74370000D02*
X118340000Y-74370000D01*
X119600000Y-78130000D02*
X119600000Y-74370000D01*
X112880000Y-79410000D02*
X112550000Y-79650000D01*
X112550000Y-79170000D01*
X112880000Y-79410000D01*
G36*
X112880000Y-79410000D02*
G01*
X112550000Y-79650000D01*
X112550000Y-79170000D01*
X112880000Y-79410000D01*
G37*
%TO.C,R9*%
X156065000Y-58037064D02*
X156065000Y-57582936D01*
X157535000Y-58037064D02*
X157535000Y-57582936D01*
%TO.C,C3*%
X121975000Y-79141252D02*
X121975000Y-78618748D01*
X123445000Y-79141252D02*
X123445000Y-78618748D01*
%TO.C,R10*%
X160995000Y-58107064D02*
X160995000Y-57652936D01*
X162465000Y-58107064D02*
X162465000Y-57652936D01*
%TO.C,R3*%
X140157064Y-63215000D02*
X139702936Y-63215000D01*
X140157064Y-64685000D02*
X139702936Y-64685000D01*
%TO.C,R13*%
X169852936Y-76885000D02*
X170307064Y-76885000D01*
X169852936Y-78355000D02*
X170307064Y-78355000D01*
%TO.C,R4*%
X140147064Y-67305000D02*
X139692936Y-67305000D01*
X140147064Y-68775000D02*
X139692936Y-68775000D01*
%TO.C,C4*%
X121945000Y-73851248D02*
X121945000Y-74373752D01*
X123415000Y-73851248D02*
X123415000Y-74373752D01*
%TO.C,R18*%
X113257064Y-54105000D02*
X112802936Y-54105000D01*
X113257064Y-55575000D02*
X112802936Y-55575000D01*
%TO.C,R14*%
X162322936Y-78795000D02*
X162777064Y-78795000D01*
X162322936Y-80265000D02*
X162777064Y-80265000D01*
%TO.C,R8*%
X140227064Y-84465000D02*
X139772936Y-84465000D01*
X140227064Y-85935000D02*
X139772936Y-85935000D01*
%TO.C,R7*%
X140247064Y-80035000D02*
X139792936Y-80035000D01*
X140247064Y-81505000D02*
X139792936Y-81505000D01*
%TO.C,J10*%
X103750000Y-67310000D02*
X103750000Y-49470000D01*
X103750000Y-69910000D02*
X103750000Y-68580000D01*
X105080000Y-69910000D02*
X103750000Y-69910000D01*
X106410000Y-49470000D02*
X103750000Y-49470000D01*
X106410000Y-67310000D02*
X103750000Y-67310000D01*
X106410000Y-67310000D02*
X106410000Y-49470000D01*
%TO.C,R1*%
X148335000Y-58247064D02*
X148335000Y-57792936D01*
X149805000Y-58247064D02*
X149805000Y-57792936D01*
%TO.C,J9*%
X155350000Y-66010000D02*
X155350000Y-83850000D01*
X155350000Y-66010000D02*
X158010000Y-66010000D01*
X155350000Y-83850000D02*
X158010000Y-83850000D01*
X156680000Y-63410000D02*
X158010000Y-63410000D01*
X158010000Y-63410000D02*
X158010000Y-64740000D01*
X158010000Y-66010000D02*
X158010000Y-83850000D01*
%TO.C,R16*%
X160272936Y-87845000D02*
X160727064Y-87845000D01*
X160272936Y-89315000D02*
X160727064Y-89315000D01*
%TO.C,U6*%
X183450000Y-78690000D02*
X181950000Y-78690000D01*
X183450000Y-78690000D02*
X184950000Y-78690000D01*
X183450000Y-81910000D02*
X181950000Y-81910000D01*
X183450000Y-81910000D02*
X184950000Y-81910000D01*
X181237500Y-78815000D02*
X180997500Y-78485000D01*
X181477500Y-78485000D01*
X181237500Y-78815000D01*
G36*
X181237500Y-78815000D02*
G01*
X180997500Y-78485000D01*
X181477500Y-78485000D01*
X181237500Y-78815000D01*
G37*
%TO.C,U7*%
X181800000Y-86850000D02*
X180300000Y-86850000D01*
X181800000Y-86850000D02*
X183300000Y-86850000D01*
X181800000Y-90070000D02*
X180300000Y-90070000D01*
X181800000Y-90070000D02*
X183300000Y-90070000D01*
X179587500Y-86975000D02*
X179347500Y-86645000D01*
X179827500Y-86645000D01*
X179587500Y-86975000D01*
G36*
X179587500Y-86975000D02*
G01*
X179347500Y-86645000D01*
X179827500Y-86645000D01*
X179587500Y-86975000D01*
G37*
%TO.C,C12*%
X176788748Y-69745000D02*
X177311252Y-69745000D01*
X176788748Y-71215000D02*
X177311252Y-71215000D01*
%TO.C,R12*%
X171802936Y-66485000D02*
X172257064Y-66485000D01*
X171802936Y-67955000D02*
X172257064Y-67955000D01*
%TO.C,R20*%
X125525000Y-71862936D02*
X125525000Y-72317064D01*
X126995000Y-71862936D02*
X126995000Y-72317064D01*
%TO.C,RV1*%
X118030000Y-86625000D02*
X118030000Y-96395000D01*
X123100000Y-86625000D02*
X118030000Y-86625000D01*
X123100000Y-86625000D02*
X123100000Y-96395000D01*
X123100000Y-96395000D02*
X118030000Y-96395000D01*
%TO.C,C1*%
X133505000Y-90751252D02*
X133505000Y-90228748D01*
X134975000Y-90751252D02*
X134975000Y-90228748D01*
%TO.C,U14*%
X124570000Y-86380000D02*
X125830000Y-86380000D01*
X124570000Y-90140000D02*
X124570000Y-86380000D01*
X131390000Y-86380000D02*
X130130000Y-86380000D01*
X131390000Y-90140000D02*
X131390000Y-86380000D01*
X124670000Y-91420000D02*
X124340000Y-91660000D01*
X124340000Y-91180000D01*
X124670000Y-91420000D01*
G36*
X124670000Y-91420000D02*
G01*
X124340000Y-91660000D01*
X124340000Y-91180000D01*
X124670000Y-91420000D01*
G37*
%TO.C,U4*%
X184290000Y-62180000D02*
X182790000Y-62180000D01*
X184290000Y-62180000D02*
X185790000Y-62180000D01*
X184290000Y-65400000D02*
X182790000Y-65400000D01*
X184290000Y-65400000D02*
X185790000Y-65400000D01*
X182077500Y-62305000D02*
X181837500Y-61975000D01*
X182317500Y-61975000D01*
X182077500Y-62305000D01*
G36*
X182077500Y-62305000D02*
G01*
X181837500Y-61975000D01*
X182317500Y-61975000D01*
X182077500Y-62305000D01*
G37*
%TO.C,U9*%
X121025000Y-61302500D02*
X121025000Y-59102500D01*
X121025000Y-61302500D02*
X121025000Y-63502500D01*
X126495000Y-61302500D02*
X126495000Y-59102500D01*
X126495000Y-61302500D02*
X126495000Y-63502500D01*
X121725000Y-65492500D02*
X121245000Y-65492500D01*
X121485000Y-65162500D01*
X121725000Y-65492500D01*
G36*
X121725000Y-65492500D02*
G01*
X121245000Y-65492500D01*
X121485000Y-65162500D01*
X121725000Y-65492500D01*
G37*
%TD*%
M02*
