%TF.GenerationSoftware,KiCad,Pcbnew,8.0.8*%
%TF.CreationDate,2025-07-24T20:26:14+03:00*%
%TF.ProjectId,memristor_shield,6d656d72-6973-4746-9f72-5f736869656c,rev?*%
%TF.SameCoordinates,Original*%
%TF.FileFunction,Paste,Bot*%
%TF.FilePolarity,Positive*%
%FSLAX46Y46*%
G04 Gerber Fmt 4.6, Leading zero omitted, Abs format (unit mm)*
G04 Created by KiCad (PCBNEW 8.0.8) date 2025-07-24 20:26:14*
%MOMM*%
%LPD*%
G01*
G04 APERTURE LIST*
G04 Aperture macros list*
%AMRoundRect*
0 Rectangle with rounded corners*
0 $1 Rounding radius*
0 $2 $3 $4 $5 $6 $7 $8 $9 X,Y pos of 4 corners*
0 Add a 4 corners polygon primitive as box body*
4,1,4,$2,$3,$4,$5,$6,$7,$8,$9,$2,$3,0*
0 Add four circle primitives for the rounded corners*
1,1,$1+$1,$2,$3*
1,1,$1+$1,$4,$5*
1,1,$1+$1,$6,$7*
1,1,$1+$1,$8,$9*
0 Add four rect primitives between the rounded corners*
20,1,$1+$1,$2,$3,$4,$5,0*
20,1,$1+$1,$4,$5,$6,$7,0*
20,1,$1+$1,$6,$7,$8,$9,0*
20,1,$1+$1,$8,$9,$2,$3,0*%
G04 Aperture macros list end*
%ADD10RoundRect,0.250000X0.475000X-0.337500X0.475000X0.337500X-0.475000X0.337500X-0.475000X-0.337500X0*%
%ADD11RoundRect,0.250000X0.450000X-0.350000X0.450000X0.350000X-0.450000X0.350000X-0.450000X-0.350000X0*%
%ADD12RoundRect,0.250000X0.350000X0.450000X-0.350000X0.450000X-0.350000X-0.450000X0.350000X-0.450000X0*%
%ADD13RoundRect,0.150000X0.825000X0.150000X-0.825000X0.150000X-0.825000X-0.150000X0.825000X-0.150000X0*%
%ADD14RoundRect,0.250000X0.337500X0.475000X-0.337500X0.475000X-0.337500X-0.475000X0.337500X-0.475000X0*%
%ADD15RoundRect,0.150000X-0.150000X0.825000X-0.150000X-0.825000X0.150000X-0.825000X0.150000X0.825000X0*%
%ADD16RoundRect,0.125000X0.687500X0.125000X-0.687500X0.125000X-0.687500X-0.125000X0.687500X-0.125000X0*%
%ADD17RoundRect,0.125000X-0.687500X-0.125000X0.687500X-0.125000X0.687500X0.125000X-0.687500X0.125000X0*%
%ADD18RoundRect,0.250000X-0.350000X-0.450000X0.350000X-0.450000X0.350000X0.450000X-0.350000X0.450000X0*%
%ADD19RoundRect,0.250000X-0.475000X0.337500X-0.475000X-0.337500X0.475000X-0.337500X0.475000X0.337500X0*%
G04 APERTURE END LIST*
D10*
%TO.C,C11*%
X129360000Y-78297500D03*
X129360000Y-76222500D03*
%TD*%
D11*
%TO.C,R25*%
X188800000Y-71690000D03*
X188800000Y-69690000D03*
%TD*%
D12*
%TO.C,R21*%
X161790000Y-59340000D03*
X159790000Y-59340000D03*
%TD*%
D13*
%TO.C,U12*%
X143530000Y-75430000D03*
X143530000Y-76700000D03*
X143530000Y-77970000D03*
X143530000Y-79240000D03*
X143530000Y-80510000D03*
X143530000Y-81780000D03*
X143530000Y-83050000D03*
X143530000Y-84320000D03*
X138580000Y-84320000D03*
X138580000Y-83050000D03*
X138580000Y-81780000D03*
X138580000Y-80510000D03*
X138580000Y-79240000D03*
X138580000Y-77970000D03*
X138580000Y-76700000D03*
X138580000Y-75430000D03*
%TD*%
D12*
%TO.C,R26*%
X184490000Y-76690000D03*
X182490000Y-76690000D03*
%TD*%
D11*
%TO.C,R27*%
X187410000Y-88420000D03*
X187410000Y-86420000D03*
%TD*%
D14*
%TO.C,C7*%
X185285000Y-68260000D03*
X183210000Y-68260000D03*
%TD*%
%TO.C,C8*%
X183617500Y-84620000D03*
X181542500Y-84620000D03*
%TD*%
D12*
%TO.C,R29*%
X138180000Y-92960000D03*
X136180000Y-92960000D03*
%TD*%
D13*
%TO.C,U13*%
X143520000Y-58190000D03*
X143520000Y-59460000D03*
X143520000Y-60730000D03*
X143520000Y-62000000D03*
X143520000Y-63270000D03*
X143520000Y-64540000D03*
X143520000Y-65810000D03*
X143520000Y-67080000D03*
X138570000Y-67080000D03*
X138570000Y-65810000D03*
X138570000Y-64540000D03*
X138570000Y-63270000D03*
X138570000Y-62000000D03*
X138570000Y-60730000D03*
X138570000Y-59460000D03*
X138570000Y-58190000D03*
%TD*%
D15*
%TO.C,U11*%
X170780000Y-68020000D03*
X172050000Y-68020000D03*
X173320000Y-68020000D03*
X174590000Y-68020000D03*
X175860000Y-68020000D03*
X177130000Y-68020000D03*
X178400000Y-68020000D03*
X179670000Y-68020000D03*
X179670000Y-72970000D03*
X178400000Y-72970000D03*
X177130000Y-72970000D03*
X175860000Y-72970000D03*
X174590000Y-72970000D03*
X173320000Y-72970000D03*
X172050000Y-72970000D03*
X170780000Y-72970000D03*
%TD*%
%TO.C,U10*%
X162710000Y-81400000D03*
X163980000Y-81400000D03*
X165250000Y-81400000D03*
X166520000Y-81400000D03*
X167790000Y-81400000D03*
X169060000Y-81400000D03*
X170330000Y-81400000D03*
X171600000Y-81400000D03*
X171600000Y-86350000D03*
X170330000Y-86350000D03*
X169060000Y-86350000D03*
X167790000Y-86350000D03*
X166520000Y-86350000D03*
X165250000Y-86350000D03*
X163980000Y-86350000D03*
X162710000Y-86350000D03*
%TD*%
D16*
%TO.C,U8*%
X153392500Y-90045000D03*
X153392500Y-90695000D03*
X153392500Y-91345000D03*
X153392500Y-91995000D03*
X149167500Y-91995000D03*
X149167500Y-91345000D03*
X149167500Y-90695000D03*
X149167500Y-90045000D03*
%TD*%
D12*
%TO.C,R22*%
X172320000Y-59180000D03*
X170320000Y-59180000D03*
%TD*%
D14*
%TO.C,C9*%
X146377500Y-89720000D03*
X144302500Y-89720000D03*
%TD*%
%TO.C,C6*%
X186867500Y-55070000D03*
X184792500Y-55070000D03*
%TD*%
D12*
%TO.C,R23*%
X181180000Y-62380000D03*
X179180000Y-62380000D03*
%TD*%
D17*
%TO.C,U3*%
X178157500Y-59215000D03*
X178157500Y-58565000D03*
X178157500Y-57915000D03*
X178157500Y-57265000D03*
X182382500Y-57265000D03*
X182382500Y-57915000D03*
X182382500Y-58565000D03*
X182382500Y-59215000D03*
%TD*%
D18*
%TO.C,R28*%
X150760000Y-85930000D03*
X152760000Y-85930000D03*
%TD*%
D17*
%TO.C,U2*%
X169267500Y-56485000D03*
X169267500Y-55835000D03*
X169267500Y-55185000D03*
X169267500Y-54535000D03*
X173492500Y-54535000D03*
X173492500Y-55185000D03*
X173492500Y-55835000D03*
X173492500Y-56485000D03*
%TD*%
D10*
%TO.C,C14*%
X124950000Y-67737500D03*
X124950000Y-65662500D03*
%TD*%
D12*
%TO.C,R30*%
X143100000Y-92970000D03*
X141100000Y-92970000D03*
%TD*%
D11*
%TO.C,R24*%
X189000000Y-62150000D03*
X189000000Y-60150000D03*
%TD*%
D19*
%TO.C,C5*%
X152280000Y-53622500D03*
X152280000Y-55697500D03*
%TD*%
D17*
%TO.C,U1*%
X158650000Y-56650000D03*
X158650000Y-56000000D03*
X158650000Y-55350000D03*
X158650000Y-54700000D03*
X162875000Y-54700000D03*
X162875000Y-55350000D03*
X162875000Y-56000000D03*
X162875000Y-56650000D03*
%TD*%
M02*
