%TF.GenerationSoftware,KiCad,Pcbnew,8.0.8*%
%TF.CreationDate,2025-07-24T20:26:14+03:00*%
%TF.ProjectId,memristor_shield,6d656d72-6973-4746-9f72-5f736869656c,rev?*%
%TF.SameCoordinates,Original*%
%TF.FileFunction,Soldermask,Top*%
%TF.FilePolarity,Negative*%
%FSLAX46Y46*%
G04 Gerber Fmt 4.6, Leading zero omitted, Abs format (unit mm)*
G04 Created by KiCad (PCBNEW 8.0.8) date 2025-07-24 20:26:14*
%MOMM*%
%LPD*%
G01*
G04 APERTURE LIST*
G04 Aperture macros list*
%AMRoundRect*
0 Rectangle with rounded corners*
0 $1 Rounding radius*
0 $2 $3 $4 $5 $6 $7 $8 $9 X,Y pos of 4 corners*
0 Add a 4 corners polygon primitive as box body*
4,1,4,$2,$3,$4,$5,$6,$7,$8,$9,$2,$3,0*
0 Add four circle primitives for the rounded corners*
1,1,$1+$1,$2,$3*
1,1,$1+$1,$4,$5*
1,1,$1+$1,$6,$7*
1,1,$1+$1,$8,$9*
0 Add four rect primitives between the rounded corners*
20,1,$1+$1,$2,$3,$4,$5,0*
20,1,$1+$1,$4,$5,$6,$7,0*
20,1,$1+$1,$6,$7,$8,$9,0*
20,1,$1+$1,$8,$9,$2,$3,0*%
G04 Aperture macros list end*
%ADD10R,1.700000X1.700000*%
%ADD11O,1.700000X1.700000*%
%ADD12RoundRect,0.250000X-0.475000X0.337500X-0.475000X-0.337500X0.475000X-0.337500X0.475000X0.337500X0*%
%ADD13RoundRect,0.250000X0.350000X0.450000X-0.350000X0.450000X-0.350000X-0.450000X0.350000X-0.450000X0*%
%ADD14C,3.200000*%
%ADD15RoundRect,0.250000X0.450000X-0.350000X0.450000X0.350000X-0.450000X0.350000X-0.450000X-0.350000X0*%
%ADD16RoundRect,0.250000X-0.350000X-0.450000X0.350000X-0.450000X0.350000X0.450000X-0.350000X0.450000X0*%
%ADD17RoundRect,0.125000X-0.687500X-0.125000X0.687500X-0.125000X0.687500X0.125000X-0.687500X0.125000X0*%
%ADD18C,1.440000*%
%ADD19RoundRect,0.250000X-0.337500X-0.475000X0.337500X-0.475000X0.337500X0.475000X-0.337500X0.475000X0*%
%ADD20RoundRect,0.375000X0.375000X-0.625000X0.375000X0.625000X-0.375000X0.625000X-0.375000X-0.625000X0*%
%ADD21RoundRect,0.500000X1.400000X-0.500000X1.400000X0.500000X-1.400000X0.500000X-1.400000X-0.500000X0*%
%ADD22RoundRect,0.250000X0.475000X-0.337500X0.475000X0.337500X-0.475000X0.337500X-0.475000X-0.337500X0*%
%ADD23RoundRect,0.250000X-0.450000X0.350000X-0.450000X-0.350000X0.450000X-0.350000X0.450000X0.350000X0*%
%ADD24RoundRect,0.100000X0.100000X-0.637500X0.100000X0.637500X-0.100000X0.637500X-0.100000X-0.637500X0*%
G04 APERTURE END LIST*
D10*
%TO.C,J7*%
X193980000Y-92380000D03*
D11*
X196520000Y-92380000D03*
X193980000Y-89840000D03*
X196520000Y-89840000D03*
X193980000Y-87300000D03*
X196520000Y-87300000D03*
X193980000Y-84760000D03*
X196520000Y-84760000D03*
X193980000Y-82220000D03*
X196520000Y-82220000D03*
X193980000Y-79680000D03*
X196520000Y-79680000D03*
X193980000Y-77140000D03*
X196520000Y-77140000D03*
X193980000Y-74600000D03*
X196520000Y-74600000D03*
X193980000Y-72060000D03*
X196520000Y-72060000D03*
X193980000Y-69520000D03*
X196520000Y-69520000D03*
X193980000Y-66980000D03*
X196520000Y-66980000D03*
X193980000Y-64440000D03*
X196520000Y-64440000D03*
X193980000Y-61900000D03*
X196520000Y-61900000D03*
X193980000Y-59360000D03*
X196520000Y-59360000D03*
X193980000Y-56820000D03*
X196520000Y-56820000D03*
X193980000Y-54280000D03*
X196520000Y-54280000D03*
X193980000Y-51740000D03*
X196520000Y-51740000D03*
X193980000Y-49200000D03*
X196520000Y-49200000D03*
%TD*%
D10*
%TO.C,J1*%
X127940000Y-97460000D03*
D11*
X130480000Y-97460000D03*
X133020000Y-97460000D03*
X135560000Y-97460000D03*
X138100000Y-97460000D03*
X140640000Y-97460000D03*
X143180000Y-97460000D03*
X145720000Y-97460000D03*
%TD*%
D10*
%TO.C,J3*%
X150800000Y-97460000D03*
D11*
X153340000Y-97460000D03*
X155880000Y-97460000D03*
X158420000Y-97460000D03*
X160960000Y-97460000D03*
X163500000Y-97460000D03*
X166040000Y-97460000D03*
X168580000Y-97460000D03*
%TD*%
D10*
%TO.C,J5*%
X173660000Y-97460000D03*
D11*
X176200000Y-97460000D03*
X178740000Y-97460000D03*
X181280000Y-97460000D03*
X183820000Y-97460000D03*
X186360000Y-97460000D03*
X188900000Y-97460000D03*
X191440000Y-97460000D03*
%TD*%
D10*
%TO.C,J2*%
X118796000Y-49200000D03*
D11*
X121336000Y-49200000D03*
X123876000Y-49200000D03*
X126416000Y-49200000D03*
X128956000Y-49200000D03*
X131496000Y-49200000D03*
X134036000Y-49200000D03*
X136576000Y-49200000D03*
X139116000Y-49200000D03*
X141656000Y-49200000D03*
%TD*%
D10*
%TO.C,J4*%
X145720000Y-49200000D03*
D11*
X148260000Y-49200000D03*
X150800000Y-49200000D03*
X153340000Y-49200000D03*
X155880000Y-49200000D03*
X158420000Y-49200000D03*
X160960000Y-49200000D03*
X163500000Y-49200000D03*
%TD*%
D10*
%TO.C,J6*%
X168580000Y-49200000D03*
D11*
X171120000Y-49200000D03*
X173660000Y-49200000D03*
X176200000Y-49200000D03*
X178740000Y-49200000D03*
X181280000Y-49200000D03*
X183820000Y-49200000D03*
X186360000Y-49200000D03*
%TD*%
D12*
%TO.C,C13*%
X161340000Y-91992500D03*
X161340000Y-94067500D03*
%TD*%
D10*
%TO.C,J8*%
X149060000Y-64740000D03*
D11*
X149060000Y-67280000D03*
X149060000Y-69820000D03*
X149060000Y-72360000D03*
X149060000Y-74900000D03*
X149060000Y-77440000D03*
X149060000Y-79980000D03*
X149060000Y-82520000D03*
%TD*%
D13*
%TO.C,R5*%
X141000000Y-72910000D03*
X139000000Y-72910000D03*
%TD*%
D14*
%TO.C,MH6*%
X196520000Y-97460000D03*
%TD*%
D15*
%TO.C,R19*%
X118390000Y-63100000D03*
X118390000Y-61100000D03*
%TD*%
D13*
%TO.C,R17*%
X114040000Y-58440000D03*
X112040000Y-58440000D03*
%TD*%
%TO.C,R6*%
X140990000Y-76350000D03*
X138990000Y-76350000D03*
%TD*%
D16*
%TO.C,R15*%
X161570000Y-84080000D03*
X163570000Y-84080000D03*
%TD*%
D14*
%TO.C,MH1*%
X115240000Y-49200000D03*
%TD*%
D17*
%TO.C,U5*%
X182247500Y-71025000D03*
X182247500Y-71675000D03*
X182247500Y-72325000D03*
X182247500Y-72975000D03*
X186472500Y-72975000D03*
X186472500Y-72325000D03*
X186472500Y-71675000D03*
X186472500Y-71025000D03*
%TD*%
D12*
%TO.C,C2*%
X134240000Y-85102500D03*
X134240000Y-87177500D03*
%TD*%
D15*
%TO.C,R2*%
X144280000Y-59060000D03*
X144280000Y-57060000D03*
%TD*%
D18*
%TO.C,RV2*%
X106240000Y-76670000D03*
X106240000Y-79210000D03*
X106240000Y-81750000D03*
%TD*%
D16*
%TO.C,R11*%
X165230000Y-60100000D03*
X167230000Y-60100000D03*
%TD*%
D19*
%TO.C,C10*%
X139962500Y-60460000D03*
X142037500Y-60460000D03*
%TD*%
D20*
%TO.C,U15*%
X113890000Y-79430000D03*
X116190000Y-79430000D03*
X118490000Y-79430000D03*
D21*
X116190000Y-73130000D03*
%TD*%
D15*
%TO.C,R9*%
X156800000Y-58810000D03*
X156800000Y-56810000D03*
%TD*%
D22*
%TO.C,C3*%
X122710000Y-79917500D03*
X122710000Y-77842500D03*
%TD*%
D15*
%TO.C,R10*%
X161730000Y-58880000D03*
X161730000Y-56880000D03*
%TD*%
D13*
%TO.C,R3*%
X140930000Y-63950000D03*
X138930000Y-63950000D03*
%TD*%
D16*
%TO.C,R13*%
X169080000Y-77620000D03*
X171080000Y-77620000D03*
%TD*%
D13*
%TO.C,R4*%
X140920000Y-68040000D03*
X138920000Y-68040000D03*
%TD*%
D12*
%TO.C,C4*%
X122680000Y-73075000D03*
X122680000Y-75150000D03*
%TD*%
D13*
%TO.C,R18*%
X114030000Y-54840000D03*
X112030000Y-54840000D03*
%TD*%
D16*
%TO.C,R14*%
X161550000Y-79530000D03*
X163550000Y-79530000D03*
%TD*%
D13*
%TO.C,R8*%
X141000000Y-85200000D03*
X139000000Y-85200000D03*
%TD*%
%TO.C,R7*%
X141020000Y-80770000D03*
X139020000Y-80770000D03*
%TD*%
D10*
%TO.C,J10*%
X105080000Y-68580000D03*
D11*
X105080000Y-66040000D03*
X105080000Y-63500000D03*
X105080000Y-60960000D03*
X105080000Y-58420000D03*
X105080000Y-55880000D03*
X105080000Y-53340000D03*
X105080000Y-50800000D03*
%TD*%
D15*
%TO.C,R1*%
X149070000Y-59020000D03*
X149070000Y-57020000D03*
%TD*%
D10*
%TO.C,J9*%
X156680000Y-64740000D03*
D11*
X156680000Y-67280000D03*
X156680000Y-69820000D03*
X156680000Y-72360000D03*
X156680000Y-74900000D03*
X156680000Y-77440000D03*
X156680000Y-79980000D03*
X156680000Y-82520000D03*
%TD*%
D16*
%TO.C,R16*%
X159500000Y-88580000D03*
X161500000Y-88580000D03*
%TD*%
D17*
%TO.C,U6*%
X181337500Y-79325000D03*
X181337500Y-79975000D03*
X181337500Y-80625000D03*
X181337500Y-81275000D03*
X185562500Y-81275000D03*
X185562500Y-80625000D03*
X185562500Y-79975000D03*
X185562500Y-79325000D03*
%TD*%
%TO.C,U7*%
X179687500Y-87485000D03*
X179687500Y-88135000D03*
X179687500Y-88785000D03*
X179687500Y-89435000D03*
X183912500Y-89435000D03*
X183912500Y-88785000D03*
X183912500Y-88135000D03*
X183912500Y-87485000D03*
%TD*%
D19*
%TO.C,C12*%
X176012500Y-70480000D03*
X178087500Y-70480000D03*
%TD*%
D16*
%TO.C,R12*%
X171030000Y-67220000D03*
X173030000Y-67220000D03*
%TD*%
D23*
%TO.C,R20*%
X126260000Y-71090000D03*
X126260000Y-73090000D03*
%TD*%
D18*
%TO.C,RV1*%
X120570000Y-94050000D03*
X120570000Y-91510000D03*
X120570000Y-88970000D03*
%TD*%
D22*
%TO.C,C1*%
X134240000Y-91527500D03*
X134240000Y-89452500D03*
%TD*%
D20*
%TO.C,U14*%
X125680000Y-91440000D03*
X127980000Y-91440000D03*
X130280000Y-91440000D03*
D21*
X127980000Y-85140000D03*
%TD*%
D14*
%TO.C,MH2*%
X113970000Y-97460000D03*
%TD*%
%TO.C,MH3*%
X166040000Y-64440000D03*
%TD*%
%TO.C,MH4*%
X166040000Y-92380000D03*
%TD*%
D17*
%TO.C,U4*%
X182177500Y-62815000D03*
X182177500Y-63465000D03*
X182177500Y-64115000D03*
X182177500Y-64765000D03*
X186402500Y-64765000D03*
X186402500Y-64115000D03*
X186402500Y-63465000D03*
X186402500Y-62815000D03*
%TD*%
D24*
%TO.C,U9*%
X121485000Y-64165000D03*
X122135000Y-64165000D03*
X122785000Y-64165000D03*
X123435000Y-64165000D03*
X124085000Y-64165000D03*
X124735000Y-64165000D03*
X125385000Y-64165000D03*
X126035000Y-64165000D03*
X126035000Y-58440000D03*
X125385000Y-58440000D03*
X124735000Y-58440000D03*
X124085000Y-58440000D03*
X123435000Y-58440000D03*
X122785000Y-58440000D03*
X122135000Y-58440000D03*
X121485000Y-58440000D03*
%TD*%
D14*
%TO.C,MH5*%
X190170000Y-49200000D03*
%TD*%
M02*
