%TF.GenerationSoftware,KiCad,Pcbnew,8.0.8*%
%TF.CreationDate,2025-07-24T20:26:14+03:00*%
%TF.ProjectId,memristor_shield,6d656d72-6973-4746-9f72-5f736869656c,rev?*%
%TF.SameCoordinates,Original*%
%TF.FileFunction,Other,User*%
%FSLAX46Y46*%
G04 Gerber Fmt 4.6, Leading zero omitted, Abs format (unit mm)*
G04 Created by KiCad (PCBNEW 8.0.8) date 2025-07-24 20:26:14*
%MOMM*%
%LPD*%
G01*
G04 APERTURE LIST*
%ADD10C,0.050000*%
G04 APERTURE END LIST*
D10*
%TO.C,J7*%
X192220000Y-47430000D02*
X198320000Y-47430000D01*
X192220000Y-94180000D02*
X192220000Y-47430000D01*
X198320000Y-47430000D02*
X198320000Y-94180000D01*
X198320000Y-94180000D02*
X192220000Y-94180000D01*
%TO.C,J1*%
X126140000Y-95710000D02*
X147490000Y-95710000D01*
X126140000Y-99260000D02*
X126140000Y-95710000D01*
X147490000Y-95710000D02*
X147490000Y-99260000D01*
X147490000Y-99260000D02*
X126140000Y-99260000D01*
%TO.C,J3*%
X149000000Y-95710000D02*
X170350000Y-95710000D01*
X149000000Y-99260000D02*
X149000000Y-95710000D01*
X170350000Y-95710000D02*
X170350000Y-99260000D01*
X170350000Y-99260000D02*
X149000000Y-99260000D01*
%TO.C,J5*%
X171860000Y-95710000D02*
X193210000Y-95710000D01*
X171860000Y-99260000D02*
X171860000Y-95710000D01*
X193210000Y-95710000D02*
X193210000Y-99260000D01*
X193210000Y-99260000D02*
X171860000Y-99260000D01*
%TO.C,J2*%
X116996000Y-47450000D02*
X143396000Y-47450000D01*
X116996000Y-51000000D02*
X116996000Y-47450000D01*
X143396000Y-47450000D02*
X143396000Y-51000000D01*
X143396000Y-51000000D02*
X116996000Y-51000000D01*
%TO.C,J4*%
X143920000Y-47450000D02*
X165270000Y-47450000D01*
X143920000Y-51000000D02*
X143920000Y-47450000D01*
X165270000Y-47450000D02*
X165270000Y-51000000D01*
X165270000Y-51000000D02*
X143920000Y-51000000D01*
%TO.C,J6*%
X166780000Y-47450000D02*
X188130000Y-47450000D01*
X166780000Y-51000000D02*
X166780000Y-47450000D01*
X188130000Y-47450000D02*
X188130000Y-51000000D01*
X188130000Y-51000000D02*
X166780000Y-51000000D01*
%TO.C,C13*%
X160360000Y-91150000D02*
X162320000Y-91150000D01*
X160360000Y-94910000D02*
X160360000Y-91150000D01*
X162320000Y-91150000D02*
X162320000Y-94910000D01*
X162320000Y-94910000D02*
X160360000Y-94910000D01*
%TO.C,J8*%
X147260000Y-62940000D02*
X150810000Y-62940000D01*
X147260000Y-84290000D02*
X147260000Y-62940000D01*
X150810000Y-62940000D02*
X150810000Y-84290000D01*
X150810000Y-84290000D02*
X147260000Y-84290000D01*
%TO.C,R5*%
X138150000Y-71960000D02*
X141850000Y-71960000D01*
X138150000Y-73860000D02*
X138150000Y-71960000D01*
X141850000Y-71960000D02*
X141850000Y-73860000D01*
X141850000Y-73860000D02*
X138150000Y-73860000D01*
%TO.C,MH6*%
X198220000Y-97460000D02*
G75*
G02*
X194820000Y-97460000I-1700000J0D01*
G01*
X194820000Y-97460000D02*
G75*
G02*
X198220000Y-97460000I1700000J0D01*
G01*
%TO.C,R19*%
X117440000Y-60250000D02*
X119340000Y-60250000D01*
X117440000Y-63950000D02*
X117440000Y-60250000D01*
X119340000Y-60250000D02*
X119340000Y-63950000D01*
X119340000Y-63950000D02*
X117440000Y-63950000D01*
%TO.C,R17*%
X111190000Y-57490000D02*
X114890000Y-57490000D01*
X111190000Y-59390000D02*
X111190000Y-57490000D01*
X114890000Y-57490000D02*
X114890000Y-59390000D01*
X114890000Y-59390000D02*
X111190000Y-59390000D01*
%TO.C,R6*%
X138140000Y-75400000D02*
X141840000Y-75400000D01*
X138140000Y-77300000D02*
X138140000Y-75400000D01*
X141840000Y-75400000D02*
X141840000Y-77300000D01*
X141840000Y-77300000D02*
X138140000Y-77300000D01*
%TO.C,R15*%
X160720000Y-83130000D02*
X164420000Y-83130000D01*
X160720000Y-85030000D02*
X160720000Y-83130000D01*
X164420000Y-83130000D02*
X164420000Y-85030000D01*
X164420000Y-85030000D02*
X160720000Y-85030000D01*
%TO.C,MH1*%
X116940000Y-49200000D02*
G75*
G02*
X113540000Y-49200000I-1700000J0D01*
G01*
X113540000Y-49200000D02*
G75*
G02*
X116940000Y-49200000I1700000J0D01*
G01*
%TO.C,U5*%
X181180000Y-70250000D02*
X181180000Y-73750000D01*
X181180000Y-73750000D02*
X187540000Y-73750000D01*
X187540000Y-70250000D02*
X181180000Y-70250000D01*
X187540000Y-73750000D02*
X187540000Y-70250000D01*
%TO.C,C2*%
X133260000Y-84260000D02*
X135220000Y-84260000D01*
X133260000Y-88020000D02*
X133260000Y-84260000D01*
X135220000Y-84260000D02*
X135220000Y-88020000D01*
X135220000Y-88020000D02*
X133260000Y-88020000D01*
%TO.C,R2*%
X143330000Y-56210000D02*
X145230000Y-56210000D01*
X143330000Y-59910000D02*
X143330000Y-56210000D01*
X145230000Y-56210000D02*
X145230000Y-59910000D01*
X145230000Y-59910000D02*
X143330000Y-59910000D01*
%TO.C,RV2*%
X103540000Y-74170000D02*
X103540000Y-84270000D01*
X103540000Y-84270000D02*
X108940000Y-84270000D01*
X108940000Y-74170000D02*
X103540000Y-74170000D01*
X108940000Y-84270000D02*
X108940000Y-74170000D01*
%TO.C,R11*%
X164380000Y-59150000D02*
X168080000Y-59150000D01*
X164380000Y-61050000D02*
X164380000Y-59150000D01*
X168080000Y-59150000D02*
X168080000Y-61050000D01*
X168080000Y-61050000D02*
X164380000Y-61050000D01*
%TO.C,C10*%
X139120000Y-59480000D02*
X142880000Y-59480000D01*
X139120000Y-61440000D02*
X139120000Y-59480000D01*
X142880000Y-59480000D02*
X142880000Y-61440000D01*
X142880000Y-61440000D02*
X139120000Y-61440000D01*
%TO.C,U15*%
X112590000Y-71880000D02*
X112590000Y-80680000D01*
X112590000Y-80680000D02*
X119790000Y-80680000D01*
X119790000Y-71880000D02*
X112590000Y-71880000D01*
X119790000Y-80680000D02*
X119790000Y-71880000D01*
%TO.C,R9*%
X155850000Y-55960000D02*
X157750000Y-55960000D01*
X155850000Y-59660000D02*
X155850000Y-55960000D01*
X157750000Y-55960000D02*
X157750000Y-59660000D01*
X157750000Y-59660000D02*
X155850000Y-59660000D01*
%TO.C,C3*%
X121730000Y-77000000D02*
X123690000Y-77000000D01*
X121730000Y-80760000D02*
X121730000Y-77000000D01*
X123690000Y-77000000D02*
X123690000Y-80760000D01*
X123690000Y-80760000D02*
X121730000Y-80760000D01*
%TO.C,R10*%
X160780000Y-56030000D02*
X162680000Y-56030000D01*
X160780000Y-59730000D02*
X160780000Y-56030000D01*
X162680000Y-56030000D02*
X162680000Y-59730000D01*
X162680000Y-59730000D02*
X160780000Y-59730000D01*
%TO.C,R3*%
X138080000Y-63000000D02*
X141780000Y-63000000D01*
X138080000Y-64900000D02*
X138080000Y-63000000D01*
X141780000Y-63000000D02*
X141780000Y-64900000D01*
X141780000Y-64900000D02*
X138080000Y-64900000D01*
%TO.C,R13*%
X168230000Y-76670000D02*
X171930000Y-76670000D01*
X168230000Y-78570000D02*
X168230000Y-76670000D01*
X171930000Y-76670000D02*
X171930000Y-78570000D01*
X171930000Y-78570000D02*
X168230000Y-78570000D01*
%TO.C,R4*%
X138070000Y-67090000D02*
X141770000Y-67090000D01*
X138070000Y-68990000D02*
X138070000Y-67090000D01*
X141770000Y-67090000D02*
X141770000Y-68990000D01*
X141770000Y-68990000D02*
X138070000Y-68990000D01*
%TO.C,C4*%
X121700000Y-72232500D02*
X123660000Y-72232500D01*
X121700000Y-75992500D02*
X121700000Y-72232500D01*
X123660000Y-72232500D02*
X123660000Y-75992500D01*
X123660000Y-75992500D02*
X121700000Y-75992500D01*
%TO.C,R18*%
X111180000Y-53890000D02*
X114880000Y-53890000D01*
X111180000Y-55790000D02*
X111180000Y-53890000D01*
X114880000Y-53890000D02*
X114880000Y-55790000D01*
X114880000Y-55790000D02*
X111180000Y-55790000D01*
%TO.C,R14*%
X160700000Y-78580000D02*
X164400000Y-78580000D01*
X160700000Y-80480000D02*
X160700000Y-78580000D01*
X164400000Y-78580000D02*
X164400000Y-80480000D01*
X164400000Y-80480000D02*
X160700000Y-80480000D01*
%TO.C,R8*%
X138150000Y-84250000D02*
X141850000Y-84250000D01*
X138150000Y-86150000D02*
X138150000Y-84250000D01*
X141850000Y-84250000D02*
X141850000Y-86150000D01*
X141850000Y-86150000D02*
X138150000Y-86150000D01*
%TO.C,R7*%
X138170000Y-79820000D02*
X141870000Y-79820000D01*
X138170000Y-81720000D02*
X138170000Y-79820000D01*
X141870000Y-79820000D02*
X141870000Y-81720000D01*
X141870000Y-81720000D02*
X138170000Y-81720000D01*
%TO.C,J10*%
X103330000Y-49030000D02*
X106880000Y-49030000D01*
X103330000Y-70380000D02*
X103330000Y-49030000D01*
X106880000Y-49030000D02*
X106880000Y-70380000D01*
X106880000Y-70380000D02*
X103330000Y-70380000D01*
%TO.C,R1*%
X148120000Y-56170000D02*
X150020000Y-56170000D01*
X148120000Y-59870000D02*
X148120000Y-56170000D01*
X150020000Y-56170000D02*
X150020000Y-59870000D01*
X150020000Y-59870000D02*
X148120000Y-59870000D01*
%TO.C,J9*%
X154880000Y-62940000D02*
X158430000Y-62940000D01*
X154880000Y-84290000D02*
X154880000Y-62940000D01*
X158430000Y-62940000D02*
X158430000Y-84290000D01*
X158430000Y-84290000D02*
X154880000Y-84290000D01*
%TO.C,R16*%
X158650000Y-87630000D02*
X162350000Y-87630000D01*
X158650000Y-89530000D02*
X158650000Y-87630000D01*
X162350000Y-87630000D02*
X162350000Y-89530000D01*
X162350000Y-89530000D02*
X158650000Y-89530000D01*
%TO.C,U6*%
X180270000Y-78550000D02*
X180270000Y-82050000D01*
X180270000Y-82050000D02*
X186630000Y-82050000D01*
X186630000Y-78550000D02*
X180270000Y-78550000D01*
X186630000Y-82050000D02*
X186630000Y-78550000D01*
%TO.C,U7*%
X178620000Y-86710000D02*
X178620000Y-90210000D01*
X178620000Y-90210000D02*
X184980000Y-90210000D01*
X184980000Y-86710000D02*
X178620000Y-86710000D01*
X184980000Y-90210000D02*
X184980000Y-86710000D01*
%TO.C,C12*%
X175170000Y-69500000D02*
X178930000Y-69500000D01*
X175170000Y-71460000D02*
X175170000Y-69500000D01*
X178930000Y-69500000D02*
X178930000Y-71460000D01*
X178930000Y-71460000D02*
X175170000Y-71460000D01*
%TO.C,R12*%
X170180000Y-66270000D02*
X173880000Y-66270000D01*
X170180000Y-68170000D02*
X170180000Y-66270000D01*
X173880000Y-66270000D02*
X173880000Y-68170000D01*
X173880000Y-68170000D02*
X170180000Y-68170000D01*
%TO.C,R20*%
X125310000Y-70240000D02*
X127210000Y-70240000D01*
X125310000Y-73940000D02*
X125310000Y-70240000D01*
X127210000Y-70240000D02*
X127210000Y-73940000D01*
X127210000Y-73940000D02*
X125310000Y-73940000D01*
%TO.C,RV1*%
X117870000Y-86450000D02*
X117870000Y-96550000D01*
X117870000Y-96550000D02*
X123270000Y-96550000D01*
X123270000Y-86450000D02*
X117870000Y-86450000D01*
X123270000Y-96550000D02*
X123270000Y-86450000D01*
%TO.C,C1*%
X133260000Y-88610000D02*
X135220000Y-88610000D01*
X133260000Y-92370000D02*
X133260000Y-88610000D01*
X135220000Y-88610000D02*
X135220000Y-92370000D01*
X135220000Y-92370000D02*
X133260000Y-92370000D01*
%TO.C,U14*%
X124380000Y-83890000D02*
X124380000Y-92690000D01*
X124380000Y-92690000D02*
X131580000Y-92690000D01*
X131580000Y-83890000D02*
X124380000Y-83890000D01*
X131580000Y-92690000D02*
X131580000Y-83890000D01*
%TO.C,MH2*%
X115670000Y-97460000D02*
G75*
G02*
X112270000Y-97460000I-1700000J0D01*
G01*
X112270000Y-97460000D02*
G75*
G02*
X115670000Y-97460000I1700000J0D01*
G01*
%TO.C,MH3*%
X167740000Y-64440000D02*
G75*
G02*
X164340000Y-64440000I-1700000J0D01*
G01*
X164340000Y-64440000D02*
G75*
G02*
X167740000Y-64440000I1700000J0D01*
G01*
%TO.C,MH4*%
X167740000Y-92380000D02*
G75*
G02*
X164340000Y-92380000I-1700000J0D01*
G01*
X164340000Y-92380000D02*
G75*
G02*
X167740000Y-92380000I1700000J0D01*
G01*
%TO.C,U4*%
X181110000Y-62040000D02*
X181110000Y-65540000D01*
X181110000Y-65540000D02*
X187470000Y-65540000D01*
X187470000Y-62040000D02*
X181110000Y-62040000D01*
X187470000Y-65540000D02*
X187470000Y-62040000D01*
%TO.C,U9*%
X121010000Y-57452500D02*
X121010000Y-65152500D01*
X121010000Y-65152500D02*
X126510000Y-65152500D01*
X126510000Y-57452500D02*
X121010000Y-57452500D01*
X126510000Y-65152500D02*
X126510000Y-57452500D01*
%TO.C,MH5*%
X191870000Y-49200000D02*
G75*
G02*
X188470000Y-49200000I-1700000J0D01*
G01*
X188470000Y-49200000D02*
G75*
G02*
X191870000Y-49200000I1700000J0D01*
G01*
%TD*%
M02*
