%TF.GenerationSoftware,KiCad,Pcbnew,8.0.8*%
%TF.CreationDate,2025-07-24T20:26:14+03:00*%
%TF.ProjectId,memristor_shield,6d656d72-6973-4746-9f72-5f736869656c,rev?*%
%TF.SameCoordinates,Original*%
%TF.FileFunction,AssemblyDrawing,Bot*%
%FSLAX46Y46*%
G04 Gerber Fmt 4.6, Leading zero omitted, Abs format (unit mm)*
G04 Created by KiCad (PCBNEW 8.0.8) date 2025-07-24 20:26:14*
%MOMM*%
%LPD*%
G01*
G04 APERTURE LIST*
%ADD10C,0.150000*%
%ADD11C,0.080000*%
%ADD12C,0.110000*%
%ADD13C,0.100000*%
G04 APERTURE END LIST*
D10*
X128039580Y-77569523D02*
X128087200Y-77521904D01*
X128087200Y-77521904D02*
X128134819Y-77379047D01*
X128134819Y-77379047D02*
X128134819Y-77283809D01*
X128134819Y-77283809D02*
X128087200Y-77140952D01*
X128087200Y-77140952D02*
X127991961Y-77045714D01*
X127991961Y-77045714D02*
X127896723Y-76998095D01*
X127896723Y-76998095D02*
X127706247Y-76950476D01*
X127706247Y-76950476D02*
X127563390Y-76950476D01*
X127563390Y-76950476D02*
X127372914Y-76998095D01*
X127372914Y-76998095D02*
X127277676Y-77045714D01*
X127277676Y-77045714D02*
X127182438Y-77140952D01*
X127182438Y-77140952D02*
X127134819Y-77283809D01*
X127134819Y-77283809D02*
X127134819Y-77379047D01*
X127134819Y-77379047D02*
X127182438Y-77521904D01*
X127182438Y-77521904D02*
X127230057Y-77569523D01*
D11*
X129539530Y-76938571D02*
X129563340Y-76914762D01*
X129563340Y-76914762D02*
X129587149Y-76843333D01*
X129587149Y-76843333D02*
X129587149Y-76795714D01*
X129587149Y-76795714D02*
X129563340Y-76724286D01*
X129563340Y-76724286D02*
X129515720Y-76676667D01*
X129515720Y-76676667D02*
X129468101Y-76652857D01*
X129468101Y-76652857D02*
X129372863Y-76629048D01*
X129372863Y-76629048D02*
X129301435Y-76629048D01*
X129301435Y-76629048D02*
X129206197Y-76652857D01*
X129206197Y-76652857D02*
X129158578Y-76676667D01*
X129158578Y-76676667D02*
X129110959Y-76724286D01*
X129110959Y-76724286D02*
X129087149Y-76795714D01*
X129087149Y-76795714D02*
X129087149Y-76843333D01*
X129087149Y-76843333D02*
X129110959Y-76914762D01*
X129110959Y-76914762D02*
X129134768Y-76938571D01*
X129587149Y-77414762D02*
X129587149Y-77129048D01*
X129587149Y-77271905D02*
X129087149Y-77271905D01*
X129087149Y-77271905D02*
X129158578Y-77224286D01*
X129158578Y-77224286D02*
X129206197Y-77176667D01*
X129206197Y-77176667D02*
X129230006Y-77129048D01*
X129587149Y-77890952D02*
X129587149Y-77605238D01*
X129587149Y-77748095D02*
X129087149Y-77748095D01*
X129087149Y-77748095D02*
X129158578Y-77700476D01*
X129158578Y-77700476D02*
X129206197Y-77652857D01*
X129206197Y-77652857D02*
X129230006Y-77605238D01*
D10*
X187604819Y-70999523D02*
X187128628Y-70666190D01*
X187604819Y-70428095D02*
X186604819Y-70428095D01*
X186604819Y-70428095D02*
X186604819Y-70809047D01*
X186604819Y-70809047D02*
X186652438Y-70904285D01*
X186652438Y-70904285D02*
X186700057Y-70951904D01*
X186700057Y-70951904D02*
X186795295Y-70999523D01*
X186795295Y-70999523D02*
X186938152Y-70999523D01*
X186938152Y-70999523D02*
X187033390Y-70951904D01*
X187033390Y-70951904D02*
X187081009Y-70904285D01*
X187081009Y-70904285D02*
X187128628Y-70809047D01*
X187128628Y-70809047D02*
X187128628Y-70428095D01*
D11*
X189027149Y-70368571D02*
X188789054Y-70201905D01*
X189027149Y-70082857D02*
X188527149Y-70082857D01*
X188527149Y-70082857D02*
X188527149Y-70273333D01*
X188527149Y-70273333D02*
X188550959Y-70320952D01*
X188550959Y-70320952D02*
X188574768Y-70344762D01*
X188574768Y-70344762D02*
X188622387Y-70368571D01*
X188622387Y-70368571D02*
X188693816Y-70368571D01*
X188693816Y-70368571D02*
X188741435Y-70344762D01*
X188741435Y-70344762D02*
X188765244Y-70320952D01*
X188765244Y-70320952D02*
X188789054Y-70273333D01*
X188789054Y-70273333D02*
X188789054Y-70082857D01*
X188574768Y-70559048D02*
X188550959Y-70582857D01*
X188550959Y-70582857D02*
X188527149Y-70630476D01*
X188527149Y-70630476D02*
X188527149Y-70749524D01*
X188527149Y-70749524D02*
X188550959Y-70797143D01*
X188550959Y-70797143D02*
X188574768Y-70820952D01*
X188574768Y-70820952D02*
X188622387Y-70844762D01*
X188622387Y-70844762D02*
X188670006Y-70844762D01*
X188670006Y-70844762D02*
X188741435Y-70820952D01*
X188741435Y-70820952D02*
X189027149Y-70535238D01*
X189027149Y-70535238D02*
X189027149Y-70844762D01*
X188527149Y-71297142D02*
X188527149Y-71059047D01*
X188527149Y-71059047D02*
X188765244Y-71035238D01*
X188765244Y-71035238D02*
X188741435Y-71059047D01*
X188741435Y-71059047D02*
X188717625Y-71106666D01*
X188717625Y-71106666D02*
X188717625Y-71225714D01*
X188717625Y-71225714D02*
X188741435Y-71273333D01*
X188741435Y-71273333D02*
X188765244Y-71297142D01*
X188765244Y-71297142D02*
X188812863Y-71320952D01*
X188812863Y-71320952D02*
X188931911Y-71320952D01*
X188931911Y-71320952D02*
X188979530Y-71297142D01*
X188979530Y-71297142D02*
X189003340Y-71273333D01*
X189003340Y-71273333D02*
X189027149Y-71225714D01*
X189027149Y-71225714D02*
X189027149Y-71106666D01*
X189027149Y-71106666D02*
X189003340Y-71059047D01*
X189003340Y-71059047D02*
X188979530Y-71035238D01*
D10*
X160480476Y-61444819D02*
X160813809Y-60968628D01*
X161051904Y-61444819D02*
X161051904Y-60444819D01*
X161051904Y-60444819D02*
X160670952Y-60444819D01*
X160670952Y-60444819D02*
X160575714Y-60492438D01*
X160575714Y-60492438D02*
X160528095Y-60540057D01*
X160528095Y-60540057D02*
X160480476Y-60635295D01*
X160480476Y-60635295D02*
X160480476Y-60778152D01*
X160480476Y-60778152D02*
X160528095Y-60873390D01*
X160528095Y-60873390D02*
X160575714Y-60921009D01*
X160575714Y-60921009D02*
X160670952Y-60968628D01*
X160670952Y-60968628D02*
X161051904Y-60968628D01*
D11*
X161111428Y-59567149D02*
X161278094Y-59329054D01*
X161397142Y-59567149D02*
X161397142Y-59067149D01*
X161397142Y-59067149D02*
X161206666Y-59067149D01*
X161206666Y-59067149D02*
X161159047Y-59090959D01*
X161159047Y-59090959D02*
X161135237Y-59114768D01*
X161135237Y-59114768D02*
X161111428Y-59162387D01*
X161111428Y-59162387D02*
X161111428Y-59233816D01*
X161111428Y-59233816D02*
X161135237Y-59281435D01*
X161135237Y-59281435D02*
X161159047Y-59305244D01*
X161159047Y-59305244D02*
X161206666Y-59329054D01*
X161206666Y-59329054D02*
X161397142Y-59329054D01*
X160920951Y-59114768D02*
X160897142Y-59090959D01*
X160897142Y-59090959D02*
X160849523Y-59067149D01*
X160849523Y-59067149D02*
X160730475Y-59067149D01*
X160730475Y-59067149D02*
X160682856Y-59090959D01*
X160682856Y-59090959D02*
X160659047Y-59114768D01*
X160659047Y-59114768D02*
X160635237Y-59162387D01*
X160635237Y-59162387D02*
X160635237Y-59210006D01*
X160635237Y-59210006D02*
X160659047Y-59281435D01*
X160659047Y-59281435D02*
X160944761Y-59567149D01*
X160944761Y-59567149D02*
X160635237Y-59567149D01*
X160159047Y-59567149D02*
X160444761Y-59567149D01*
X160301904Y-59567149D02*
X160301904Y-59067149D01*
X160301904Y-59067149D02*
X160349523Y-59138578D01*
X160349523Y-59138578D02*
X160397142Y-59186197D01*
X160397142Y-59186197D02*
X160444761Y-59210006D01*
D10*
X144078809Y-86229819D02*
X144078809Y-85229819D01*
X144078809Y-85229819D02*
X143840714Y-85229819D01*
X143840714Y-85229819D02*
X143697857Y-85277438D01*
X143697857Y-85277438D02*
X143602619Y-85372676D01*
X143602619Y-85372676D02*
X143555000Y-85467914D01*
X143555000Y-85467914D02*
X143507381Y-85658390D01*
X143507381Y-85658390D02*
X143507381Y-85801247D01*
X143507381Y-85801247D02*
X143555000Y-85991723D01*
X143555000Y-85991723D02*
X143602619Y-86086961D01*
X143602619Y-86086961D02*
X143697857Y-86182200D01*
X143697857Y-86182200D02*
X143840714Y-86229819D01*
X143840714Y-86229819D02*
X144078809Y-86229819D01*
X142555000Y-85277438D02*
X142650238Y-85229819D01*
X142650238Y-85229819D02*
X142793095Y-85229819D01*
X142793095Y-85229819D02*
X142935952Y-85277438D01*
X142935952Y-85277438D02*
X143031190Y-85372676D01*
X143031190Y-85372676D02*
X143078809Y-85467914D01*
X143078809Y-85467914D02*
X143126428Y-85658390D01*
X143126428Y-85658390D02*
X143126428Y-85801247D01*
X143126428Y-85801247D02*
X143078809Y-85991723D01*
X143078809Y-85991723D02*
X143031190Y-86086961D01*
X143031190Y-86086961D02*
X142935952Y-86182200D01*
X142935952Y-86182200D02*
X142793095Y-86229819D01*
X142793095Y-86229819D02*
X142697857Y-86229819D01*
X142697857Y-86229819D02*
X142555000Y-86182200D01*
X142555000Y-86182200D02*
X142507381Y-86134580D01*
X142507381Y-86134580D02*
X142507381Y-85801247D01*
X142507381Y-85801247D02*
X142697857Y-85801247D01*
X141650238Y-85563152D02*
X141650238Y-86229819D01*
X141888333Y-85182200D02*
X142126428Y-85896485D01*
X142126428Y-85896485D02*
X141507381Y-85896485D01*
X140697857Y-85563152D02*
X140697857Y-86229819D01*
X140935952Y-85182200D02*
X141174047Y-85896485D01*
X141174047Y-85896485D02*
X140555000Y-85896485D01*
X140221666Y-85325057D02*
X140174047Y-85277438D01*
X140174047Y-85277438D02*
X140078809Y-85229819D01*
X140078809Y-85229819D02*
X139840714Y-85229819D01*
X139840714Y-85229819D02*
X139745476Y-85277438D01*
X139745476Y-85277438D02*
X139697857Y-85325057D01*
X139697857Y-85325057D02*
X139650238Y-85420295D01*
X139650238Y-85420295D02*
X139650238Y-85515533D01*
X139650238Y-85515533D02*
X139697857Y-85658390D01*
X139697857Y-85658390D02*
X140269285Y-86229819D01*
X140269285Y-86229819D02*
X139650238Y-86229819D01*
X139316904Y-86229819D02*
X138793095Y-85563152D01*
X139316904Y-85563152D02*
X138793095Y-86229819D01*
X138221666Y-85753628D02*
X138221666Y-86229819D01*
X138554999Y-85229819D02*
X138221666Y-85753628D01*
X138221666Y-85753628D02*
X137888333Y-85229819D01*
X142268332Y-79340566D02*
X142268332Y-80133900D01*
X142268332Y-80133900D02*
X142221666Y-80227233D01*
X142221666Y-80227233D02*
X142174999Y-80273900D01*
X142174999Y-80273900D02*
X142081666Y-80320566D01*
X142081666Y-80320566D02*
X141894999Y-80320566D01*
X141894999Y-80320566D02*
X141801666Y-80273900D01*
X141801666Y-80273900D02*
X141754999Y-80227233D01*
X141754999Y-80227233D02*
X141708332Y-80133900D01*
X141708332Y-80133900D02*
X141708332Y-79340566D01*
X140728332Y-80320566D02*
X141288332Y-80320566D01*
X141008332Y-80320566D02*
X141008332Y-79340566D01*
X141008332Y-79340566D02*
X141101665Y-79480566D01*
X141101665Y-79480566D02*
X141194999Y-79573900D01*
X141194999Y-79573900D02*
X141288332Y-79620566D01*
X140354999Y-79433900D02*
X140308332Y-79387233D01*
X140308332Y-79387233D02*
X140214999Y-79340566D01*
X140214999Y-79340566D02*
X139981666Y-79340566D01*
X139981666Y-79340566D02*
X139888332Y-79387233D01*
X139888332Y-79387233D02*
X139841666Y-79433900D01*
X139841666Y-79433900D02*
X139794999Y-79527233D01*
X139794999Y-79527233D02*
X139794999Y-79620566D01*
X139794999Y-79620566D02*
X139841666Y-79760566D01*
X139841666Y-79760566D02*
X140401666Y-80320566D01*
X140401666Y-80320566D02*
X139794999Y-80320566D01*
X183180476Y-78794819D02*
X183513809Y-78318628D01*
X183751904Y-78794819D02*
X183751904Y-77794819D01*
X183751904Y-77794819D02*
X183370952Y-77794819D01*
X183370952Y-77794819D02*
X183275714Y-77842438D01*
X183275714Y-77842438D02*
X183228095Y-77890057D01*
X183228095Y-77890057D02*
X183180476Y-77985295D01*
X183180476Y-77985295D02*
X183180476Y-78128152D01*
X183180476Y-78128152D02*
X183228095Y-78223390D01*
X183228095Y-78223390D02*
X183275714Y-78271009D01*
X183275714Y-78271009D02*
X183370952Y-78318628D01*
X183370952Y-78318628D02*
X183751904Y-78318628D01*
D11*
X183811428Y-76917149D02*
X183978094Y-76679054D01*
X184097142Y-76917149D02*
X184097142Y-76417149D01*
X184097142Y-76417149D02*
X183906666Y-76417149D01*
X183906666Y-76417149D02*
X183859047Y-76440959D01*
X183859047Y-76440959D02*
X183835237Y-76464768D01*
X183835237Y-76464768D02*
X183811428Y-76512387D01*
X183811428Y-76512387D02*
X183811428Y-76583816D01*
X183811428Y-76583816D02*
X183835237Y-76631435D01*
X183835237Y-76631435D02*
X183859047Y-76655244D01*
X183859047Y-76655244D02*
X183906666Y-76679054D01*
X183906666Y-76679054D02*
X184097142Y-76679054D01*
X183620951Y-76464768D02*
X183597142Y-76440959D01*
X183597142Y-76440959D02*
X183549523Y-76417149D01*
X183549523Y-76417149D02*
X183430475Y-76417149D01*
X183430475Y-76417149D02*
X183382856Y-76440959D01*
X183382856Y-76440959D02*
X183359047Y-76464768D01*
X183359047Y-76464768D02*
X183335237Y-76512387D01*
X183335237Y-76512387D02*
X183335237Y-76560006D01*
X183335237Y-76560006D02*
X183359047Y-76631435D01*
X183359047Y-76631435D02*
X183644761Y-76917149D01*
X183644761Y-76917149D02*
X183335237Y-76917149D01*
X182906666Y-76417149D02*
X183001904Y-76417149D01*
X183001904Y-76417149D02*
X183049523Y-76440959D01*
X183049523Y-76440959D02*
X183073333Y-76464768D01*
X183073333Y-76464768D02*
X183120952Y-76536197D01*
X183120952Y-76536197D02*
X183144761Y-76631435D01*
X183144761Y-76631435D02*
X183144761Y-76821911D01*
X183144761Y-76821911D02*
X183120952Y-76869530D01*
X183120952Y-76869530D02*
X183097142Y-76893340D01*
X183097142Y-76893340D02*
X183049523Y-76917149D01*
X183049523Y-76917149D02*
X182954285Y-76917149D01*
X182954285Y-76917149D02*
X182906666Y-76893340D01*
X182906666Y-76893340D02*
X182882857Y-76869530D01*
X182882857Y-76869530D02*
X182859047Y-76821911D01*
X182859047Y-76821911D02*
X182859047Y-76702863D01*
X182859047Y-76702863D02*
X182882857Y-76655244D01*
X182882857Y-76655244D02*
X182906666Y-76631435D01*
X182906666Y-76631435D02*
X182954285Y-76607625D01*
X182954285Y-76607625D02*
X183049523Y-76607625D01*
X183049523Y-76607625D02*
X183097142Y-76631435D01*
X183097142Y-76631435D02*
X183120952Y-76655244D01*
X183120952Y-76655244D02*
X183144761Y-76702863D01*
D10*
X186214819Y-87729523D02*
X185738628Y-87396190D01*
X186214819Y-87158095D02*
X185214819Y-87158095D01*
X185214819Y-87158095D02*
X185214819Y-87539047D01*
X185214819Y-87539047D02*
X185262438Y-87634285D01*
X185262438Y-87634285D02*
X185310057Y-87681904D01*
X185310057Y-87681904D02*
X185405295Y-87729523D01*
X185405295Y-87729523D02*
X185548152Y-87729523D01*
X185548152Y-87729523D02*
X185643390Y-87681904D01*
X185643390Y-87681904D02*
X185691009Y-87634285D01*
X185691009Y-87634285D02*
X185738628Y-87539047D01*
X185738628Y-87539047D02*
X185738628Y-87158095D01*
D11*
X187637149Y-87098571D02*
X187399054Y-86931905D01*
X187637149Y-86812857D02*
X187137149Y-86812857D01*
X187137149Y-86812857D02*
X187137149Y-87003333D01*
X187137149Y-87003333D02*
X187160959Y-87050952D01*
X187160959Y-87050952D02*
X187184768Y-87074762D01*
X187184768Y-87074762D02*
X187232387Y-87098571D01*
X187232387Y-87098571D02*
X187303816Y-87098571D01*
X187303816Y-87098571D02*
X187351435Y-87074762D01*
X187351435Y-87074762D02*
X187375244Y-87050952D01*
X187375244Y-87050952D02*
X187399054Y-87003333D01*
X187399054Y-87003333D02*
X187399054Y-86812857D01*
X187184768Y-87289048D02*
X187160959Y-87312857D01*
X187160959Y-87312857D02*
X187137149Y-87360476D01*
X187137149Y-87360476D02*
X187137149Y-87479524D01*
X187137149Y-87479524D02*
X187160959Y-87527143D01*
X187160959Y-87527143D02*
X187184768Y-87550952D01*
X187184768Y-87550952D02*
X187232387Y-87574762D01*
X187232387Y-87574762D02*
X187280006Y-87574762D01*
X187280006Y-87574762D02*
X187351435Y-87550952D01*
X187351435Y-87550952D02*
X187637149Y-87265238D01*
X187637149Y-87265238D02*
X187637149Y-87574762D01*
X187137149Y-87741428D02*
X187137149Y-88074761D01*
X187137149Y-88074761D02*
X187637149Y-87860476D01*
D10*
X183937976Y-70299580D02*
X183985595Y-70347200D01*
X183985595Y-70347200D02*
X184128452Y-70394819D01*
X184128452Y-70394819D02*
X184223690Y-70394819D01*
X184223690Y-70394819D02*
X184366547Y-70347200D01*
X184366547Y-70347200D02*
X184461785Y-70251961D01*
X184461785Y-70251961D02*
X184509404Y-70156723D01*
X184509404Y-70156723D02*
X184557023Y-69966247D01*
X184557023Y-69966247D02*
X184557023Y-69823390D01*
X184557023Y-69823390D02*
X184509404Y-69632914D01*
X184509404Y-69632914D02*
X184461785Y-69537676D01*
X184461785Y-69537676D02*
X184366547Y-69442438D01*
X184366547Y-69442438D02*
X184223690Y-69394819D01*
X184223690Y-69394819D02*
X184128452Y-69394819D01*
X184128452Y-69394819D02*
X183985595Y-69442438D01*
X183985595Y-69442438D02*
X183937976Y-69490057D01*
D11*
X184330833Y-68439530D02*
X184354642Y-68463340D01*
X184354642Y-68463340D02*
X184426071Y-68487149D01*
X184426071Y-68487149D02*
X184473690Y-68487149D01*
X184473690Y-68487149D02*
X184545118Y-68463340D01*
X184545118Y-68463340D02*
X184592737Y-68415720D01*
X184592737Y-68415720D02*
X184616547Y-68368101D01*
X184616547Y-68368101D02*
X184640356Y-68272863D01*
X184640356Y-68272863D02*
X184640356Y-68201435D01*
X184640356Y-68201435D02*
X184616547Y-68106197D01*
X184616547Y-68106197D02*
X184592737Y-68058578D01*
X184592737Y-68058578D02*
X184545118Y-68010959D01*
X184545118Y-68010959D02*
X184473690Y-67987149D01*
X184473690Y-67987149D02*
X184426071Y-67987149D01*
X184426071Y-67987149D02*
X184354642Y-68010959D01*
X184354642Y-68010959D02*
X184330833Y-68034768D01*
X184164166Y-67987149D02*
X183830833Y-67987149D01*
X183830833Y-67987149D02*
X184045118Y-68487149D01*
D10*
X182270476Y-86659580D02*
X182318095Y-86707200D01*
X182318095Y-86707200D02*
X182460952Y-86754819D01*
X182460952Y-86754819D02*
X182556190Y-86754819D01*
X182556190Y-86754819D02*
X182699047Y-86707200D01*
X182699047Y-86707200D02*
X182794285Y-86611961D01*
X182794285Y-86611961D02*
X182841904Y-86516723D01*
X182841904Y-86516723D02*
X182889523Y-86326247D01*
X182889523Y-86326247D02*
X182889523Y-86183390D01*
X182889523Y-86183390D02*
X182841904Y-85992914D01*
X182841904Y-85992914D02*
X182794285Y-85897676D01*
X182794285Y-85897676D02*
X182699047Y-85802438D01*
X182699047Y-85802438D02*
X182556190Y-85754819D01*
X182556190Y-85754819D02*
X182460952Y-85754819D01*
X182460952Y-85754819D02*
X182318095Y-85802438D01*
X182318095Y-85802438D02*
X182270476Y-85850057D01*
D11*
X182663333Y-84799530D02*
X182687142Y-84823340D01*
X182687142Y-84823340D02*
X182758571Y-84847149D01*
X182758571Y-84847149D02*
X182806190Y-84847149D01*
X182806190Y-84847149D02*
X182877618Y-84823340D01*
X182877618Y-84823340D02*
X182925237Y-84775720D01*
X182925237Y-84775720D02*
X182949047Y-84728101D01*
X182949047Y-84728101D02*
X182972856Y-84632863D01*
X182972856Y-84632863D02*
X182972856Y-84561435D01*
X182972856Y-84561435D02*
X182949047Y-84466197D01*
X182949047Y-84466197D02*
X182925237Y-84418578D01*
X182925237Y-84418578D02*
X182877618Y-84370959D01*
X182877618Y-84370959D02*
X182806190Y-84347149D01*
X182806190Y-84347149D02*
X182758571Y-84347149D01*
X182758571Y-84347149D02*
X182687142Y-84370959D01*
X182687142Y-84370959D02*
X182663333Y-84394768D01*
X182377618Y-84561435D02*
X182425237Y-84537625D01*
X182425237Y-84537625D02*
X182449047Y-84513816D01*
X182449047Y-84513816D02*
X182472856Y-84466197D01*
X182472856Y-84466197D02*
X182472856Y-84442387D01*
X182472856Y-84442387D02*
X182449047Y-84394768D01*
X182449047Y-84394768D02*
X182425237Y-84370959D01*
X182425237Y-84370959D02*
X182377618Y-84347149D01*
X182377618Y-84347149D02*
X182282380Y-84347149D01*
X182282380Y-84347149D02*
X182234761Y-84370959D01*
X182234761Y-84370959D02*
X182210952Y-84394768D01*
X182210952Y-84394768D02*
X182187142Y-84442387D01*
X182187142Y-84442387D02*
X182187142Y-84466197D01*
X182187142Y-84466197D02*
X182210952Y-84513816D01*
X182210952Y-84513816D02*
X182234761Y-84537625D01*
X182234761Y-84537625D02*
X182282380Y-84561435D01*
X182282380Y-84561435D02*
X182377618Y-84561435D01*
X182377618Y-84561435D02*
X182425237Y-84585244D01*
X182425237Y-84585244D02*
X182449047Y-84609054D01*
X182449047Y-84609054D02*
X182472856Y-84656673D01*
X182472856Y-84656673D02*
X182472856Y-84751911D01*
X182472856Y-84751911D02*
X182449047Y-84799530D01*
X182449047Y-84799530D02*
X182425237Y-84823340D01*
X182425237Y-84823340D02*
X182377618Y-84847149D01*
X182377618Y-84847149D02*
X182282380Y-84847149D01*
X182282380Y-84847149D02*
X182234761Y-84823340D01*
X182234761Y-84823340D02*
X182210952Y-84799530D01*
X182210952Y-84799530D02*
X182187142Y-84751911D01*
X182187142Y-84751911D02*
X182187142Y-84656673D01*
X182187142Y-84656673D02*
X182210952Y-84609054D01*
X182210952Y-84609054D02*
X182234761Y-84585244D01*
X182234761Y-84585244D02*
X182282380Y-84561435D01*
D10*
X136870476Y-95064819D02*
X137203809Y-94588628D01*
X137441904Y-95064819D02*
X137441904Y-94064819D01*
X137441904Y-94064819D02*
X137060952Y-94064819D01*
X137060952Y-94064819D02*
X136965714Y-94112438D01*
X136965714Y-94112438D02*
X136918095Y-94160057D01*
X136918095Y-94160057D02*
X136870476Y-94255295D01*
X136870476Y-94255295D02*
X136870476Y-94398152D01*
X136870476Y-94398152D02*
X136918095Y-94493390D01*
X136918095Y-94493390D02*
X136965714Y-94541009D01*
X136965714Y-94541009D02*
X137060952Y-94588628D01*
X137060952Y-94588628D02*
X137441904Y-94588628D01*
D11*
X137501428Y-93187149D02*
X137668094Y-92949054D01*
X137787142Y-93187149D02*
X137787142Y-92687149D01*
X137787142Y-92687149D02*
X137596666Y-92687149D01*
X137596666Y-92687149D02*
X137549047Y-92710959D01*
X137549047Y-92710959D02*
X137525237Y-92734768D01*
X137525237Y-92734768D02*
X137501428Y-92782387D01*
X137501428Y-92782387D02*
X137501428Y-92853816D01*
X137501428Y-92853816D02*
X137525237Y-92901435D01*
X137525237Y-92901435D02*
X137549047Y-92925244D01*
X137549047Y-92925244D02*
X137596666Y-92949054D01*
X137596666Y-92949054D02*
X137787142Y-92949054D01*
X137310951Y-92734768D02*
X137287142Y-92710959D01*
X137287142Y-92710959D02*
X137239523Y-92687149D01*
X137239523Y-92687149D02*
X137120475Y-92687149D01*
X137120475Y-92687149D02*
X137072856Y-92710959D01*
X137072856Y-92710959D02*
X137049047Y-92734768D01*
X137049047Y-92734768D02*
X137025237Y-92782387D01*
X137025237Y-92782387D02*
X137025237Y-92830006D01*
X137025237Y-92830006D02*
X137049047Y-92901435D01*
X137049047Y-92901435D02*
X137334761Y-93187149D01*
X137334761Y-93187149D02*
X137025237Y-93187149D01*
X136787142Y-93187149D02*
X136691904Y-93187149D01*
X136691904Y-93187149D02*
X136644285Y-93163340D01*
X136644285Y-93163340D02*
X136620476Y-93139530D01*
X136620476Y-93139530D02*
X136572857Y-93068101D01*
X136572857Y-93068101D02*
X136549047Y-92972863D01*
X136549047Y-92972863D02*
X136549047Y-92782387D01*
X136549047Y-92782387D02*
X136572857Y-92734768D01*
X136572857Y-92734768D02*
X136596666Y-92710959D01*
X136596666Y-92710959D02*
X136644285Y-92687149D01*
X136644285Y-92687149D02*
X136739523Y-92687149D01*
X136739523Y-92687149D02*
X136787142Y-92710959D01*
X136787142Y-92710959D02*
X136810952Y-92734768D01*
X136810952Y-92734768D02*
X136834761Y-92782387D01*
X136834761Y-92782387D02*
X136834761Y-92901435D01*
X136834761Y-92901435D02*
X136810952Y-92949054D01*
X136810952Y-92949054D02*
X136787142Y-92972863D01*
X136787142Y-92972863D02*
X136739523Y-92996673D01*
X136739523Y-92996673D02*
X136644285Y-92996673D01*
X136644285Y-92996673D02*
X136596666Y-92972863D01*
X136596666Y-92972863D02*
X136572857Y-92949054D01*
X136572857Y-92949054D02*
X136549047Y-92901435D01*
D10*
X144068809Y-68989819D02*
X144068809Y-67989819D01*
X144068809Y-67989819D02*
X143830714Y-67989819D01*
X143830714Y-67989819D02*
X143687857Y-68037438D01*
X143687857Y-68037438D02*
X143592619Y-68132676D01*
X143592619Y-68132676D02*
X143545000Y-68227914D01*
X143545000Y-68227914D02*
X143497381Y-68418390D01*
X143497381Y-68418390D02*
X143497381Y-68561247D01*
X143497381Y-68561247D02*
X143545000Y-68751723D01*
X143545000Y-68751723D02*
X143592619Y-68846961D01*
X143592619Y-68846961D02*
X143687857Y-68942200D01*
X143687857Y-68942200D02*
X143830714Y-68989819D01*
X143830714Y-68989819D02*
X144068809Y-68989819D01*
X142545000Y-68037438D02*
X142640238Y-67989819D01*
X142640238Y-67989819D02*
X142783095Y-67989819D01*
X142783095Y-67989819D02*
X142925952Y-68037438D01*
X142925952Y-68037438D02*
X143021190Y-68132676D01*
X143021190Y-68132676D02*
X143068809Y-68227914D01*
X143068809Y-68227914D02*
X143116428Y-68418390D01*
X143116428Y-68418390D02*
X143116428Y-68561247D01*
X143116428Y-68561247D02*
X143068809Y-68751723D01*
X143068809Y-68751723D02*
X143021190Y-68846961D01*
X143021190Y-68846961D02*
X142925952Y-68942200D01*
X142925952Y-68942200D02*
X142783095Y-68989819D01*
X142783095Y-68989819D02*
X142687857Y-68989819D01*
X142687857Y-68989819D02*
X142545000Y-68942200D01*
X142545000Y-68942200D02*
X142497381Y-68894580D01*
X142497381Y-68894580D02*
X142497381Y-68561247D01*
X142497381Y-68561247D02*
X142687857Y-68561247D01*
X141640238Y-68323152D02*
X141640238Y-68989819D01*
X141878333Y-67942200D02*
X142116428Y-68656485D01*
X142116428Y-68656485D02*
X141497381Y-68656485D01*
X140687857Y-68323152D02*
X140687857Y-68989819D01*
X140925952Y-67942200D02*
X141164047Y-68656485D01*
X141164047Y-68656485D02*
X140545000Y-68656485D01*
X140211666Y-68085057D02*
X140164047Y-68037438D01*
X140164047Y-68037438D02*
X140068809Y-67989819D01*
X140068809Y-67989819D02*
X139830714Y-67989819D01*
X139830714Y-67989819D02*
X139735476Y-68037438D01*
X139735476Y-68037438D02*
X139687857Y-68085057D01*
X139687857Y-68085057D02*
X139640238Y-68180295D01*
X139640238Y-68180295D02*
X139640238Y-68275533D01*
X139640238Y-68275533D02*
X139687857Y-68418390D01*
X139687857Y-68418390D02*
X140259285Y-68989819D01*
X140259285Y-68989819D02*
X139640238Y-68989819D01*
X139306904Y-68989819D02*
X138783095Y-68323152D01*
X139306904Y-68323152D02*
X138783095Y-68989819D01*
X138211666Y-68513628D02*
X138211666Y-68989819D01*
X138544999Y-67989819D02*
X138211666Y-68513628D01*
X138211666Y-68513628D02*
X137878333Y-67989819D01*
X142258332Y-62100566D02*
X142258332Y-62893900D01*
X142258332Y-62893900D02*
X142211666Y-62987233D01*
X142211666Y-62987233D02*
X142164999Y-63033900D01*
X142164999Y-63033900D02*
X142071666Y-63080566D01*
X142071666Y-63080566D02*
X141884999Y-63080566D01*
X141884999Y-63080566D02*
X141791666Y-63033900D01*
X141791666Y-63033900D02*
X141744999Y-62987233D01*
X141744999Y-62987233D02*
X141698332Y-62893900D01*
X141698332Y-62893900D02*
X141698332Y-62100566D01*
X140718332Y-63080566D02*
X141278332Y-63080566D01*
X140998332Y-63080566D02*
X140998332Y-62100566D01*
X140998332Y-62100566D02*
X141091665Y-62240566D01*
X141091665Y-62240566D02*
X141184999Y-62333900D01*
X141184999Y-62333900D02*
X141278332Y-62380566D01*
X140391666Y-62100566D02*
X139784999Y-62100566D01*
X139784999Y-62100566D02*
X140111666Y-62473900D01*
X140111666Y-62473900D02*
X139971666Y-62473900D01*
X139971666Y-62473900D02*
X139878332Y-62520566D01*
X139878332Y-62520566D02*
X139831666Y-62567233D01*
X139831666Y-62567233D02*
X139784999Y-62660566D01*
X139784999Y-62660566D02*
X139784999Y-62893900D01*
X139784999Y-62893900D02*
X139831666Y-62987233D01*
X139831666Y-62987233D02*
X139878332Y-63033900D01*
X139878332Y-63033900D02*
X139971666Y-63080566D01*
X139971666Y-63080566D02*
X140251666Y-63080566D01*
X140251666Y-63080566D02*
X140344999Y-63033900D01*
X140344999Y-63033900D02*
X140391666Y-62987233D01*
X181579819Y-67471190D02*
X180579819Y-67471190D01*
X180579819Y-67471190D02*
X180579819Y-67709285D01*
X180579819Y-67709285D02*
X180627438Y-67852142D01*
X180627438Y-67852142D02*
X180722676Y-67947380D01*
X180722676Y-67947380D02*
X180817914Y-67994999D01*
X180817914Y-67994999D02*
X181008390Y-68042618D01*
X181008390Y-68042618D02*
X181151247Y-68042618D01*
X181151247Y-68042618D02*
X181341723Y-67994999D01*
X181341723Y-67994999D02*
X181436961Y-67947380D01*
X181436961Y-67947380D02*
X181532200Y-67852142D01*
X181532200Y-67852142D02*
X181579819Y-67709285D01*
X181579819Y-67709285D02*
X181579819Y-67471190D01*
X180627438Y-68994999D02*
X180579819Y-68899761D01*
X180579819Y-68899761D02*
X180579819Y-68756904D01*
X180579819Y-68756904D02*
X180627438Y-68614047D01*
X180627438Y-68614047D02*
X180722676Y-68518809D01*
X180722676Y-68518809D02*
X180817914Y-68471190D01*
X180817914Y-68471190D02*
X181008390Y-68423571D01*
X181008390Y-68423571D02*
X181151247Y-68423571D01*
X181151247Y-68423571D02*
X181341723Y-68471190D01*
X181341723Y-68471190D02*
X181436961Y-68518809D01*
X181436961Y-68518809D02*
X181532200Y-68614047D01*
X181532200Y-68614047D02*
X181579819Y-68756904D01*
X181579819Y-68756904D02*
X181579819Y-68852142D01*
X181579819Y-68852142D02*
X181532200Y-68994999D01*
X181532200Y-68994999D02*
X181484580Y-69042618D01*
X181484580Y-69042618D02*
X181151247Y-69042618D01*
X181151247Y-69042618D02*
X181151247Y-68852142D01*
X180913152Y-69899761D02*
X181579819Y-69899761D01*
X180532200Y-69661666D02*
X181246485Y-69423571D01*
X181246485Y-69423571D02*
X181246485Y-70042618D01*
X180913152Y-70852142D02*
X181579819Y-70852142D01*
X180532200Y-70614047D02*
X181246485Y-70375952D01*
X181246485Y-70375952D02*
X181246485Y-70994999D01*
X180675057Y-71328333D02*
X180627438Y-71375952D01*
X180627438Y-71375952D02*
X180579819Y-71471190D01*
X180579819Y-71471190D02*
X180579819Y-71709285D01*
X180579819Y-71709285D02*
X180627438Y-71804523D01*
X180627438Y-71804523D02*
X180675057Y-71852142D01*
X180675057Y-71852142D02*
X180770295Y-71899761D01*
X180770295Y-71899761D02*
X180865533Y-71899761D01*
X180865533Y-71899761D02*
X181008390Y-71852142D01*
X181008390Y-71852142D02*
X181579819Y-71280714D01*
X181579819Y-71280714D02*
X181579819Y-71899761D01*
X181579819Y-72233095D02*
X180913152Y-72756904D01*
X180913152Y-72233095D02*
X181579819Y-72756904D01*
X181103628Y-73328333D02*
X181579819Y-73328333D01*
X180579819Y-72995000D02*
X181103628Y-73328333D01*
X181103628Y-73328333D02*
X180579819Y-73661666D01*
X174690566Y-69281667D02*
X175483900Y-69281667D01*
X175483900Y-69281667D02*
X175577233Y-69328334D01*
X175577233Y-69328334D02*
X175623900Y-69375000D01*
X175623900Y-69375000D02*
X175670566Y-69468334D01*
X175670566Y-69468334D02*
X175670566Y-69655000D01*
X175670566Y-69655000D02*
X175623900Y-69748334D01*
X175623900Y-69748334D02*
X175577233Y-69795000D01*
X175577233Y-69795000D02*
X175483900Y-69841667D01*
X175483900Y-69841667D02*
X174690566Y-69841667D01*
X175670566Y-70821667D02*
X175670566Y-70261667D01*
X175670566Y-70541667D02*
X174690566Y-70541667D01*
X174690566Y-70541667D02*
X174830566Y-70448334D01*
X174830566Y-70448334D02*
X174923900Y-70355001D01*
X174923900Y-70355001D02*
X174970566Y-70261667D01*
X175670566Y-71755000D02*
X175670566Y-71195000D01*
X175670566Y-71475000D02*
X174690566Y-71475000D01*
X174690566Y-71475000D02*
X174830566Y-71381667D01*
X174830566Y-71381667D02*
X174923900Y-71288334D01*
X174923900Y-71288334D02*
X174970566Y-71195000D01*
X173509819Y-80851190D02*
X172509819Y-80851190D01*
X172509819Y-80851190D02*
X172509819Y-81089285D01*
X172509819Y-81089285D02*
X172557438Y-81232142D01*
X172557438Y-81232142D02*
X172652676Y-81327380D01*
X172652676Y-81327380D02*
X172747914Y-81374999D01*
X172747914Y-81374999D02*
X172938390Y-81422618D01*
X172938390Y-81422618D02*
X173081247Y-81422618D01*
X173081247Y-81422618D02*
X173271723Y-81374999D01*
X173271723Y-81374999D02*
X173366961Y-81327380D01*
X173366961Y-81327380D02*
X173462200Y-81232142D01*
X173462200Y-81232142D02*
X173509819Y-81089285D01*
X173509819Y-81089285D02*
X173509819Y-80851190D01*
X172557438Y-82374999D02*
X172509819Y-82279761D01*
X172509819Y-82279761D02*
X172509819Y-82136904D01*
X172509819Y-82136904D02*
X172557438Y-81994047D01*
X172557438Y-81994047D02*
X172652676Y-81898809D01*
X172652676Y-81898809D02*
X172747914Y-81851190D01*
X172747914Y-81851190D02*
X172938390Y-81803571D01*
X172938390Y-81803571D02*
X173081247Y-81803571D01*
X173081247Y-81803571D02*
X173271723Y-81851190D01*
X173271723Y-81851190D02*
X173366961Y-81898809D01*
X173366961Y-81898809D02*
X173462200Y-81994047D01*
X173462200Y-81994047D02*
X173509819Y-82136904D01*
X173509819Y-82136904D02*
X173509819Y-82232142D01*
X173509819Y-82232142D02*
X173462200Y-82374999D01*
X173462200Y-82374999D02*
X173414580Y-82422618D01*
X173414580Y-82422618D02*
X173081247Y-82422618D01*
X173081247Y-82422618D02*
X173081247Y-82232142D01*
X172843152Y-83279761D02*
X173509819Y-83279761D01*
X172462200Y-83041666D02*
X173176485Y-82803571D01*
X173176485Y-82803571D02*
X173176485Y-83422618D01*
X172843152Y-84232142D02*
X173509819Y-84232142D01*
X172462200Y-83994047D02*
X173176485Y-83755952D01*
X173176485Y-83755952D02*
X173176485Y-84374999D01*
X172605057Y-84708333D02*
X172557438Y-84755952D01*
X172557438Y-84755952D02*
X172509819Y-84851190D01*
X172509819Y-84851190D02*
X172509819Y-85089285D01*
X172509819Y-85089285D02*
X172557438Y-85184523D01*
X172557438Y-85184523D02*
X172605057Y-85232142D01*
X172605057Y-85232142D02*
X172700295Y-85279761D01*
X172700295Y-85279761D02*
X172795533Y-85279761D01*
X172795533Y-85279761D02*
X172938390Y-85232142D01*
X172938390Y-85232142D02*
X173509819Y-84660714D01*
X173509819Y-84660714D02*
X173509819Y-85279761D01*
X173509819Y-85613095D02*
X172843152Y-86136904D01*
X172843152Y-85613095D02*
X173509819Y-86136904D01*
X173033628Y-86708333D02*
X173509819Y-86708333D01*
X172509819Y-86375000D02*
X173033628Y-86708333D01*
X173033628Y-86708333D02*
X172509819Y-87041666D01*
X166620566Y-82661667D02*
X167413900Y-82661667D01*
X167413900Y-82661667D02*
X167507233Y-82708334D01*
X167507233Y-82708334D02*
X167553900Y-82755000D01*
X167553900Y-82755000D02*
X167600566Y-82848334D01*
X167600566Y-82848334D02*
X167600566Y-83035000D01*
X167600566Y-83035000D02*
X167553900Y-83128334D01*
X167553900Y-83128334D02*
X167507233Y-83175000D01*
X167507233Y-83175000D02*
X167413900Y-83221667D01*
X167413900Y-83221667D02*
X166620566Y-83221667D01*
X167600566Y-84201667D02*
X167600566Y-83641667D01*
X167600566Y-83921667D02*
X166620566Y-83921667D01*
X166620566Y-83921667D02*
X166760566Y-83828334D01*
X166760566Y-83828334D02*
X166853900Y-83735001D01*
X166853900Y-83735001D02*
X166900566Y-83641667D01*
X166620566Y-84808334D02*
X166620566Y-84901667D01*
X166620566Y-84901667D02*
X166667233Y-84995000D01*
X166667233Y-84995000D02*
X166713900Y-85041667D01*
X166713900Y-85041667D02*
X166807233Y-85088334D01*
X166807233Y-85088334D02*
X166993900Y-85135000D01*
X166993900Y-85135000D02*
X167227233Y-85135000D01*
X167227233Y-85135000D02*
X167413900Y-85088334D01*
X167413900Y-85088334D02*
X167507233Y-85041667D01*
X167507233Y-85041667D02*
X167553900Y-84995000D01*
X167553900Y-84995000D02*
X167600566Y-84901667D01*
X167600566Y-84901667D02*
X167600566Y-84808334D01*
X167600566Y-84808334D02*
X167553900Y-84715000D01*
X167553900Y-84715000D02*
X167507233Y-84668334D01*
X167507233Y-84668334D02*
X167413900Y-84621667D01*
X167413900Y-84621667D02*
X167227233Y-84575000D01*
X167227233Y-84575000D02*
X166993900Y-84575000D01*
X166993900Y-84575000D02*
X166807233Y-84621667D01*
X166807233Y-84621667D02*
X166713900Y-84668334D01*
X166713900Y-84668334D02*
X166667233Y-84715000D01*
X166667233Y-84715000D02*
X166620566Y-84808334D01*
X155970475Y-93924819D02*
X155970475Y-92924819D01*
X155494285Y-93924819D02*
X155494285Y-92924819D01*
X155494285Y-92924819D02*
X154922857Y-93924819D01*
X154922857Y-93924819D02*
X154922857Y-92924819D01*
X154494285Y-93639104D02*
X154018095Y-93639104D01*
X154589523Y-93924819D02*
X154256190Y-92924819D01*
X154256190Y-92924819D02*
X153922857Y-93924819D01*
X153684761Y-92924819D02*
X153065714Y-92924819D01*
X153065714Y-92924819D02*
X153399047Y-93305771D01*
X153399047Y-93305771D02*
X153256190Y-93305771D01*
X153256190Y-93305771D02*
X153160952Y-93353390D01*
X153160952Y-93353390D02*
X153113333Y-93401009D01*
X153113333Y-93401009D02*
X153065714Y-93496247D01*
X153065714Y-93496247D02*
X153065714Y-93734342D01*
X153065714Y-93734342D02*
X153113333Y-93829580D01*
X153113333Y-93829580D02*
X153160952Y-93877200D01*
X153160952Y-93877200D02*
X153256190Y-93924819D01*
X153256190Y-93924819D02*
X153541904Y-93924819D01*
X153541904Y-93924819D02*
X153637142Y-93877200D01*
X153637142Y-93877200D02*
X153684761Y-93829580D01*
X152732380Y-92924819D02*
X152113333Y-92924819D01*
X152113333Y-92924819D02*
X152446666Y-93305771D01*
X152446666Y-93305771D02*
X152303809Y-93305771D01*
X152303809Y-93305771D02*
X152208571Y-93353390D01*
X152208571Y-93353390D02*
X152160952Y-93401009D01*
X152160952Y-93401009D02*
X152113333Y-93496247D01*
X152113333Y-93496247D02*
X152113333Y-93734342D01*
X152113333Y-93734342D02*
X152160952Y-93829580D01*
X152160952Y-93829580D02*
X152208571Y-93877200D01*
X152208571Y-93877200D02*
X152303809Y-93924819D01*
X152303809Y-93924819D02*
X152589523Y-93924819D01*
X152589523Y-93924819D02*
X152684761Y-93877200D01*
X152684761Y-93877200D02*
X152732380Y-93829580D01*
X151779999Y-92924819D02*
X151160952Y-92924819D01*
X151160952Y-92924819D02*
X151494285Y-93305771D01*
X151494285Y-93305771D02*
X151351428Y-93305771D01*
X151351428Y-93305771D02*
X151256190Y-93353390D01*
X151256190Y-93353390D02*
X151208571Y-93401009D01*
X151208571Y-93401009D02*
X151160952Y-93496247D01*
X151160952Y-93496247D02*
X151160952Y-93734342D01*
X151160952Y-93734342D02*
X151208571Y-93829580D01*
X151208571Y-93829580D02*
X151256190Y-93877200D01*
X151256190Y-93877200D02*
X151351428Y-93924819D01*
X151351428Y-93924819D02*
X151637142Y-93924819D01*
X151637142Y-93924819D02*
X151732380Y-93877200D01*
X151732380Y-93877200D02*
X151779999Y-93829580D01*
X150827618Y-93924819D02*
X150303809Y-93258152D01*
X150827618Y-93258152D02*
X150303809Y-93924819D01*
X150018094Y-93924819D02*
X149494285Y-93258152D01*
X150018094Y-93258152D02*
X149494285Y-93924819D01*
X149113332Y-93924819D02*
X149113332Y-92924819D01*
X149113332Y-92924819D02*
X148875237Y-92924819D01*
X148875237Y-92924819D02*
X148732380Y-92972438D01*
X148732380Y-92972438D02*
X148637142Y-93067676D01*
X148637142Y-93067676D02*
X148589523Y-93162914D01*
X148589523Y-93162914D02*
X148541904Y-93353390D01*
X148541904Y-93353390D02*
X148541904Y-93496247D01*
X148541904Y-93496247D02*
X148589523Y-93686723D01*
X148589523Y-93686723D02*
X148637142Y-93781961D01*
X148637142Y-93781961D02*
X148732380Y-93877200D01*
X148732380Y-93877200D02*
X148875237Y-93924819D01*
X148875237Y-93924819D02*
X149113332Y-93924819D01*
X147589523Y-92972438D02*
X147684761Y-92924819D01*
X147684761Y-92924819D02*
X147827618Y-92924819D01*
X147827618Y-92924819D02*
X147970475Y-92972438D01*
X147970475Y-92972438D02*
X148065713Y-93067676D01*
X148065713Y-93067676D02*
X148113332Y-93162914D01*
X148113332Y-93162914D02*
X148160951Y-93353390D01*
X148160951Y-93353390D02*
X148160951Y-93496247D01*
X148160951Y-93496247D02*
X148113332Y-93686723D01*
X148113332Y-93686723D02*
X148065713Y-93781961D01*
X148065713Y-93781961D02*
X147970475Y-93877200D01*
X147970475Y-93877200D02*
X147827618Y-93924819D01*
X147827618Y-93924819D02*
X147732380Y-93924819D01*
X147732380Y-93924819D02*
X147589523Y-93877200D01*
X147589523Y-93877200D02*
X147541904Y-93829580D01*
X147541904Y-93829580D02*
X147541904Y-93496247D01*
X147541904Y-93496247D02*
X147732380Y-93496247D01*
X147113332Y-93924819D02*
X147113332Y-92924819D01*
X146541904Y-93924819D02*
X146970475Y-93353390D01*
X146541904Y-92924819D02*
X147113332Y-93496247D01*
D12*
X151851428Y-90611244D02*
X151851428Y-91218387D01*
X151851428Y-91218387D02*
X151815714Y-91289815D01*
X151815714Y-91289815D02*
X151780000Y-91325530D01*
X151780000Y-91325530D02*
X151708571Y-91361244D01*
X151708571Y-91361244D02*
X151565714Y-91361244D01*
X151565714Y-91361244D02*
X151494285Y-91325530D01*
X151494285Y-91325530D02*
X151458571Y-91289815D01*
X151458571Y-91289815D02*
X151422857Y-91218387D01*
X151422857Y-91218387D02*
X151422857Y-90611244D01*
X150958571Y-90932672D02*
X151030000Y-90896958D01*
X151030000Y-90896958D02*
X151065714Y-90861244D01*
X151065714Y-90861244D02*
X151101428Y-90789815D01*
X151101428Y-90789815D02*
X151101428Y-90754101D01*
X151101428Y-90754101D02*
X151065714Y-90682672D01*
X151065714Y-90682672D02*
X151030000Y-90646958D01*
X151030000Y-90646958D02*
X150958571Y-90611244D01*
X150958571Y-90611244D02*
X150815714Y-90611244D01*
X150815714Y-90611244D02*
X150744286Y-90646958D01*
X150744286Y-90646958D02*
X150708571Y-90682672D01*
X150708571Y-90682672D02*
X150672857Y-90754101D01*
X150672857Y-90754101D02*
X150672857Y-90789815D01*
X150672857Y-90789815D02*
X150708571Y-90861244D01*
X150708571Y-90861244D02*
X150744286Y-90896958D01*
X150744286Y-90896958D02*
X150815714Y-90932672D01*
X150815714Y-90932672D02*
X150958571Y-90932672D01*
X150958571Y-90932672D02*
X151030000Y-90968387D01*
X151030000Y-90968387D02*
X151065714Y-91004101D01*
X151065714Y-91004101D02*
X151101428Y-91075530D01*
X151101428Y-91075530D02*
X151101428Y-91218387D01*
X151101428Y-91218387D02*
X151065714Y-91289815D01*
X151065714Y-91289815D02*
X151030000Y-91325530D01*
X151030000Y-91325530D02*
X150958571Y-91361244D01*
X150958571Y-91361244D02*
X150815714Y-91361244D01*
X150815714Y-91361244D02*
X150744286Y-91325530D01*
X150744286Y-91325530D02*
X150708571Y-91289815D01*
X150708571Y-91289815D02*
X150672857Y-91218387D01*
X150672857Y-91218387D02*
X150672857Y-91075530D01*
X150672857Y-91075530D02*
X150708571Y-91004101D01*
X150708571Y-91004101D02*
X150744286Y-90968387D01*
X150744286Y-90968387D02*
X150815714Y-90932672D01*
D10*
X171010476Y-61284819D02*
X171343809Y-60808628D01*
X171581904Y-61284819D02*
X171581904Y-60284819D01*
X171581904Y-60284819D02*
X171200952Y-60284819D01*
X171200952Y-60284819D02*
X171105714Y-60332438D01*
X171105714Y-60332438D02*
X171058095Y-60380057D01*
X171058095Y-60380057D02*
X171010476Y-60475295D01*
X171010476Y-60475295D02*
X171010476Y-60618152D01*
X171010476Y-60618152D02*
X171058095Y-60713390D01*
X171058095Y-60713390D02*
X171105714Y-60761009D01*
X171105714Y-60761009D02*
X171200952Y-60808628D01*
X171200952Y-60808628D02*
X171581904Y-60808628D01*
D11*
X171641428Y-59407149D02*
X171808094Y-59169054D01*
X171927142Y-59407149D02*
X171927142Y-58907149D01*
X171927142Y-58907149D02*
X171736666Y-58907149D01*
X171736666Y-58907149D02*
X171689047Y-58930959D01*
X171689047Y-58930959D02*
X171665237Y-58954768D01*
X171665237Y-58954768D02*
X171641428Y-59002387D01*
X171641428Y-59002387D02*
X171641428Y-59073816D01*
X171641428Y-59073816D02*
X171665237Y-59121435D01*
X171665237Y-59121435D02*
X171689047Y-59145244D01*
X171689047Y-59145244D02*
X171736666Y-59169054D01*
X171736666Y-59169054D02*
X171927142Y-59169054D01*
X171450951Y-58954768D02*
X171427142Y-58930959D01*
X171427142Y-58930959D02*
X171379523Y-58907149D01*
X171379523Y-58907149D02*
X171260475Y-58907149D01*
X171260475Y-58907149D02*
X171212856Y-58930959D01*
X171212856Y-58930959D02*
X171189047Y-58954768D01*
X171189047Y-58954768D02*
X171165237Y-59002387D01*
X171165237Y-59002387D02*
X171165237Y-59050006D01*
X171165237Y-59050006D02*
X171189047Y-59121435D01*
X171189047Y-59121435D02*
X171474761Y-59407149D01*
X171474761Y-59407149D02*
X171165237Y-59407149D01*
X170974761Y-58954768D02*
X170950952Y-58930959D01*
X170950952Y-58930959D02*
X170903333Y-58907149D01*
X170903333Y-58907149D02*
X170784285Y-58907149D01*
X170784285Y-58907149D02*
X170736666Y-58930959D01*
X170736666Y-58930959D02*
X170712857Y-58954768D01*
X170712857Y-58954768D02*
X170689047Y-59002387D01*
X170689047Y-59002387D02*
X170689047Y-59050006D01*
X170689047Y-59050006D02*
X170712857Y-59121435D01*
X170712857Y-59121435D02*
X170998571Y-59407149D01*
X170998571Y-59407149D02*
X170689047Y-59407149D01*
D10*
X145030476Y-91759580D02*
X145078095Y-91807200D01*
X145078095Y-91807200D02*
X145220952Y-91854819D01*
X145220952Y-91854819D02*
X145316190Y-91854819D01*
X145316190Y-91854819D02*
X145459047Y-91807200D01*
X145459047Y-91807200D02*
X145554285Y-91711961D01*
X145554285Y-91711961D02*
X145601904Y-91616723D01*
X145601904Y-91616723D02*
X145649523Y-91426247D01*
X145649523Y-91426247D02*
X145649523Y-91283390D01*
X145649523Y-91283390D02*
X145601904Y-91092914D01*
X145601904Y-91092914D02*
X145554285Y-90997676D01*
X145554285Y-90997676D02*
X145459047Y-90902438D01*
X145459047Y-90902438D02*
X145316190Y-90854819D01*
X145316190Y-90854819D02*
X145220952Y-90854819D01*
X145220952Y-90854819D02*
X145078095Y-90902438D01*
X145078095Y-90902438D02*
X145030476Y-90950057D01*
D11*
X145423333Y-89899530D02*
X145447142Y-89923340D01*
X145447142Y-89923340D02*
X145518571Y-89947149D01*
X145518571Y-89947149D02*
X145566190Y-89947149D01*
X145566190Y-89947149D02*
X145637618Y-89923340D01*
X145637618Y-89923340D02*
X145685237Y-89875720D01*
X145685237Y-89875720D02*
X145709047Y-89828101D01*
X145709047Y-89828101D02*
X145732856Y-89732863D01*
X145732856Y-89732863D02*
X145732856Y-89661435D01*
X145732856Y-89661435D02*
X145709047Y-89566197D01*
X145709047Y-89566197D02*
X145685237Y-89518578D01*
X145685237Y-89518578D02*
X145637618Y-89470959D01*
X145637618Y-89470959D02*
X145566190Y-89447149D01*
X145566190Y-89447149D02*
X145518571Y-89447149D01*
X145518571Y-89447149D02*
X145447142Y-89470959D01*
X145447142Y-89470959D02*
X145423333Y-89494768D01*
X145185237Y-89947149D02*
X145089999Y-89947149D01*
X145089999Y-89947149D02*
X145042380Y-89923340D01*
X145042380Y-89923340D02*
X145018571Y-89899530D01*
X145018571Y-89899530D02*
X144970952Y-89828101D01*
X144970952Y-89828101D02*
X144947142Y-89732863D01*
X144947142Y-89732863D02*
X144947142Y-89542387D01*
X144947142Y-89542387D02*
X144970952Y-89494768D01*
X144970952Y-89494768D02*
X144994761Y-89470959D01*
X144994761Y-89470959D02*
X145042380Y-89447149D01*
X145042380Y-89447149D02*
X145137618Y-89447149D01*
X145137618Y-89447149D02*
X145185237Y-89470959D01*
X145185237Y-89470959D02*
X145209047Y-89494768D01*
X145209047Y-89494768D02*
X145232856Y-89542387D01*
X145232856Y-89542387D02*
X145232856Y-89661435D01*
X145232856Y-89661435D02*
X145209047Y-89709054D01*
X145209047Y-89709054D02*
X145185237Y-89732863D01*
X145185237Y-89732863D02*
X145137618Y-89756673D01*
X145137618Y-89756673D02*
X145042380Y-89756673D01*
X145042380Y-89756673D02*
X144994761Y-89732863D01*
X144994761Y-89732863D02*
X144970952Y-89709054D01*
X144970952Y-89709054D02*
X144947142Y-89661435D01*
D10*
X185520476Y-57109580D02*
X185568095Y-57157200D01*
X185568095Y-57157200D02*
X185710952Y-57204819D01*
X185710952Y-57204819D02*
X185806190Y-57204819D01*
X185806190Y-57204819D02*
X185949047Y-57157200D01*
X185949047Y-57157200D02*
X186044285Y-57061961D01*
X186044285Y-57061961D02*
X186091904Y-56966723D01*
X186091904Y-56966723D02*
X186139523Y-56776247D01*
X186139523Y-56776247D02*
X186139523Y-56633390D01*
X186139523Y-56633390D02*
X186091904Y-56442914D01*
X186091904Y-56442914D02*
X186044285Y-56347676D01*
X186044285Y-56347676D02*
X185949047Y-56252438D01*
X185949047Y-56252438D02*
X185806190Y-56204819D01*
X185806190Y-56204819D02*
X185710952Y-56204819D01*
X185710952Y-56204819D02*
X185568095Y-56252438D01*
X185568095Y-56252438D02*
X185520476Y-56300057D01*
D11*
X185913333Y-55249530D02*
X185937142Y-55273340D01*
X185937142Y-55273340D02*
X186008571Y-55297149D01*
X186008571Y-55297149D02*
X186056190Y-55297149D01*
X186056190Y-55297149D02*
X186127618Y-55273340D01*
X186127618Y-55273340D02*
X186175237Y-55225720D01*
X186175237Y-55225720D02*
X186199047Y-55178101D01*
X186199047Y-55178101D02*
X186222856Y-55082863D01*
X186222856Y-55082863D02*
X186222856Y-55011435D01*
X186222856Y-55011435D02*
X186199047Y-54916197D01*
X186199047Y-54916197D02*
X186175237Y-54868578D01*
X186175237Y-54868578D02*
X186127618Y-54820959D01*
X186127618Y-54820959D02*
X186056190Y-54797149D01*
X186056190Y-54797149D02*
X186008571Y-54797149D01*
X186008571Y-54797149D02*
X185937142Y-54820959D01*
X185937142Y-54820959D02*
X185913333Y-54844768D01*
X185484761Y-54797149D02*
X185579999Y-54797149D01*
X185579999Y-54797149D02*
X185627618Y-54820959D01*
X185627618Y-54820959D02*
X185651428Y-54844768D01*
X185651428Y-54844768D02*
X185699047Y-54916197D01*
X185699047Y-54916197D02*
X185722856Y-55011435D01*
X185722856Y-55011435D02*
X185722856Y-55201911D01*
X185722856Y-55201911D02*
X185699047Y-55249530D01*
X185699047Y-55249530D02*
X185675237Y-55273340D01*
X185675237Y-55273340D02*
X185627618Y-55297149D01*
X185627618Y-55297149D02*
X185532380Y-55297149D01*
X185532380Y-55297149D02*
X185484761Y-55273340D01*
X185484761Y-55273340D02*
X185460952Y-55249530D01*
X185460952Y-55249530D02*
X185437142Y-55201911D01*
X185437142Y-55201911D02*
X185437142Y-55082863D01*
X185437142Y-55082863D02*
X185460952Y-55035244D01*
X185460952Y-55035244D02*
X185484761Y-55011435D01*
X185484761Y-55011435D02*
X185532380Y-54987625D01*
X185532380Y-54987625D02*
X185627618Y-54987625D01*
X185627618Y-54987625D02*
X185675237Y-55011435D01*
X185675237Y-55011435D02*
X185699047Y-55035244D01*
X185699047Y-55035244D02*
X185722856Y-55082863D01*
D10*
X179870476Y-64484819D02*
X180203809Y-64008628D01*
X180441904Y-64484819D02*
X180441904Y-63484819D01*
X180441904Y-63484819D02*
X180060952Y-63484819D01*
X180060952Y-63484819D02*
X179965714Y-63532438D01*
X179965714Y-63532438D02*
X179918095Y-63580057D01*
X179918095Y-63580057D02*
X179870476Y-63675295D01*
X179870476Y-63675295D02*
X179870476Y-63818152D01*
X179870476Y-63818152D02*
X179918095Y-63913390D01*
X179918095Y-63913390D02*
X179965714Y-63961009D01*
X179965714Y-63961009D02*
X180060952Y-64008628D01*
X180060952Y-64008628D02*
X180441904Y-64008628D01*
D11*
X180501428Y-62607149D02*
X180668094Y-62369054D01*
X180787142Y-62607149D02*
X180787142Y-62107149D01*
X180787142Y-62107149D02*
X180596666Y-62107149D01*
X180596666Y-62107149D02*
X180549047Y-62130959D01*
X180549047Y-62130959D02*
X180525237Y-62154768D01*
X180525237Y-62154768D02*
X180501428Y-62202387D01*
X180501428Y-62202387D02*
X180501428Y-62273816D01*
X180501428Y-62273816D02*
X180525237Y-62321435D01*
X180525237Y-62321435D02*
X180549047Y-62345244D01*
X180549047Y-62345244D02*
X180596666Y-62369054D01*
X180596666Y-62369054D02*
X180787142Y-62369054D01*
X180310951Y-62154768D02*
X180287142Y-62130959D01*
X180287142Y-62130959D02*
X180239523Y-62107149D01*
X180239523Y-62107149D02*
X180120475Y-62107149D01*
X180120475Y-62107149D02*
X180072856Y-62130959D01*
X180072856Y-62130959D02*
X180049047Y-62154768D01*
X180049047Y-62154768D02*
X180025237Y-62202387D01*
X180025237Y-62202387D02*
X180025237Y-62250006D01*
X180025237Y-62250006D02*
X180049047Y-62321435D01*
X180049047Y-62321435D02*
X180334761Y-62607149D01*
X180334761Y-62607149D02*
X180025237Y-62607149D01*
X179858571Y-62107149D02*
X179549047Y-62107149D01*
X179549047Y-62107149D02*
X179715714Y-62297625D01*
X179715714Y-62297625D02*
X179644285Y-62297625D01*
X179644285Y-62297625D02*
X179596666Y-62321435D01*
X179596666Y-62321435D02*
X179572857Y-62345244D01*
X179572857Y-62345244D02*
X179549047Y-62392863D01*
X179549047Y-62392863D02*
X179549047Y-62511911D01*
X179549047Y-62511911D02*
X179572857Y-62559530D01*
X179572857Y-62559530D02*
X179596666Y-62583340D01*
X179596666Y-62583340D02*
X179644285Y-62607149D01*
X179644285Y-62607149D02*
X179787142Y-62607149D01*
X179787142Y-62607149D02*
X179834761Y-62583340D01*
X179834761Y-62583340D02*
X179858571Y-62559530D01*
D10*
X184960475Y-56244819D02*
X184960475Y-55244819D01*
X184484285Y-56244819D02*
X184484285Y-55244819D01*
X184484285Y-55244819D02*
X183912857Y-56244819D01*
X183912857Y-56244819D02*
X183912857Y-55244819D01*
X183484285Y-55959104D02*
X183008095Y-55959104D01*
X183579523Y-56244819D02*
X183246190Y-55244819D01*
X183246190Y-55244819D02*
X182912857Y-56244819D01*
X182674761Y-55244819D02*
X182055714Y-55244819D01*
X182055714Y-55244819D02*
X182389047Y-55625771D01*
X182389047Y-55625771D02*
X182246190Y-55625771D01*
X182246190Y-55625771D02*
X182150952Y-55673390D01*
X182150952Y-55673390D02*
X182103333Y-55721009D01*
X182103333Y-55721009D02*
X182055714Y-55816247D01*
X182055714Y-55816247D02*
X182055714Y-56054342D01*
X182055714Y-56054342D02*
X182103333Y-56149580D01*
X182103333Y-56149580D02*
X182150952Y-56197200D01*
X182150952Y-56197200D02*
X182246190Y-56244819D01*
X182246190Y-56244819D02*
X182531904Y-56244819D01*
X182531904Y-56244819D02*
X182627142Y-56197200D01*
X182627142Y-56197200D02*
X182674761Y-56149580D01*
X181722380Y-55244819D02*
X181103333Y-55244819D01*
X181103333Y-55244819D02*
X181436666Y-55625771D01*
X181436666Y-55625771D02*
X181293809Y-55625771D01*
X181293809Y-55625771D02*
X181198571Y-55673390D01*
X181198571Y-55673390D02*
X181150952Y-55721009D01*
X181150952Y-55721009D02*
X181103333Y-55816247D01*
X181103333Y-55816247D02*
X181103333Y-56054342D01*
X181103333Y-56054342D02*
X181150952Y-56149580D01*
X181150952Y-56149580D02*
X181198571Y-56197200D01*
X181198571Y-56197200D02*
X181293809Y-56244819D01*
X181293809Y-56244819D02*
X181579523Y-56244819D01*
X181579523Y-56244819D02*
X181674761Y-56197200D01*
X181674761Y-56197200D02*
X181722380Y-56149580D01*
X180769999Y-55244819D02*
X180150952Y-55244819D01*
X180150952Y-55244819D02*
X180484285Y-55625771D01*
X180484285Y-55625771D02*
X180341428Y-55625771D01*
X180341428Y-55625771D02*
X180246190Y-55673390D01*
X180246190Y-55673390D02*
X180198571Y-55721009D01*
X180198571Y-55721009D02*
X180150952Y-55816247D01*
X180150952Y-55816247D02*
X180150952Y-56054342D01*
X180150952Y-56054342D02*
X180198571Y-56149580D01*
X180198571Y-56149580D02*
X180246190Y-56197200D01*
X180246190Y-56197200D02*
X180341428Y-56244819D01*
X180341428Y-56244819D02*
X180627142Y-56244819D01*
X180627142Y-56244819D02*
X180722380Y-56197200D01*
X180722380Y-56197200D02*
X180769999Y-56149580D01*
X179817618Y-56244819D02*
X179293809Y-55578152D01*
X179817618Y-55578152D02*
X179293809Y-56244819D01*
X179008094Y-56244819D02*
X178484285Y-55578152D01*
X179008094Y-55578152D02*
X178484285Y-56244819D01*
X178103332Y-56244819D02*
X178103332Y-55244819D01*
X178103332Y-55244819D02*
X177865237Y-55244819D01*
X177865237Y-55244819D02*
X177722380Y-55292438D01*
X177722380Y-55292438D02*
X177627142Y-55387676D01*
X177627142Y-55387676D02*
X177579523Y-55482914D01*
X177579523Y-55482914D02*
X177531904Y-55673390D01*
X177531904Y-55673390D02*
X177531904Y-55816247D01*
X177531904Y-55816247D02*
X177579523Y-56006723D01*
X177579523Y-56006723D02*
X177627142Y-56101961D01*
X177627142Y-56101961D02*
X177722380Y-56197200D01*
X177722380Y-56197200D02*
X177865237Y-56244819D01*
X177865237Y-56244819D02*
X178103332Y-56244819D01*
X176579523Y-55292438D02*
X176674761Y-55244819D01*
X176674761Y-55244819D02*
X176817618Y-55244819D01*
X176817618Y-55244819D02*
X176960475Y-55292438D01*
X176960475Y-55292438D02*
X177055713Y-55387676D01*
X177055713Y-55387676D02*
X177103332Y-55482914D01*
X177103332Y-55482914D02*
X177150951Y-55673390D01*
X177150951Y-55673390D02*
X177150951Y-55816247D01*
X177150951Y-55816247D02*
X177103332Y-56006723D01*
X177103332Y-56006723D02*
X177055713Y-56101961D01*
X177055713Y-56101961D02*
X176960475Y-56197200D01*
X176960475Y-56197200D02*
X176817618Y-56244819D01*
X176817618Y-56244819D02*
X176722380Y-56244819D01*
X176722380Y-56244819D02*
X176579523Y-56197200D01*
X176579523Y-56197200D02*
X176531904Y-56149580D01*
X176531904Y-56149580D02*
X176531904Y-55816247D01*
X176531904Y-55816247D02*
X176722380Y-55816247D01*
X176103332Y-56244819D02*
X176103332Y-55244819D01*
X175531904Y-56244819D02*
X175960475Y-55673390D01*
X175531904Y-55244819D02*
X176103332Y-55816247D01*
D12*
X180841428Y-57831244D02*
X180841428Y-58438387D01*
X180841428Y-58438387D02*
X180805714Y-58509815D01*
X180805714Y-58509815D02*
X180770000Y-58545530D01*
X180770000Y-58545530D02*
X180698571Y-58581244D01*
X180698571Y-58581244D02*
X180555714Y-58581244D01*
X180555714Y-58581244D02*
X180484285Y-58545530D01*
X180484285Y-58545530D02*
X180448571Y-58509815D01*
X180448571Y-58509815D02*
X180412857Y-58438387D01*
X180412857Y-58438387D02*
X180412857Y-57831244D01*
X180127143Y-57831244D02*
X179662857Y-57831244D01*
X179662857Y-57831244D02*
X179912857Y-58116958D01*
X179912857Y-58116958D02*
X179805714Y-58116958D01*
X179805714Y-58116958D02*
X179734286Y-58152672D01*
X179734286Y-58152672D02*
X179698571Y-58188387D01*
X179698571Y-58188387D02*
X179662857Y-58259815D01*
X179662857Y-58259815D02*
X179662857Y-58438387D01*
X179662857Y-58438387D02*
X179698571Y-58509815D01*
X179698571Y-58509815D02*
X179734286Y-58545530D01*
X179734286Y-58545530D02*
X179805714Y-58581244D01*
X179805714Y-58581244D02*
X180020000Y-58581244D01*
X180020000Y-58581244D02*
X180091428Y-58545530D01*
X180091428Y-58545530D02*
X180127143Y-58509815D01*
D10*
X151450476Y-84734819D02*
X151783809Y-84258628D01*
X152021904Y-84734819D02*
X152021904Y-83734819D01*
X152021904Y-83734819D02*
X151640952Y-83734819D01*
X151640952Y-83734819D02*
X151545714Y-83782438D01*
X151545714Y-83782438D02*
X151498095Y-83830057D01*
X151498095Y-83830057D02*
X151450476Y-83925295D01*
X151450476Y-83925295D02*
X151450476Y-84068152D01*
X151450476Y-84068152D02*
X151498095Y-84163390D01*
X151498095Y-84163390D02*
X151545714Y-84211009D01*
X151545714Y-84211009D02*
X151640952Y-84258628D01*
X151640952Y-84258628D02*
X152021904Y-84258628D01*
D11*
X152081428Y-86157149D02*
X152248094Y-85919054D01*
X152367142Y-86157149D02*
X152367142Y-85657149D01*
X152367142Y-85657149D02*
X152176666Y-85657149D01*
X152176666Y-85657149D02*
X152129047Y-85680959D01*
X152129047Y-85680959D02*
X152105237Y-85704768D01*
X152105237Y-85704768D02*
X152081428Y-85752387D01*
X152081428Y-85752387D02*
X152081428Y-85823816D01*
X152081428Y-85823816D02*
X152105237Y-85871435D01*
X152105237Y-85871435D02*
X152129047Y-85895244D01*
X152129047Y-85895244D02*
X152176666Y-85919054D01*
X152176666Y-85919054D02*
X152367142Y-85919054D01*
X151890951Y-85704768D02*
X151867142Y-85680959D01*
X151867142Y-85680959D02*
X151819523Y-85657149D01*
X151819523Y-85657149D02*
X151700475Y-85657149D01*
X151700475Y-85657149D02*
X151652856Y-85680959D01*
X151652856Y-85680959D02*
X151629047Y-85704768D01*
X151629047Y-85704768D02*
X151605237Y-85752387D01*
X151605237Y-85752387D02*
X151605237Y-85800006D01*
X151605237Y-85800006D02*
X151629047Y-85871435D01*
X151629047Y-85871435D02*
X151914761Y-86157149D01*
X151914761Y-86157149D02*
X151605237Y-86157149D01*
X151319523Y-85871435D02*
X151367142Y-85847625D01*
X151367142Y-85847625D02*
X151390952Y-85823816D01*
X151390952Y-85823816D02*
X151414761Y-85776197D01*
X151414761Y-85776197D02*
X151414761Y-85752387D01*
X151414761Y-85752387D02*
X151390952Y-85704768D01*
X151390952Y-85704768D02*
X151367142Y-85680959D01*
X151367142Y-85680959D02*
X151319523Y-85657149D01*
X151319523Y-85657149D02*
X151224285Y-85657149D01*
X151224285Y-85657149D02*
X151176666Y-85680959D01*
X151176666Y-85680959D02*
X151152857Y-85704768D01*
X151152857Y-85704768D02*
X151129047Y-85752387D01*
X151129047Y-85752387D02*
X151129047Y-85776197D01*
X151129047Y-85776197D02*
X151152857Y-85823816D01*
X151152857Y-85823816D02*
X151176666Y-85847625D01*
X151176666Y-85847625D02*
X151224285Y-85871435D01*
X151224285Y-85871435D02*
X151319523Y-85871435D01*
X151319523Y-85871435D02*
X151367142Y-85895244D01*
X151367142Y-85895244D02*
X151390952Y-85919054D01*
X151390952Y-85919054D02*
X151414761Y-85966673D01*
X151414761Y-85966673D02*
X151414761Y-86061911D01*
X151414761Y-86061911D02*
X151390952Y-86109530D01*
X151390952Y-86109530D02*
X151367142Y-86133340D01*
X151367142Y-86133340D02*
X151319523Y-86157149D01*
X151319523Y-86157149D02*
X151224285Y-86157149D01*
X151224285Y-86157149D02*
X151176666Y-86133340D01*
X151176666Y-86133340D02*
X151152857Y-86109530D01*
X151152857Y-86109530D02*
X151129047Y-86061911D01*
X151129047Y-86061911D02*
X151129047Y-85966673D01*
X151129047Y-85966673D02*
X151152857Y-85919054D01*
X151152857Y-85919054D02*
X151176666Y-85895244D01*
X151176666Y-85895244D02*
X151224285Y-85871435D01*
D10*
X176070475Y-53514819D02*
X176070475Y-52514819D01*
X175594285Y-53514819D02*
X175594285Y-52514819D01*
X175594285Y-52514819D02*
X175022857Y-53514819D01*
X175022857Y-53514819D02*
X175022857Y-52514819D01*
X174594285Y-53229104D02*
X174118095Y-53229104D01*
X174689523Y-53514819D02*
X174356190Y-52514819D01*
X174356190Y-52514819D02*
X174022857Y-53514819D01*
X173784761Y-52514819D02*
X173165714Y-52514819D01*
X173165714Y-52514819D02*
X173499047Y-52895771D01*
X173499047Y-52895771D02*
X173356190Y-52895771D01*
X173356190Y-52895771D02*
X173260952Y-52943390D01*
X173260952Y-52943390D02*
X173213333Y-52991009D01*
X173213333Y-52991009D02*
X173165714Y-53086247D01*
X173165714Y-53086247D02*
X173165714Y-53324342D01*
X173165714Y-53324342D02*
X173213333Y-53419580D01*
X173213333Y-53419580D02*
X173260952Y-53467200D01*
X173260952Y-53467200D02*
X173356190Y-53514819D01*
X173356190Y-53514819D02*
X173641904Y-53514819D01*
X173641904Y-53514819D02*
X173737142Y-53467200D01*
X173737142Y-53467200D02*
X173784761Y-53419580D01*
X172832380Y-52514819D02*
X172213333Y-52514819D01*
X172213333Y-52514819D02*
X172546666Y-52895771D01*
X172546666Y-52895771D02*
X172403809Y-52895771D01*
X172403809Y-52895771D02*
X172308571Y-52943390D01*
X172308571Y-52943390D02*
X172260952Y-52991009D01*
X172260952Y-52991009D02*
X172213333Y-53086247D01*
X172213333Y-53086247D02*
X172213333Y-53324342D01*
X172213333Y-53324342D02*
X172260952Y-53419580D01*
X172260952Y-53419580D02*
X172308571Y-53467200D01*
X172308571Y-53467200D02*
X172403809Y-53514819D01*
X172403809Y-53514819D02*
X172689523Y-53514819D01*
X172689523Y-53514819D02*
X172784761Y-53467200D01*
X172784761Y-53467200D02*
X172832380Y-53419580D01*
X171879999Y-52514819D02*
X171260952Y-52514819D01*
X171260952Y-52514819D02*
X171594285Y-52895771D01*
X171594285Y-52895771D02*
X171451428Y-52895771D01*
X171451428Y-52895771D02*
X171356190Y-52943390D01*
X171356190Y-52943390D02*
X171308571Y-52991009D01*
X171308571Y-52991009D02*
X171260952Y-53086247D01*
X171260952Y-53086247D02*
X171260952Y-53324342D01*
X171260952Y-53324342D02*
X171308571Y-53419580D01*
X171308571Y-53419580D02*
X171356190Y-53467200D01*
X171356190Y-53467200D02*
X171451428Y-53514819D01*
X171451428Y-53514819D02*
X171737142Y-53514819D01*
X171737142Y-53514819D02*
X171832380Y-53467200D01*
X171832380Y-53467200D02*
X171879999Y-53419580D01*
X170927618Y-53514819D02*
X170403809Y-52848152D01*
X170927618Y-52848152D02*
X170403809Y-53514819D01*
X170118094Y-53514819D02*
X169594285Y-52848152D01*
X170118094Y-52848152D02*
X169594285Y-53514819D01*
X169213332Y-53514819D02*
X169213332Y-52514819D01*
X169213332Y-52514819D02*
X168975237Y-52514819D01*
X168975237Y-52514819D02*
X168832380Y-52562438D01*
X168832380Y-52562438D02*
X168737142Y-52657676D01*
X168737142Y-52657676D02*
X168689523Y-52752914D01*
X168689523Y-52752914D02*
X168641904Y-52943390D01*
X168641904Y-52943390D02*
X168641904Y-53086247D01*
X168641904Y-53086247D02*
X168689523Y-53276723D01*
X168689523Y-53276723D02*
X168737142Y-53371961D01*
X168737142Y-53371961D02*
X168832380Y-53467200D01*
X168832380Y-53467200D02*
X168975237Y-53514819D01*
X168975237Y-53514819D02*
X169213332Y-53514819D01*
X167689523Y-52562438D02*
X167784761Y-52514819D01*
X167784761Y-52514819D02*
X167927618Y-52514819D01*
X167927618Y-52514819D02*
X168070475Y-52562438D01*
X168070475Y-52562438D02*
X168165713Y-52657676D01*
X168165713Y-52657676D02*
X168213332Y-52752914D01*
X168213332Y-52752914D02*
X168260951Y-52943390D01*
X168260951Y-52943390D02*
X168260951Y-53086247D01*
X168260951Y-53086247D02*
X168213332Y-53276723D01*
X168213332Y-53276723D02*
X168165713Y-53371961D01*
X168165713Y-53371961D02*
X168070475Y-53467200D01*
X168070475Y-53467200D02*
X167927618Y-53514819D01*
X167927618Y-53514819D02*
X167832380Y-53514819D01*
X167832380Y-53514819D02*
X167689523Y-53467200D01*
X167689523Y-53467200D02*
X167641904Y-53419580D01*
X167641904Y-53419580D02*
X167641904Y-53086247D01*
X167641904Y-53086247D02*
X167832380Y-53086247D01*
X167213332Y-53514819D02*
X167213332Y-52514819D01*
X166641904Y-53514819D02*
X167070475Y-52943390D01*
X166641904Y-52514819D02*
X167213332Y-53086247D01*
D12*
X171951428Y-55101244D02*
X171951428Y-55708387D01*
X171951428Y-55708387D02*
X171915714Y-55779815D01*
X171915714Y-55779815D02*
X171880000Y-55815530D01*
X171880000Y-55815530D02*
X171808571Y-55851244D01*
X171808571Y-55851244D02*
X171665714Y-55851244D01*
X171665714Y-55851244D02*
X171594285Y-55815530D01*
X171594285Y-55815530D02*
X171558571Y-55779815D01*
X171558571Y-55779815D02*
X171522857Y-55708387D01*
X171522857Y-55708387D02*
X171522857Y-55101244D01*
X171201428Y-55172672D02*
X171165714Y-55136958D01*
X171165714Y-55136958D02*
X171094286Y-55101244D01*
X171094286Y-55101244D02*
X170915714Y-55101244D01*
X170915714Y-55101244D02*
X170844286Y-55136958D01*
X170844286Y-55136958D02*
X170808571Y-55172672D01*
X170808571Y-55172672D02*
X170772857Y-55244101D01*
X170772857Y-55244101D02*
X170772857Y-55315530D01*
X170772857Y-55315530D02*
X170808571Y-55422672D01*
X170808571Y-55422672D02*
X171237143Y-55851244D01*
X171237143Y-55851244D02*
X170772857Y-55851244D01*
D10*
X123629580Y-67009523D02*
X123677200Y-66961904D01*
X123677200Y-66961904D02*
X123724819Y-66819047D01*
X123724819Y-66819047D02*
X123724819Y-66723809D01*
X123724819Y-66723809D02*
X123677200Y-66580952D01*
X123677200Y-66580952D02*
X123581961Y-66485714D01*
X123581961Y-66485714D02*
X123486723Y-66438095D01*
X123486723Y-66438095D02*
X123296247Y-66390476D01*
X123296247Y-66390476D02*
X123153390Y-66390476D01*
X123153390Y-66390476D02*
X122962914Y-66438095D01*
X122962914Y-66438095D02*
X122867676Y-66485714D01*
X122867676Y-66485714D02*
X122772438Y-66580952D01*
X122772438Y-66580952D02*
X122724819Y-66723809D01*
X122724819Y-66723809D02*
X122724819Y-66819047D01*
X122724819Y-66819047D02*
X122772438Y-66961904D01*
X122772438Y-66961904D02*
X122820057Y-67009523D01*
D11*
X125129530Y-66378571D02*
X125153340Y-66354762D01*
X125153340Y-66354762D02*
X125177149Y-66283333D01*
X125177149Y-66283333D02*
X125177149Y-66235714D01*
X125177149Y-66235714D02*
X125153340Y-66164286D01*
X125153340Y-66164286D02*
X125105720Y-66116667D01*
X125105720Y-66116667D02*
X125058101Y-66092857D01*
X125058101Y-66092857D02*
X124962863Y-66069048D01*
X124962863Y-66069048D02*
X124891435Y-66069048D01*
X124891435Y-66069048D02*
X124796197Y-66092857D01*
X124796197Y-66092857D02*
X124748578Y-66116667D01*
X124748578Y-66116667D02*
X124700959Y-66164286D01*
X124700959Y-66164286D02*
X124677149Y-66235714D01*
X124677149Y-66235714D02*
X124677149Y-66283333D01*
X124677149Y-66283333D02*
X124700959Y-66354762D01*
X124700959Y-66354762D02*
X124724768Y-66378571D01*
X125177149Y-66854762D02*
X125177149Y-66569048D01*
X125177149Y-66711905D02*
X124677149Y-66711905D01*
X124677149Y-66711905D02*
X124748578Y-66664286D01*
X124748578Y-66664286D02*
X124796197Y-66616667D01*
X124796197Y-66616667D02*
X124820006Y-66569048D01*
X124843816Y-67283333D02*
X125177149Y-67283333D01*
X124653340Y-67164285D02*
X125010482Y-67045238D01*
X125010482Y-67045238D02*
X125010482Y-67354761D01*
D10*
X141790476Y-95074819D02*
X142123809Y-94598628D01*
X142361904Y-95074819D02*
X142361904Y-94074819D01*
X142361904Y-94074819D02*
X141980952Y-94074819D01*
X141980952Y-94074819D02*
X141885714Y-94122438D01*
X141885714Y-94122438D02*
X141838095Y-94170057D01*
X141838095Y-94170057D02*
X141790476Y-94265295D01*
X141790476Y-94265295D02*
X141790476Y-94408152D01*
X141790476Y-94408152D02*
X141838095Y-94503390D01*
X141838095Y-94503390D02*
X141885714Y-94551009D01*
X141885714Y-94551009D02*
X141980952Y-94598628D01*
X141980952Y-94598628D02*
X142361904Y-94598628D01*
D11*
X142421428Y-93197149D02*
X142588094Y-92959054D01*
X142707142Y-93197149D02*
X142707142Y-92697149D01*
X142707142Y-92697149D02*
X142516666Y-92697149D01*
X142516666Y-92697149D02*
X142469047Y-92720959D01*
X142469047Y-92720959D02*
X142445237Y-92744768D01*
X142445237Y-92744768D02*
X142421428Y-92792387D01*
X142421428Y-92792387D02*
X142421428Y-92863816D01*
X142421428Y-92863816D02*
X142445237Y-92911435D01*
X142445237Y-92911435D02*
X142469047Y-92935244D01*
X142469047Y-92935244D02*
X142516666Y-92959054D01*
X142516666Y-92959054D02*
X142707142Y-92959054D01*
X142254761Y-92697149D02*
X141945237Y-92697149D01*
X141945237Y-92697149D02*
X142111904Y-92887625D01*
X142111904Y-92887625D02*
X142040475Y-92887625D01*
X142040475Y-92887625D02*
X141992856Y-92911435D01*
X141992856Y-92911435D02*
X141969047Y-92935244D01*
X141969047Y-92935244D02*
X141945237Y-92982863D01*
X141945237Y-92982863D02*
X141945237Y-93101911D01*
X141945237Y-93101911D02*
X141969047Y-93149530D01*
X141969047Y-93149530D02*
X141992856Y-93173340D01*
X141992856Y-93173340D02*
X142040475Y-93197149D01*
X142040475Y-93197149D02*
X142183332Y-93197149D01*
X142183332Y-93197149D02*
X142230951Y-93173340D01*
X142230951Y-93173340D02*
X142254761Y-93149530D01*
X141635714Y-92697149D02*
X141588095Y-92697149D01*
X141588095Y-92697149D02*
X141540476Y-92720959D01*
X141540476Y-92720959D02*
X141516666Y-92744768D01*
X141516666Y-92744768D02*
X141492857Y-92792387D01*
X141492857Y-92792387D02*
X141469047Y-92887625D01*
X141469047Y-92887625D02*
X141469047Y-93006673D01*
X141469047Y-93006673D02*
X141492857Y-93101911D01*
X141492857Y-93101911D02*
X141516666Y-93149530D01*
X141516666Y-93149530D02*
X141540476Y-93173340D01*
X141540476Y-93173340D02*
X141588095Y-93197149D01*
X141588095Y-93197149D02*
X141635714Y-93197149D01*
X141635714Y-93197149D02*
X141683333Y-93173340D01*
X141683333Y-93173340D02*
X141707142Y-93149530D01*
X141707142Y-93149530D02*
X141730952Y-93101911D01*
X141730952Y-93101911D02*
X141754761Y-93006673D01*
X141754761Y-93006673D02*
X141754761Y-92887625D01*
X141754761Y-92887625D02*
X141730952Y-92792387D01*
X141730952Y-92792387D02*
X141707142Y-92744768D01*
X141707142Y-92744768D02*
X141683333Y-92720959D01*
X141683333Y-92720959D02*
X141635714Y-92697149D01*
D10*
X187804819Y-61459523D02*
X187328628Y-61126190D01*
X187804819Y-60888095D02*
X186804819Y-60888095D01*
X186804819Y-60888095D02*
X186804819Y-61269047D01*
X186804819Y-61269047D02*
X186852438Y-61364285D01*
X186852438Y-61364285D02*
X186900057Y-61411904D01*
X186900057Y-61411904D02*
X186995295Y-61459523D01*
X186995295Y-61459523D02*
X187138152Y-61459523D01*
X187138152Y-61459523D02*
X187233390Y-61411904D01*
X187233390Y-61411904D02*
X187281009Y-61364285D01*
X187281009Y-61364285D02*
X187328628Y-61269047D01*
X187328628Y-61269047D02*
X187328628Y-60888095D01*
D11*
X189227149Y-60828571D02*
X188989054Y-60661905D01*
X189227149Y-60542857D02*
X188727149Y-60542857D01*
X188727149Y-60542857D02*
X188727149Y-60733333D01*
X188727149Y-60733333D02*
X188750959Y-60780952D01*
X188750959Y-60780952D02*
X188774768Y-60804762D01*
X188774768Y-60804762D02*
X188822387Y-60828571D01*
X188822387Y-60828571D02*
X188893816Y-60828571D01*
X188893816Y-60828571D02*
X188941435Y-60804762D01*
X188941435Y-60804762D02*
X188965244Y-60780952D01*
X188965244Y-60780952D02*
X188989054Y-60733333D01*
X188989054Y-60733333D02*
X188989054Y-60542857D01*
X188774768Y-61019048D02*
X188750959Y-61042857D01*
X188750959Y-61042857D02*
X188727149Y-61090476D01*
X188727149Y-61090476D02*
X188727149Y-61209524D01*
X188727149Y-61209524D02*
X188750959Y-61257143D01*
X188750959Y-61257143D02*
X188774768Y-61280952D01*
X188774768Y-61280952D02*
X188822387Y-61304762D01*
X188822387Y-61304762D02*
X188870006Y-61304762D01*
X188870006Y-61304762D02*
X188941435Y-61280952D01*
X188941435Y-61280952D02*
X189227149Y-60995238D01*
X189227149Y-60995238D02*
X189227149Y-61304762D01*
X188893816Y-61733333D02*
X189227149Y-61733333D01*
X188703340Y-61614285D02*
X189060482Y-61495238D01*
X189060482Y-61495238D02*
X189060482Y-61804761D01*
D10*
X154319580Y-54969523D02*
X154367200Y-54921904D01*
X154367200Y-54921904D02*
X154414819Y-54779047D01*
X154414819Y-54779047D02*
X154414819Y-54683809D01*
X154414819Y-54683809D02*
X154367200Y-54540952D01*
X154367200Y-54540952D02*
X154271961Y-54445714D01*
X154271961Y-54445714D02*
X154176723Y-54398095D01*
X154176723Y-54398095D02*
X153986247Y-54350476D01*
X153986247Y-54350476D02*
X153843390Y-54350476D01*
X153843390Y-54350476D02*
X153652914Y-54398095D01*
X153652914Y-54398095D02*
X153557676Y-54445714D01*
X153557676Y-54445714D02*
X153462438Y-54540952D01*
X153462438Y-54540952D02*
X153414819Y-54683809D01*
X153414819Y-54683809D02*
X153414819Y-54779047D01*
X153414819Y-54779047D02*
X153462438Y-54921904D01*
X153462438Y-54921904D02*
X153510057Y-54969523D01*
D11*
X152459530Y-54576666D02*
X152483340Y-54552857D01*
X152483340Y-54552857D02*
X152507149Y-54481428D01*
X152507149Y-54481428D02*
X152507149Y-54433809D01*
X152507149Y-54433809D02*
X152483340Y-54362381D01*
X152483340Y-54362381D02*
X152435720Y-54314762D01*
X152435720Y-54314762D02*
X152388101Y-54290952D01*
X152388101Y-54290952D02*
X152292863Y-54267143D01*
X152292863Y-54267143D02*
X152221435Y-54267143D01*
X152221435Y-54267143D02*
X152126197Y-54290952D01*
X152126197Y-54290952D02*
X152078578Y-54314762D01*
X152078578Y-54314762D02*
X152030959Y-54362381D01*
X152030959Y-54362381D02*
X152007149Y-54433809D01*
X152007149Y-54433809D02*
X152007149Y-54481428D01*
X152007149Y-54481428D02*
X152030959Y-54552857D01*
X152030959Y-54552857D02*
X152054768Y-54576666D01*
X152007149Y-55029047D02*
X152007149Y-54790952D01*
X152007149Y-54790952D02*
X152245244Y-54767143D01*
X152245244Y-54767143D02*
X152221435Y-54790952D01*
X152221435Y-54790952D02*
X152197625Y-54838571D01*
X152197625Y-54838571D02*
X152197625Y-54957619D01*
X152197625Y-54957619D02*
X152221435Y-55005238D01*
X152221435Y-55005238D02*
X152245244Y-55029047D01*
X152245244Y-55029047D02*
X152292863Y-55052857D01*
X152292863Y-55052857D02*
X152411911Y-55052857D01*
X152411911Y-55052857D02*
X152459530Y-55029047D01*
X152459530Y-55029047D02*
X152483340Y-55005238D01*
X152483340Y-55005238D02*
X152507149Y-54957619D01*
X152507149Y-54957619D02*
X152507149Y-54838571D01*
X152507149Y-54838571D02*
X152483340Y-54790952D01*
X152483340Y-54790952D02*
X152459530Y-54767143D01*
D10*
X165452975Y-53679819D02*
X165452975Y-52679819D01*
X164976785Y-53679819D02*
X164976785Y-52679819D01*
X164976785Y-52679819D02*
X164405357Y-53679819D01*
X164405357Y-53679819D02*
X164405357Y-52679819D01*
X163976785Y-53394104D02*
X163500595Y-53394104D01*
X164072023Y-53679819D02*
X163738690Y-52679819D01*
X163738690Y-52679819D02*
X163405357Y-53679819D01*
X163167261Y-52679819D02*
X162548214Y-52679819D01*
X162548214Y-52679819D02*
X162881547Y-53060771D01*
X162881547Y-53060771D02*
X162738690Y-53060771D01*
X162738690Y-53060771D02*
X162643452Y-53108390D01*
X162643452Y-53108390D02*
X162595833Y-53156009D01*
X162595833Y-53156009D02*
X162548214Y-53251247D01*
X162548214Y-53251247D02*
X162548214Y-53489342D01*
X162548214Y-53489342D02*
X162595833Y-53584580D01*
X162595833Y-53584580D02*
X162643452Y-53632200D01*
X162643452Y-53632200D02*
X162738690Y-53679819D01*
X162738690Y-53679819D02*
X163024404Y-53679819D01*
X163024404Y-53679819D02*
X163119642Y-53632200D01*
X163119642Y-53632200D02*
X163167261Y-53584580D01*
X162214880Y-52679819D02*
X161595833Y-52679819D01*
X161595833Y-52679819D02*
X161929166Y-53060771D01*
X161929166Y-53060771D02*
X161786309Y-53060771D01*
X161786309Y-53060771D02*
X161691071Y-53108390D01*
X161691071Y-53108390D02*
X161643452Y-53156009D01*
X161643452Y-53156009D02*
X161595833Y-53251247D01*
X161595833Y-53251247D02*
X161595833Y-53489342D01*
X161595833Y-53489342D02*
X161643452Y-53584580D01*
X161643452Y-53584580D02*
X161691071Y-53632200D01*
X161691071Y-53632200D02*
X161786309Y-53679819D01*
X161786309Y-53679819D02*
X162072023Y-53679819D01*
X162072023Y-53679819D02*
X162167261Y-53632200D01*
X162167261Y-53632200D02*
X162214880Y-53584580D01*
X161262499Y-52679819D02*
X160643452Y-52679819D01*
X160643452Y-52679819D02*
X160976785Y-53060771D01*
X160976785Y-53060771D02*
X160833928Y-53060771D01*
X160833928Y-53060771D02*
X160738690Y-53108390D01*
X160738690Y-53108390D02*
X160691071Y-53156009D01*
X160691071Y-53156009D02*
X160643452Y-53251247D01*
X160643452Y-53251247D02*
X160643452Y-53489342D01*
X160643452Y-53489342D02*
X160691071Y-53584580D01*
X160691071Y-53584580D02*
X160738690Y-53632200D01*
X160738690Y-53632200D02*
X160833928Y-53679819D01*
X160833928Y-53679819D02*
X161119642Y-53679819D01*
X161119642Y-53679819D02*
X161214880Y-53632200D01*
X161214880Y-53632200D02*
X161262499Y-53584580D01*
X160310118Y-53679819D02*
X159786309Y-53013152D01*
X160310118Y-53013152D02*
X159786309Y-53679819D01*
X159500594Y-53679819D02*
X158976785Y-53013152D01*
X159500594Y-53013152D02*
X158976785Y-53679819D01*
X158595832Y-53679819D02*
X158595832Y-52679819D01*
X158595832Y-52679819D02*
X158357737Y-52679819D01*
X158357737Y-52679819D02*
X158214880Y-52727438D01*
X158214880Y-52727438D02*
X158119642Y-52822676D01*
X158119642Y-52822676D02*
X158072023Y-52917914D01*
X158072023Y-52917914D02*
X158024404Y-53108390D01*
X158024404Y-53108390D02*
X158024404Y-53251247D01*
X158024404Y-53251247D02*
X158072023Y-53441723D01*
X158072023Y-53441723D02*
X158119642Y-53536961D01*
X158119642Y-53536961D02*
X158214880Y-53632200D01*
X158214880Y-53632200D02*
X158357737Y-53679819D01*
X158357737Y-53679819D02*
X158595832Y-53679819D01*
X157072023Y-52727438D02*
X157167261Y-52679819D01*
X157167261Y-52679819D02*
X157310118Y-52679819D01*
X157310118Y-52679819D02*
X157452975Y-52727438D01*
X157452975Y-52727438D02*
X157548213Y-52822676D01*
X157548213Y-52822676D02*
X157595832Y-52917914D01*
X157595832Y-52917914D02*
X157643451Y-53108390D01*
X157643451Y-53108390D02*
X157643451Y-53251247D01*
X157643451Y-53251247D02*
X157595832Y-53441723D01*
X157595832Y-53441723D02*
X157548213Y-53536961D01*
X157548213Y-53536961D02*
X157452975Y-53632200D01*
X157452975Y-53632200D02*
X157310118Y-53679819D01*
X157310118Y-53679819D02*
X157214880Y-53679819D01*
X157214880Y-53679819D02*
X157072023Y-53632200D01*
X157072023Y-53632200D02*
X157024404Y-53584580D01*
X157024404Y-53584580D02*
X157024404Y-53251247D01*
X157024404Y-53251247D02*
X157214880Y-53251247D01*
X156595832Y-53679819D02*
X156595832Y-52679819D01*
X156024404Y-53679819D02*
X156452975Y-53108390D01*
X156024404Y-52679819D02*
X156595832Y-53251247D01*
D12*
X161333928Y-55266244D02*
X161333928Y-55873387D01*
X161333928Y-55873387D02*
X161298214Y-55944815D01*
X161298214Y-55944815D02*
X161262500Y-55980530D01*
X161262500Y-55980530D02*
X161191071Y-56016244D01*
X161191071Y-56016244D02*
X161048214Y-56016244D01*
X161048214Y-56016244D02*
X160976785Y-55980530D01*
X160976785Y-55980530D02*
X160941071Y-55944815D01*
X160941071Y-55944815D02*
X160905357Y-55873387D01*
X160905357Y-55873387D02*
X160905357Y-55266244D01*
X160155357Y-56016244D02*
X160583928Y-56016244D01*
X160369643Y-56016244D02*
X160369643Y-55266244D01*
X160369643Y-55266244D02*
X160441071Y-55373387D01*
X160441071Y-55373387D02*
X160512500Y-55444815D01*
X160512500Y-55444815D02*
X160583928Y-55480530D01*
D13*
%TO.C,C11*%
X128735000Y-76260000D02*
X129985000Y-76260000D01*
X128735000Y-78260000D02*
X128735000Y-76260000D01*
X129985000Y-76260000D02*
X129985000Y-78260000D01*
X129985000Y-78260000D02*
X128735000Y-78260000D01*
%TO.C,R25*%
X188175000Y-69690000D02*
X189425000Y-69690000D01*
X188175000Y-71690000D02*
X188175000Y-69690000D01*
X189425000Y-69690000D02*
X189425000Y-71690000D01*
X189425000Y-71690000D02*
X188175000Y-71690000D01*
%TO.C,R21*%
X159790000Y-58715000D02*
X161790000Y-58715000D01*
X159790000Y-59965000D02*
X159790000Y-58715000D01*
X161790000Y-58715000D02*
X161790000Y-59965000D01*
X161790000Y-59965000D02*
X159790000Y-59965000D01*
%TO.C,U12*%
X139105000Y-74925000D02*
X142030000Y-74925000D01*
X139105000Y-84825000D02*
X139105000Y-74925000D01*
X142030000Y-74925000D02*
X143005000Y-75900000D01*
X143005000Y-75900000D02*
X143005000Y-84825000D01*
X143005000Y-84825000D02*
X139105000Y-84825000D01*
%TO.C,R26*%
X182490000Y-76065000D02*
X184490000Y-76065000D01*
X182490000Y-77315000D02*
X182490000Y-76065000D01*
X184490000Y-76065000D02*
X184490000Y-77315000D01*
X184490000Y-77315000D02*
X182490000Y-77315000D01*
%TO.C,R27*%
X186785000Y-86420000D02*
X188035000Y-86420000D01*
X186785000Y-88420000D02*
X186785000Y-86420000D01*
X188035000Y-86420000D02*
X188035000Y-88420000D01*
X188035000Y-88420000D02*
X186785000Y-88420000D01*
%TO.C,C7*%
X183247500Y-67635000D02*
X185247500Y-67635000D01*
X183247500Y-68885000D02*
X183247500Y-67635000D01*
X185247500Y-67635000D02*
X185247500Y-68885000D01*
X185247500Y-68885000D02*
X183247500Y-68885000D01*
%TO.C,C8*%
X181580000Y-83995000D02*
X183580000Y-83995000D01*
X181580000Y-85245000D02*
X181580000Y-83995000D01*
X183580000Y-83995000D02*
X183580000Y-85245000D01*
X183580000Y-85245000D02*
X181580000Y-85245000D01*
%TO.C,R29*%
X136180000Y-92335000D02*
X138180000Y-92335000D01*
X136180000Y-93585000D02*
X136180000Y-92335000D01*
X138180000Y-92335000D02*
X138180000Y-93585000D01*
X138180000Y-93585000D02*
X136180000Y-93585000D01*
%TO.C,U13*%
X139095000Y-57685000D02*
X142020000Y-57685000D01*
X139095000Y-67585000D02*
X139095000Y-57685000D01*
X142020000Y-57685000D02*
X142995000Y-58660000D01*
X142995000Y-58660000D02*
X142995000Y-67585000D01*
X142995000Y-67585000D02*
X139095000Y-67585000D01*
%TO.C,U11*%
X170275000Y-69520000D02*
X171250000Y-68545000D01*
X170275000Y-72445000D02*
X170275000Y-69520000D01*
X171250000Y-68545000D02*
X180175000Y-68545000D01*
X180175000Y-68545000D02*
X180175000Y-72445000D01*
X180175000Y-72445000D02*
X170275000Y-72445000D01*
%TO.C,U10*%
X162205000Y-82900000D02*
X163180000Y-81925000D01*
X162205000Y-85825000D02*
X162205000Y-82900000D01*
X163180000Y-81925000D02*
X172105000Y-81925000D01*
X172105000Y-81925000D02*
X172105000Y-85825000D01*
X172105000Y-85825000D02*
X162205000Y-85825000D01*
%TO.C,U8*%
X149780000Y-89520000D02*
X152030000Y-89520000D01*
X149780000Y-92520000D02*
X149780000Y-89520000D01*
X152030000Y-89520000D02*
X152780000Y-90270000D01*
X152780000Y-90270000D02*
X152780000Y-92520000D01*
X152780000Y-92520000D02*
X149780000Y-92520000D01*
%TO.C,R22*%
X170320000Y-58555000D02*
X172320000Y-58555000D01*
X170320000Y-59805000D02*
X170320000Y-58555000D01*
X172320000Y-58555000D02*
X172320000Y-59805000D01*
X172320000Y-59805000D02*
X170320000Y-59805000D01*
%TO.C,C9*%
X144340000Y-89095000D02*
X146340000Y-89095000D01*
X144340000Y-90345000D02*
X144340000Y-89095000D01*
X146340000Y-89095000D02*
X146340000Y-90345000D01*
X146340000Y-90345000D02*
X144340000Y-90345000D01*
%TO.C,C6*%
X184830000Y-54445000D02*
X186830000Y-54445000D01*
X184830000Y-55695000D02*
X184830000Y-54445000D01*
X186830000Y-54445000D02*
X186830000Y-55695000D01*
X186830000Y-55695000D02*
X184830000Y-55695000D01*
%TO.C,R23*%
X179180000Y-61755000D02*
X181180000Y-61755000D01*
X179180000Y-63005000D02*
X179180000Y-61755000D01*
X181180000Y-61755000D02*
X181180000Y-63005000D01*
X181180000Y-63005000D02*
X179180000Y-63005000D01*
%TO.C,U3*%
X178770000Y-56740000D02*
X181770000Y-56740000D01*
X178770000Y-58990000D02*
X178770000Y-56740000D01*
X179520000Y-59740000D02*
X178770000Y-58990000D01*
X181770000Y-56740000D02*
X181770000Y-59740000D01*
X181770000Y-59740000D02*
X179520000Y-59740000D01*
%TO.C,R28*%
X150760000Y-85305000D02*
X152760000Y-85305000D01*
X150760000Y-86555000D02*
X150760000Y-85305000D01*
X152760000Y-85305000D02*
X152760000Y-86555000D01*
X152760000Y-86555000D02*
X150760000Y-86555000D01*
%TO.C,U2*%
X169880000Y-54010000D02*
X172880000Y-54010000D01*
X169880000Y-56260000D02*
X169880000Y-54010000D01*
X170630000Y-57010000D02*
X169880000Y-56260000D01*
X172880000Y-54010000D02*
X172880000Y-57010000D01*
X172880000Y-57010000D02*
X170630000Y-57010000D01*
%TO.C,C14*%
X124325000Y-65700000D02*
X125575000Y-65700000D01*
X124325000Y-67700000D02*
X124325000Y-65700000D01*
X125575000Y-65700000D02*
X125575000Y-67700000D01*
X125575000Y-67700000D02*
X124325000Y-67700000D01*
%TO.C,R30*%
X141100000Y-92345000D02*
X143100000Y-92345000D01*
X141100000Y-93595000D02*
X141100000Y-92345000D01*
X143100000Y-92345000D02*
X143100000Y-93595000D01*
X143100000Y-93595000D02*
X141100000Y-93595000D01*
%TO.C,R24*%
X188375000Y-60150000D02*
X189625000Y-60150000D01*
X188375000Y-62150000D02*
X188375000Y-60150000D01*
X189625000Y-60150000D02*
X189625000Y-62150000D01*
X189625000Y-62150000D02*
X188375000Y-62150000D01*
%TO.C,C5*%
X151655000Y-53660000D02*
X152905000Y-53660000D01*
X151655000Y-55660000D02*
X151655000Y-53660000D01*
X152905000Y-53660000D02*
X152905000Y-55660000D01*
X152905000Y-55660000D02*
X151655000Y-55660000D01*
%TO.C,U1*%
X159262500Y-54175000D02*
X162262500Y-54175000D01*
X159262500Y-56425000D02*
X159262500Y-54175000D01*
X160012500Y-57175000D02*
X159262500Y-56425000D01*
X162262500Y-54175000D02*
X162262500Y-57175000D01*
X162262500Y-57175000D02*
X160012500Y-57175000D01*
%TD*%
M02*
