M48
; DRILL file {KiCad 8.0.8} date 2025-07-24T20:19:40+0300
; FORMAT={-:-/ absolute / inch / decimal}
; #@! TF.CreationDate,2025-07-24T20:19:40+03:00
; #@! TF.GenerationSoftware,Kicad,Pcbnew,8.0.8
; #@! TF.FileFunction,Plated,1,2,PTH
FMAT,2
INCH
; #@! TA.AperFunction,Plated,PTH,ViaDrill
T1C0.0157
; #@! TA.AperFunction,Plated,PTH,ComponentDrill
T2C0.0315
; #@! TA.AperFunction,Plated,PTH,ComponentDrill
T3C0.0394
%
G90
G05
T1
X4.2815Y-2.2484
X4.3142Y-2.0654
X4.3264Y-2.1492
X4.4087Y-2.0898
X4.4102Y-2.3713
X4.4886Y-2.235
X4.4906Y-2.3783
X4.535Y-3.5673
X4.5752Y-2.7921
X4.6421Y-2.2976
X4.6634Y-3.2256
X4.7299Y-2.1669
X4.7823Y-2.2067
X4.8079Y-2.2429
X4.8339Y-2.6177
X4.8598Y-2.422
X4.8886Y-2.7429
X4.8933Y-2.4366
X4.9295Y-2.1669
X4.9303Y-2.4169
X4.9535Y-2.4657
X4.9705Y-2.7441
X4.9799Y-2.4429
X4.9799Y-3.0693
X4.9874Y-2.113
X5.0Y-2.2504
X5.0026Y-2.5262
X5.0386Y-3.5287
X5.0441Y-2.45
X5.05Y-2.3268
X5.0504Y-2.1358
X5.0563Y-2.265
X5.0787Y-2.8449
X5.0921Y-2.1445
X5.111Y-2.8654
X5.1327Y-2.1488
X5.1622Y-2.5354
X5.1657Y-2.4878
X5.1697Y-3.3505
X5.1996Y-2.3587
X5.2008Y-2.1449
X5.2244Y-3.1193
X5.2299Y-2.4035
X5.2335Y-2.2713
X5.2492Y-2.4413
X5.2524Y-2.2354
X5.2681Y-2.863
X5.2878Y-2.5906
X5.2957Y-3.2142
X5.2969Y-3.2638
X5.3094Y-2.4823
X5.3134Y-3.1193
X5.3378Y-2.1142
X5.339Y-2.2492
X5.3555Y-2.6815
X5.3567Y-2.7276
X5.3575Y-2.4409
X5.3697Y-2.9177
X5.3756Y-2.8752
X5.3791Y-3.2197
X5.3819Y-2.5917
X5.387Y-2.3917
X5.3894Y-2.2276
X5.3953Y-3.0701
X5.4252Y-3.4492
X5.4287Y-2.2193
X5.4307Y-2.7957
X5.5209Y-3.528
X5.5276Y-2.3217
X5.528Y-2.1193
X5.537Y-3.5941
X5.5528Y-2.4488
X5.572Y-3.4228
X5.5764Y-3.7295
X5.5953Y-2.1181
X5.6028Y-3.5323
X5.6031Y-2.7484
X5.639Y-2.8177
X5.6701Y-3.3961
X5.698Y-3.6622
X5.7083Y-2.7173
X5.711Y-3.7331
X5.7118Y-3.3929
X5.7272Y-2.4929
X5.7272Y-2.5909
X5.728Y-2.3933
X5.7354Y-3.324
X5.7409Y-3.1878
X5.7476Y-3.0551
X5.7492Y-2.4252
X5.7673Y-2.9945
X5.7697Y-2.2937
X5.7768Y-2.878
X5.789Y-3.5929
X5.7925Y-2.3823
X5.8087Y-3.3937
X5.8161Y-3.5031
X5.8728Y-3.4862
X5.8831Y-3.4169
X5.9028Y-2.4465
X5.9114Y-2.4106
X5.9407Y-3.4785
X5.9744Y-3.5071
X5.9756Y-3.45
X6.0213Y-3.6701
X6.0677Y-3.437
X6.0827Y-3.7331
X6.0909Y-2.3063
X6.0949Y-3.622
X6.0961Y-3.5264
X6.1031Y-2.2205
X6.1268Y-3.5957
X6.1583Y-3.5039
X6.185Y-3.5327
X6.2Y-3.7248
X6.2071Y-3.4594
X6.2232Y-3.3874
X6.2402Y-3.6311
X6.3295Y-3.2185
X6.4181Y-3.4677
X6.4598Y-2.2902
X6.4894Y-3.2657
X6.5197Y-3.0425
X6.5264Y-2.2972
X6.546Y-2.1474
X6.5476Y-3.137
X6.5563Y-3.3343
X6.5563Y-3.4559
X6.5606Y-2.2524
X6.5945Y-3.0961
X6.6138Y-2.2484
X6.6398Y-3.5941
X6.6453Y-2.3177
X6.6547Y-3.4732
X6.6772Y-2.5429
X6.698Y-2.9374
X6.7059Y-3.4941
X6.7067Y-2.4366
X6.7252Y-3.5937
X6.7571Y-2.4614
X6.7602Y-2.9669
X6.7717Y-2.7685
X6.7835Y-3.0083
X6.8185Y-3.4031
X6.8362Y-2.3134
X6.8425Y-3.0551
X6.8425Y-3.1268
X6.8728Y-2.7406
X6.8736Y-2.5799
X6.8736Y-2.8043
X6.8752Y-3.1453
X6.8929Y-2.5236
X6.8972Y-2.2299
X6.9122Y-2.172
X6.9193Y-2.3059
X6.9205Y-3.5394
X6.9378Y-2.4429
X6.939Y-3.3791
X6.948Y-2.1843
X6.9697Y-2.5559
X6.9705Y-3.0539
X6.9768Y-3.0146
X6.9988Y-2.4646
X7.0531Y-3.0008
X7.0638Y-3.176
X7.0736Y-2.7429
X7.074Y-3.3996
X7.0965Y-2.3827
X7.1177Y-2.9323
X7.1319Y-3.5217
X7.1335Y-3.0323
X7.1437Y-3.274
X7.15Y-2.1866
X7.1591Y-2.6874
X7.161Y-2.7433
X7.1634Y-3.3945
X7.1825Y-3.5211
X7.1945Y-2.3945
X7.198Y-2.6264
X7.2142Y-2.4252
X7.224Y-2.1539
X7.2386Y-3.389
X7.2531Y-2.3413
X7.2677Y-2.2547
X7.2681Y-2.2913
X7.2866Y-2.7744
X7.2886Y-3.2689
X7.3004Y-2.3626
X7.3102Y-3.502
X7.311Y-3.4339
X7.3193Y-3.0457
X7.3205Y-3.3035
X7.3215Y-2.9435
X7.3583Y-3.0484
X7.3606Y-2.6874
X7.3685Y-3.1484
X7.3717Y-2.398
X7.3886Y-3.3315
X7.4051Y-3.0567
X7.4098Y-2.5409
X7.4173Y-2.2157
X7.4177Y-2.9413
X7.424Y-2.5083
X7.4264Y-2.8902
X7.4429Y-3.1075
X7.4634Y-2.5965
X7.465Y-2.6437
X7.4717Y-2.4925
X7.5201Y-2.2752
T2
X4.1827Y-3.0185
X4.1827Y-3.1185
X4.1827Y-3.2185
X4.7469Y-3.5028
X4.7469Y-3.6028
X4.7469Y-3.7028
T3
X4.137Y-2.0
X4.137Y-2.1
X4.137Y-2.2
X4.137Y-2.3
X4.137Y-2.4
X4.137Y-2.5
X4.137Y-2.6
X4.137Y-2.7
X4.677Y-1.937
X4.777Y-1.937
X4.877Y-1.937
X4.977Y-1.937
X5.037Y-3.837
X5.077Y-1.937
X5.137Y-3.837
X5.177Y-1.937
X5.237Y-3.837
X5.277Y-1.937
X5.337Y-3.837
X5.377Y-1.937
X5.437Y-3.837
X5.477Y-1.937
X5.537Y-3.837
X5.577Y-1.937
X5.637Y-3.837
X5.737Y-1.937
X5.737Y-3.837
X5.837Y-1.937
X5.8685Y-2.5488
X5.8685Y-2.6488
X5.8685Y-2.7488
X5.8685Y-2.8488
X5.8685Y-2.9488
X5.8685Y-3.0488
X5.8685Y-3.1488
X5.8685Y-3.2488
X5.937Y-1.937
X5.937Y-3.837
X6.037Y-1.937
X6.037Y-3.837
X6.137Y-1.937
X6.137Y-3.837
X6.1685Y-2.5488
X6.1685Y-2.6488
X6.1685Y-2.7488
X6.1685Y-2.8488
X6.1685Y-2.9488
X6.1685Y-3.0488
X6.1685Y-3.1488
X6.1685Y-3.2488
X6.237Y-1.937
X6.237Y-3.837
X6.337Y-1.937
X6.337Y-3.837
X6.437Y-1.937
X6.437Y-3.837
X6.537Y-3.837
X6.637Y-1.937
X6.637Y-3.837
X6.737Y-1.937
X6.837Y-1.937
X6.837Y-3.837
X6.937Y-1.937
X6.937Y-3.837
X7.037Y-1.937
X7.037Y-3.837
X7.137Y-1.937
X7.137Y-3.837
X7.237Y-1.937
X7.237Y-3.837
X7.337Y-1.937
X7.337Y-3.837
X7.437Y-3.837
X7.537Y-3.837
X7.637Y-1.937
X7.637Y-2.037
X7.637Y-2.137
X7.637Y-2.237
X7.637Y-2.337
X7.637Y-2.437
X7.637Y-2.537
X7.637Y-2.637
X7.637Y-2.737
X7.637Y-2.837
X7.637Y-2.937
X7.637Y-3.037
X7.637Y-3.137
X7.637Y-3.237
X7.637Y-3.337
X7.637Y-3.437
X7.637Y-3.537
X7.637Y-3.637
X7.737Y-1.937
X7.737Y-2.037
X7.737Y-2.137
X7.737Y-2.237
X7.737Y-2.337
X7.737Y-2.437
X7.737Y-2.537
X7.737Y-2.637
X7.737Y-2.737
X7.737Y-2.837
X7.737Y-2.937
X7.737Y-3.037
X7.737Y-3.137
X7.737Y-3.237
X7.737Y-3.337
X7.737Y-3.437
X7.737Y-3.537
X7.737Y-3.637
M30
